<svg width="30" height="30" viewBox="0 0 30 30" fill="none" xmlns="http://www.w3.org/2000/svg">
<path d="M1.66699 1.66663H3.40854C3.73657 1.66663 3.90058 1.66663 4.03257 1.72695C4.14888 1.7801 4.24745 1.86559 4.31653 1.97322C4.39491 2.09535 4.4181 2.25772 4.46449 2.58244L5.09556 6.99996M5.09556 6.99996L6.49809 17.3085C6.67607 18.6167 6.76506 19.2707 7.07779 19.7631C7.35336 20.1969 7.74844 20.5419 8.21547 20.7565C8.74548 21 9.40558 21 10.7258 21H22.1363C23.393 21 24.0214 21 24.5349 20.7738C24.9877 20.5745 25.3761 20.2531 25.6567 19.8456C25.9749 19.3834 26.0925 18.7662 26.3276 17.5316L28.0925 8.26621C28.1752 7.8317 28.2166 7.61445 28.1566 7.44463C28.104 7.29565 28.0002 7.17021 27.8637 7.09065C27.7081 6.99996 27.487 6.99996 27.0446 6.99996H5.09556ZM12.3337 27C12.3337 27.7363 11.7367 28.3333 11.0003 28.3333C10.2639 28.3333 9.66699 27.7363 9.66699 27C9.66699 26.2636 10.2639 25.6666 11.0003 25.6666C11.7367 25.6666 12.3337 26.2636 12.3337 27ZM23.0003 27C23.0003 27.7363 22.4034 28.3333 21.667 28.3333C20.9306 28.3333 20.3337 27.7363 20.3337 27C20.3337 26.2636 20.9306 25.6666 21.667 25.6666C22.4034 25.6666 23.0003 26.2636 23.0003 27Z" stroke="#101828" stroke-width="2" stroke-linecap="round" stroke-linejoin="round"/>
</svg>
