<svg width="28" height="28" viewBox="0 0 28 28" fill="none" xmlns="http://www.w3.org/2000/svg">
<path d="M19.3333 10.9999C19.3333 10.4028 19.1055 9.80568 18.6499 9.35008C18.1943 8.89447 17.5972 8.66667 17 8.66667M17 18C20.866 18 24 14.866 24 11C24 7.13401 20.866 4 17 4C13.134 4 10 7.13401 10 11C10 11.3193 10.0214 11.6336 10.0628 11.9415C10.1309 12.448 10.1649 12.7013 10.142 12.8615C10.1181 13.0284 10.0877 13.1184 10.0055 13.2655C9.9265 13.4068 9.78733 13.546 9.50899 13.8243L3.54673 19.7866C3.34496 19.9884 3.24407 20.0893 3.17192 20.207C3.10795 20.3114 3.06081 20.4252 3.03224 20.5442C3 20.6785 3 20.8212 3 21.1065V23.1333C3 23.7867 3 24.1134 3.12716 24.363C3.23901 24.5825 3.41749 24.761 3.63701 24.8728C3.88657 25 4.21327 25 4.86667 25H7.66667V22.6667H10V20.3333H12.3333L14.1757 18.491C14.454 18.2127 14.5932 18.0735 14.7345 17.9945C14.8816 17.9123 14.9716 17.8819 15.1385 17.858C15.2987 17.8351 15.552 17.8691 16.0585 17.9372C16.3664 17.9786 16.6807 18 17 18Z" stroke="#344054" stroke-width="1.5" stroke-linecap="round" stroke-linejoin="round"/>
</svg>
