<svg width="24" height="20" viewBox="0 0 24 20" fill="none" xmlns="http://www.w3.org/2000/svg">
<path fill-rule="evenodd" clip-rule="evenodd" d="M23.975 2.03418C24.2044 0.677704 22.8118 -0.393708 21.5129 0.139791L1.09521 8.52558C-0.32854 9.11024 -0.401493 11.1179 1.09622 11.7235C2.20435 12.1716 3.90026 12.8286 5.60114 13.3756C6.99629 13.8242 8.51718 14.2407 9.73557 14.3586C10.0691 14.7478 10.4889 15.1217 10.9154 15.4637C11.5686 15.9877 12.355 16.5282 13.1668 17.0457C14.7926 18.0819 16.5965 19.0734 17.8123 19.7176C19.2653 20.4874 21.0047 19.601 21.266 18.0562L23.975 2.03418ZM3.38508 10.1124L21.4428 2.69594L18.9143 17.6506C17.7221 17.0182 16.0034 16.0711 14.4731 15.0958C13.6989 14.6022 12.9918 14.1135 12.4322 13.6647C12.2329 13.5048 12.0642 13.3592 11.9237 13.2289L16.6532 8.61538C17.1195 8.16057 17.1195 7.42311 16.6532 6.9683C16.1869 6.51347 15.4309 6.51347 14.9646 6.9683L9.7848 12.0209C8.90907 11.9116 7.68828 11.5941 6.34887 11.1634C5.31807 10.8319 4.28164 10.4553 3.38508 10.1124Z" fill="#98A2B3"/>
</svg>
