<svg width="56" height="56" viewBox="0 0 56 56" fill="none" xmlns="http://www.w3.org/2000/svg">
<path d="M28 56C43.464 56 56 43.464 56 28C56 12.536 43.464 0 28 0C12.536 0 0 12.536 0 28C0 43.464 12.536 56 28 56Z" fill="#ECEFF1"/>
<path d="M48.3739 44.373C47.1559 43.4105 45.6719 42.7175 44.0619 42.3815L36.3864 40.8415C35.5814 40.6875 35.0004 39.9665 35.0004 39.1265V37.366C35.4939 36.673 35.9594 35.7525 36.4459 34.79C36.8239 34.0445 37.3944 32.921 37.6779 32.6305C39.2319 31.0695 40.7334 29.316 41.1989 27.055C41.6329 24.934 41.2059 23.821 40.7054 22.925C40.7054 20.6885 40.6354 17.8885 40.1069 15.8515C40.0439 13.0935 39.5434 11.543 38.2834 10.185C37.3944 9.2225 36.0854 8.9985 35.0319 8.82C34.6189 8.75 34.0484 8.652 33.8384 8.54C31.9729 7.532 30.1284 7.0385 27.9269 7C23.3174 7.189 17.6509 10.122 15.7539 15.351C15.1659 16.9435 15.2254 19.558 15.2744 21.658L15.2289 22.9215C14.7774 23.8035 14.3329 24.9235 14.7704 27.0515C15.2324 29.316 16.7339 31.073 18.3159 32.655C18.5749 32.921 19.1594 34.055 19.5444 34.804C20.0379 35.763 20.5069 36.68 21.0004 37.3695V39.13C21.0004 39.9665 20.4159 40.6875 19.6074 40.845L11.9249 42.385C10.3254 42.7245 8.8414 43.4105 7.6269 44.373C7.2489 44.6775 7.0109 45.122 6.9724 45.605C6.9339 46.088 7.0949 46.5605 7.4204 46.921C12.6494 52.689 20.1499 56 28.0004 56C35.8509 56 43.3549 52.6925 48.5804 46.921C48.9059 46.5605 49.0704 46.0845 49.0284 45.6015C49.0092 45.3628 48.9412 45.1306 48.8286 44.9193C48.7161 44.708 48.5613 44.5221 48.3739 44.373Z" fill="#A9B3B9"/>
</svg>
