<svg width="54" height="34" viewBox="0 0 54 34" fill="none" xmlns="http://www.w3.org/2000/svg">
<path d="M40.0085 1.22186L30.9163 0.122978C27.3423 -0.308953 23.7155 0.540961 20.7054 2.51652C17.6953 4.49197 15.4724 7.48057 14.4466 10.9319L11.8958 19.5125L1.08289 25.4104C0.784221 25.5733 0.586902 25.8748 0.556943 26.2137C0.52719 26.5526 0.668929 26.884 0.934535 27.0965C5.54354 30.7836 11.0979 32.8356 16.997 33.0306C17.3045 33.0407 17.6107 33.0459 17.9169 33.0459C23.485 33.0459 28.8263 31.3688 33.4161 28.1697L39.4501 23.9644L52.2886 25.2812C52.3233 25.2848 52.3579 25.2865 52.3924 25.2865C52.642 25.2865 52.8843 25.1947 53.0717 25.0262C53.285 24.8344 53.4076 24.5617 53.4089 24.2749L53.4467 16.4563C53.4843 8.70146 47.707 2.15225 40.0085 1.22186ZM32.2539 26.5017C23.6147 32.5229 11.9856 32.4352 3.44369 26.4382L12.9605 21.2473L36.3508 23.6463L32.2539 26.5017ZM51.3815 23.1443L14.0743 19.318L14.7147 17.1638L21.799 17.9277C21.836 17.9316 21.8729 17.9337 21.9093 17.9337C22.4218 17.9337 22.8625 17.5472 22.9187 17.0261C22.9788 16.4679 22.5752 15.9668 22.0171 15.9065L15.3038 15.1826L16.3952 11.5112C18.24 5.30511 24.2442 1.36464 30.6725 2.1412L39.7646 3.24009C46.4383 4.04661 51.4466 9.7239 51.414 16.446L51.3815 23.1443Z" fill="#475467"/>
<path d="M27.1128 16.5521L27.1038 16.5511C26.4649 16.4816 25.8975 16.9445 25.8289 17.5825C25.7603 18.2204 26.2264 18.7936 26.8644 18.8623C26.9065 18.8669 26.9484 18.8692 26.9901 18.8692C27.5759 18.8692 28.0797 18.4272 28.1438 17.8316C28.2124 17.1936 27.7508 16.6208 27.1128 16.5521Z" fill="#475467"/>
</svg>
