<svg xmlns="http://www.w3.org/2000/svg" xmlns:xlink="http://www.w3.org/1999/xlink" width="120" zoomAndPan="magnify" viewBox="0 0 90 89.999999" height="120" preserveAspectRatio="xMidYMid meet" version="1.0"><defs><filter x="0%" y="0%" width="100%" height="100%" id="10bbc5293a"><feColorMatrix values="0 0 0 0 1 0 0 0 0 1 0 0 0 0 1 0 0 0 1 0" color-interpolation-filters="sRGB"/></filter><mask id="4bf5d4b24f"><g filter="url(#10bbc5293a)"><rect x="-9" width="108" fill="#000000" y="-9" height="107.999999" fill-opacity="0.6"/></g></mask><clipPath id="2943487256"><path d="M 3 3 L 87 3 L 87 87 L 3 87 Z M 3 3 " clip-rule="nonzero"/></clipPath><clipPath id="a2fee77f95"><path d="M 86.550781 45 C 86.550781 46.359375 86.484375 47.71875 86.351562 49.074219 C 86.214844 50.425781 86.015625 51.769531 85.75 53.105469 C 85.484375 54.441406 85.15625 55.757812 84.761719 57.0625 C 84.367188 58.363281 83.90625 59.644531 83.386719 60.902344 C 82.867188 62.15625 82.285156 63.386719 81.644531 64.585938 C 81.003906 65.785156 80.304688 66.953125 79.546875 68.082031 C 78.792969 69.214844 77.980469 70.308594 77.117188 71.359375 C 76.253906 72.410156 75.34375 73.417969 74.378906 74.378906 C 73.417969 75.34375 72.410156 76.253906 71.359375 77.117188 C 70.308594 77.980469 69.214844 78.792969 68.082031 79.546875 C 66.953125 80.304688 65.785156 81.003906 64.585938 81.644531 C 63.386719 82.285156 62.15625 82.867188 60.902344 83.386719 C 59.644531 83.90625 58.363281 84.367188 57.0625 84.761719 C 55.757812 85.15625 54.441406 85.484375 53.105469 85.75 C 51.769531 86.015625 50.425781 86.214844 49.074219 86.351562 C 47.71875 86.484375 46.359375 86.550781 45 86.550781 C 43.640625 86.550781 42.28125 86.484375 40.925781 86.351562 C 39.574219 86.214844 38.230469 86.015625 36.894531 85.75 C 35.558594 85.484375 34.242188 85.15625 32.9375 84.761719 C 31.636719 84.367188 30.355469 83.90625 29.097656 83.386719 C 27.84375 82.867188 26.613281 82.285156 25.414062 81.644531 C 24.214844 81.003906 23.046875 80.304688 21.917969 79.546875 C 20.785156 78.792969 19.691406 77.980469 18.640625 77.117188 C 17.589844 76.253906 16.582031 75.34375 15.621094 74.378906 C 14.65625 73.417969 13.746094 72.410156 12.882812 71.359375 C 12.019531 70.308594 11.207031 69.214844 10.453125 68.082031 C 9.695312 66.953125 8.996094 65.785156 8.355469 64.585938 C 7.714844 63.386719 7.132812 62.15625 6.613281 60.902344 C 6.09375 59.644531 5.632812 58.363281 5.238281 57.0625 C 4.84375 55.757812 4.515625 54.441406 4.25 53.105469 C 3.984375 51.769531 3.785156 50.425781 3.648438 49.074219 C 3.515625 47.71875 3.449219 46.359375 3.449219 45 C 3.449219 43.640625 3.515625 42.28125 3.648438 40.925781 C 3.785156 39.574219 3.984375 38.230469 4.25 36.894531 C 4.515625 35.558594 4.84375 34.242188 5.238281 32.9375 C 5.632812 31.636719 6.09375 30.355469 6.613281 29.097656 C 7.132812 27.84375 7.714844 26.613281 8.355469 25.414062 C 8.996094 24.214844 9.695312 23.046875 10.453125 21.917969 C 11.207031 20.785156 12.019531 19.691406 12.882812 18.640625 C 13.746094 17.589844 14.65625 16.582031 15.621094 15.621094 C 16.582031 14.65625 17.589844 13.746094 18.640625 12.882812 C 19.691406 12.019531 20.785156 11.207031 21.917969 10.453125 C 23.046875 9.695312 24.214844 8.996094 25.414062 8.355469 C 26.613281 7.714844 27.84375 7.132812 29.097656 6.613281 C 30.355469 6.09375 31.636719 5.632812 32.9375 5.238281 C 34.242188 4.84375 35.558594 4.515625 36.894531 4.25 C 38.230469 3.984375 39.574219 3.785156 40.925781 3.648438 C 42.28125 3.515625 43.640625 3.449219 45 3.449219 C 46.359375 3.449219 47.71875 3.515625 49.074219 3.648438 C 50.425781 3.785156 51.769531 3.984375 53.105469 4.25 C 54.441406 4.515625 55.757812 4.84375 57.0625 5.238281 C 58.363281 5.632812 59.644531 6.09375 60.902344 6.613281 C 62.15625 7.132812 63.386719 7.714844 64.585938 8.355469 C 65.785156 8.996094 66.953125 9.695312 68.082031 10.453125 C 69.214844 11.207031 70.308594 12.019531 71.359375 12.882812 C 72.410156 13.746094 73.417969 14.65625 74.378906 15.621094 C 75.34375 16.582031 76.253906 17.589844 77.117188 18.640625 C 77.980469 19.691406 78.792969 20.785156 79.546875 21.917969 C 80.304688 23.046875 81.003906 24.214844 81.644531 25.414062 C 82.285156 26.613281 82.867188 27.84375 83.386719 29.097656 C 83.90625 30.355469 84.367188 31.636719 84.761719 32.9375 C 85.15625 34.242188 85.484375 35.558594 85.75 36.894531 C 86.015625 38.230469 86.214844 39.574219 86.351562 40.925781 C 86.484375 42.28125 86.550781 43.640625 86.550781 45 Z M 86.550781 45 " clip-rule="nonzero"/></clipPath><linearGradient x1="115" gradientTransform="matrix(0.03, 0, 0, 0.03, 0.0000005, 0.000002)" y1="1500" x2="2885.0002" gradientUnits="userSpaceOnUse" y2="1500" id="2a5e8b1bfc"><stop stop-opacity="1" stop-color="rgb(99.996948%, 99.996948%, 99.996948%)" offset="0"/><stop stop-opacity="1" stop-color="rgb(99.84436%, 99.84436%, 99.84436%)" offset="0.03125"/><stop stop-opacity="1" stop-color="rgb(99.537659%, 99.537659%, 99.537659%)" offset="0.0625"/><stop stop-opacity="1" stop-color="rgb(99.230957%, 99.230957%, 99.230957%)" offset="0.09375"/><stop stop-opacity="1" stop-color="rgb(98.925781%, 98.925781%, 98.925781%)" offset="0.125"/><stop stop-opacity="1" stop-color="rgb(98.61908%, 98.61908%, 98.61908%)" offset="0.15625"/><stop stop-opacity="1" stop-color="rgb(98.313904%, 98.313904%, 98.313904%)" offset="0.1875"/><stop stop-opacity="1" stop-color="rgb(98.007202%, 98.007202%, 98.007202%)" offset="0.21875"/><stop stop-opacity="1" stop-color="rgb(97.7005%, 97.7005%, 97.7005%)" offset="0.25"/><stop stop-opacity="1" stop-color="rgb(97.395325%, 97.395325%, 97.395325%)" offset="0.28125"/><stop stop-opacity="1" stop-color="rgb(97.088623%, 97.088623%, 97.088623%)" offset="0.3125"/><stop stop-opacity="1" stop-color="rgb(96.781921%, 96.781921%, 96.781921%)" offset="0.34375"/><stop stop-opacity="1" stop-color="rgb(96.476746%, 96.476746%, 96.476746%)" offset="0.375"/><stop stop-opacity="1" stop-color="rgb(96.170044%, 96.170044%, 96.170044%)" offset="0.40625"/><stop stop-opacity="1" stop-color="rgb(95.864868%, 95.864868%, 95.864868%)" offset="0.4375"/><stop stop-opacity="1" stop-color="rgb(95.558167%, 95.558167%, 95.558167%)" offset="0.46875"/><stop stop-opacity="1" stop-color="rgb(95.251465%, 95.251465%, 95.251465%)" offset="0.5"/><stop stop-opacity="1" stop-color="rgb(94.946289%, 94.946289%, 94.946289%)" offset="0.53125"/><stop stop-opacity="1" stop-color="rgb(94.639587%, 94.639587%, 94.639587%)" offset="0.5625"/><stop stop-opacity="1" stop-color="rgb(94.332886%, 94.332886%, 94.332886%)" offset="0.59375"/><stop stop-opacity="1" stop-color="rgb(94.02771%, 94.02771%, 94.02771%)" offset="0.625"/><stop stop-opacity="1" stop-color="rgb(93.721008%, 93.721008%, 93.721008%)" offset="0.65625"/><stop stop-opacity="1" stop-color="rgb(93.414307%, 93.414307%, 93.414307%)" offset="0.6875"/><stop stop-opacity="1" stop-color="rgb(93.109131%, 93.109131%, 93.109131%)" offset="0.71875"/><stop stop-opacity="1" stop-color="rgb(92.802429%, 92.802429%, 92.802429%)" offset="0.75"/><stop stop-opacity="1" stop-color="rgb(92.497253%, 92.497253%, 92.497253%)" offset="0.78125"/><stop stop-opacity="1" stop-color="rgb(92.190552%, 92.190552%, 92.190552%)" offset="0.8125"/><stop stop-opacity="1" stop-color="rgb(91.88385%, 91.88385%, 91.88385%)" offset="0.84375"/><stop stop-opacity="1" stop-color="rgb(91.578674%, 91.578674%, 91.578674%)" offset="0.875"/><stop stop-opacity="1" stop-color="rgb(91.271973%, 91.271973%, 91.271973%)" offset="0.90625"/><stop stop-opacity="1" stop-color="rgb(90.965271%, 90.965271%, 90.965271%)" offset="0.9375"/><stop stop-opacity="1" stop-color="rgb(90.660095%, 90.660095%, 90.660095%)" offset="0.96875"/><stop stop-opacity="1" stop-color="rgb(90.353394%, 90.353394%, 90.353394%)" offset="1"/></linearGradient><clipPath id="81830af514"><rect x="0" width="90" y="0" height="90"/></clipPath></defs><rect x="-9" width="108" fill="#ffffff" y="-9" height="107.999999" fill-opacity="1"/><rect x="-9" width="108" fill="#ffffff" y="-9" height="107.999999" fill-opacity="1"/><g mask="url(#4bf5d4b24f)"><g transform="matrix(1, 0, 0, 1, 0, -0.00000000000000949)"><g clip-path="url(#81830af514)"><path fill="#ffffff" d="M 90 45 C 90 46.472656 89.929688 47.945312 89.785156 49.410156 C 89.640625 50.878906 89.421875 52.332031 89.136719 53.777344 C 88.847656 55.222656 88.488281 56.652344 88.0625 58.0625 C 87.632812 59.472656 87.136719 60.859375 86.574219 62.222656 C 86.011719 63.582031 85.382812 64.914062 84.6875 66.210938 C 83.992188 67.511719 83.234375 68.773438 82.417969 70 C 81.597656 71.226562 80.71875 72.410156 79.785156 73.546875 C 78.851562 74.6875 77.863281 75.777344 76.820312 76.820312 C 75.777344 77.863281 74.6875 78.851562 73.546875 79.785156 C 72.410156 80.71875 71.226562 81.597656 70 82.417969 C 68.773438 83.234375 67.511719 83.992188 66.210938 84.6875 C 64.914062 85.382812 63.582031 86.011719 62.222656 86.574219 C 60.859375 87.136719 59.472656 87.632812 58.0625 88.0625 C 56.652344 88.488281 55.222656 88.847656 53.777344 89.136719 C 52.332031 89.421875 50.878906 89.640625 49.410156 89.785156 C 47.945312 89.929688 46.472656 90 45 90 C 43.527344 90 42.054688 89.929688 40.589844 89.785156 C 39.121094 89.640625 37.667969 89.421875 36.222656 89.136719 C 34.777344 88.847656 33.347656 88.488281 31.9375 88.0625 C 30.527344 87.632812 29.140625 87.136719 27.777344 86.574219 C 26.417969 86.011719 25.085938 85.382812 23.789062 84.6875 C 22.488281 83.992188 21.226562 83.234375 20 82.417969 C 18.773438 81.597656 17.589844 80.71875 16.453125 79.785156 C 15.3125 78.851562 14.222656 77.863281 13.179688 76.820312 C 12.136719 75.777344 11.148438 74.6875 10.214844 73.546875 C 9.28125 72.410156 8.402344 71.226562 7.582031 70 C 6.765625 68.773438 6.007812 67.511719 5.3125 66.210938 C 4.617188 64.914062 3.988281 63.582031 3.425781 62.222656 C 2.863281 60.859375 2.367188 59.472656 1.9375 58.0625 C 1.511719 56.652344 1.152344 55.222656 0.863281 53.777344 C 0.578125 52.332031 0.359375 50.878906 0.214844 49.410156 C 0.0703125 47.945312 0 46.472656 0 45 C 0 43.527344 0.0703125 42.054688 0.214844 40.589844 C 0.359375 39.121094 0.578125 37.667969 0.863281 36.222656 C 1.152344 34.777344 1.511719 33.347656 1.9375 31.9375 C 2.367188 30.527344 2.863281 29.140625 3.425781 27.777344 C 3.988281 26.417969 4.617188 25.085938 5.3125 23.789062 C 6.007812 22.488281 6.765625 21.226562 7.582031 20 C 8.402344 18.773438 9.28125 17.589844 10.214844 16.453125 C 11.148438 15.3125 12.136719 14.222656 13.179688 13.179688 C 14.222656 12.136719 15.3125 11.148438 16.453125 10.214844 C 17.589844 9.28125 18.773438 8.402344 20 7.582031 C 21.226562 6.765625 22.488281 6.007812 23.789062 5.3125 C 25.085938 4.617188 26.417969 3.988281 27.777344 3.425781 C 29.140625 2.863281 30.527344 2.367188 31.9375 1.9375 C 33.347656 1.511719 34.777344 1.152344 36.222656 0.863281 C 37.667969 0.578125 39.121094 0.359375 40.589844 0.214844 C 42.054688 0.0703125 43.527344 0 45 0 C 46.472656 0 47.945312 0.0703125 49.410156 0.214844 C 50.878906 0.359375 52.332031 0.578125 53.777344 0.863281 C 55.222656 1.152344 56.652344 1.511719 58.0625 1.9375 C 59.472656 2.367188 60.859375 2.863281 62.222656 3.425781 C 63.582031 3.988281 64.914062 4.617188 66.210938 5.3125 C 67.511719 6.007812 68.773438 6.765625 70 7.582031 C 71.226562 8.402344 72.410156 9.28125 73.546875 10.214844 C 74.6875 11.148438 75.777344 12.136719 76.820312 13.179688 C 77.863281 14.222656 78.851562 15.3125 79.785156 16.453125 C 80.71875 17.589844 81.597656 18.773438 82.417969 20 C 83.234375 21.226562 83.992188 22.488281 84.6875 23.789062 C 85.382812 25.085938 86.011719 26.417969 86.574219 27.777344 C 87.136719 29.140625 87.632812 30.527344 88.0625 31.9375 C 88.488281 33.347656 88.847656 34.777344 89.136719 36.222656 C 89.421875 37.667969 89.640625 39.121094 89.785156 40.589844 C 89.929688 42.054688 90 43.527344 90 45 Z M 90 45 " fill-opacity="1" fill-rule="nonzero"/><g clip-path="url(#2943487256)"><g clip-path="url(#a2fee77f95)"><path fill="url(#2a5e8b1bfc)" d="M 3.449219 3.449219 L 3.449219 86.550781 L 86.550781 86.550781 L 86.550781 3.449219 Z M 3.449219 3.449219 " fill-rule="nonzero"/></g></g><path fill="#ff914d" d="M 34.230469 63.78125 L 34.230469 35.460938 L 19.769531 42.871094 C 19.558594 42.960938 19.410156 43.171875 19.410156 43.441406 L 19.410156 63.78125 C 19.410156 64.109375 19.679688 64.378906 20.011719 64.378906 L 34.351562 64.378906 C 34.289062 64.199219 34.230469 63.988281 34.230469 63.78125 Z M 23.191406 44.609375 C 23.191406 44.28125 23.460938 44.011719 23.789062 44.011719 L 32.25 44.011719 C 32.578125 44.011719 32.851562 44.28125 32.851562 44.609375 C 32.851562 44.941406 32.578125 45.210938 32.25 45.210938 L 23.789062 45.210938 C 23.460938 45.210938 23.191406 44.941406 23.191406 44.609375 Z M 23.191406 49.949219 C 23.191406 49.621094 23.460938 49.351562 23.789062 49.351562 L 32.25 49.351562 C 32.578125 49.351562 32.851562 49.621094 32.851562 49.949219 C 32.851562 50.308594 32.578125 50.550781 32.25 50.550781 L 23.789062 50.550781 C 23.460938 50.550781 23.191406 50.308594 23.191406 49.949219 Z M 23.191406 55.320312 C 23.191406 54.988281 23.460938 54.71875 23.789062 54.71875 L 32.25 54.71875 C 32.578125 54.71875 32.851562 54.988281 32.851562 55.320312 C 32.851562 55.648438 32.578125 55.921875 32.25 55.921875 L 23.789062 55.921875 C 23.460938 55.921875 23.191406 55.648438 23.191406 55.320312 Z M 23.191406 60.691406 C 23.191406 60.359375 23.460938 60.089844 23.789062 60.089844 L 32.25 60.089844 C 32.578125 60.089844 32.851562 60.359375 32.851562 60.691406 C 32.851562 61.019531 32.578125 61.289062 32.25 61.289062 L 23.789062 61.289062 C 23.460938 61.289062 23.191406 61.019531 23.191406 60.691406 Z M 23.191406 60.691406 " fill-opacity="1" fill-rule="evenodd"/><path fill="#ff914d" d="M 47.789062 33.898438 L 51.300781 33.898438 C 51.628906 33.898438 51.898438 34.171875 51.898438 34.5 L 51.898438 37.980469 C 51.898438 38.308594 51.628906 38.578125 51.300781 38.578125 L 47.789062 38.578125 C 47.460938 38.578125 47.191406 38.308594 47.191406 37.980469 L 47.191406 34.5 C 47.191406 34.171875 47.460938 33.898438 47.789062 33.898438 Z M 55.53125 63.78125 L 55.53125 30.148438 C 55.53125 29.820312 55.261719 29.550781 54.929688 29.550781 L 36.03125 29.550781 C 35.699219 29.550781 35.429688 29.820312 35.429688 30.148438 L 35.429688 63.78125 C 35.429688 64.109375 35.699219 64.378906 36.03125 64.378906 L 39.480469 64.378906 C 39.148438 64.378906 38.878906 64.109375 38.878906 63.78125 L 38.878906 52.980469 C 38.878906 52.109375 39.238281 51.328125 39.78125 50.761719 C 40.351562 50.191406 41.128906 49.859375 42 49.859375 L 44.878906 49.859375 L 44.878906 64.378906 L 46.078125 64.378906 L 46.078125 49.859375 L 48.960938 49.859375 C 50.671875 49.859375 52.078125 51.269531 52.078125 52.980469 L 52.078125 63.78125 C 52.078125 64.109375 51.808594 64.378906 51.480469 64.378906 L 54.929688 64.378906 C 55.261719 64.378906 55.53125 64.109375 55.53125 63.78125 Z M 39.660156 33.898438 L 43.171875 33.898438 C 43.5 33.898438 43.769531 34.171875 43.769531 34.5 L 43.769531 37.980469 C 43.769531 38.308594 43.5 38.578125 43.171875 38.578125 L 39.660156 38.578125 C 39.328125 38.578125 39.058594 38.308594 39.058594 37.980469 L 39.058594 34.5 C 39.058594 34.171875 39.328125 33.898438 39.660156 33.898438 Z M 39.660156 42.03125 L 43.171875 42.03125 C 43.5 42.03125 43.769531 42.300781 43.769531 42.628906 L 43.769531 46.109375 C 43.769531 46.46875 43.5 46.710938 43.171875 46.710938 L 39.660156 46.710938 C 39.328125 46.710938 39.058594 46.46875 39.058594 46.109375 L 39.058594 42.628906 C 39.058594 42.300781 39.328125 42.03125 39.660156 42.03125 Z M 47.789062 42.03125 L 51.300781 42.03125 C 51.628906 42.03125 51.898438 42.300781 51.898438 42.628906 L 51.898438 46.109375 C 51.898438 46.46875 51.628906 46.710938 51.300781 46.710938 L 47.789062 46.710938 C 47.460938 46.710938 47.191406 46.46875 47.191406 46.109375 L 47.191406 42.628906 C 47.191406 42.300781 47.460938 42.03125 47.789062 42.03125 Z M 47.789062 42.03125 " fill-opacity="1" fill-rule="evenodd"/><path fill="#ff914d" d="M 70.589844 63.78125 L 70.589844 36.929688 C 70.589844 36.601562 70.320312 36.328125 69.988281 36.328125 L 56.730469 36.328125 L 56.730469 63.78125 C 56.730469 63.988281 56.671875 64.199219 56.609375 64.378906 L 69.988281 64.378906 C 70.320312 64.378906 70.589844 64.109375 70.589844 63.78125 Z M 57.421875 39.808594 L 60.359375 39.808594 C 60.691406 39.808594 60.960938 40.078125 60.960938 40.410156 L 60.960938 43.921875 C 60.960938 44.25 60.691406 44.519531 60.359375 44.519531 L 57.421875 44.519531 C 57.089844 44.519531 56.820312 44.25 56.820312 43.921875 L 56.820312 40.410156 C 56.820312 40.078125 57.089844 39.808594 57.421875 39.808594 Z M 64.289062 39.808594 L 67.261719 39.808594 C 67.589844 39.808594 67.859375 40.078125 67.859375 40.410156 L 67.859375 43.921875 C 67.859375 44.25 67.589844 44.519531 67.261719 44.519531 L 64.289062 44.519531 C 63.960938 44.519531 63.691406 44.25 63.691406 43.921875 L 63.691406 40.410156 C 63.691406 40.078125 63.960938 39.808594 64.289062 39.808594 Z M 57.421875 48 L 60.359375 48 C 60.691406 48 60.960938 48.269531 60.960938 48.601562 L 60.960938 52.109375 C 60.960938 52.441406 60.691406 52.710938 60.359375 52.710938 L 57.421875 52.710938 C 57.089844 52.710938 56.820312 52.441406 56.820312 52.109375 L 56.820312 48.601562 C 56.820312 48.269531 57.089844 48 57.421875 48 Z M 64.289062 48 L 67.261719 48 C 67.589844 48 67.859375 48.269531 67.859375 48.601562 L 67.859375 52.109375 C 67.859375 52.441406 67.589844 52.710938 67.261719 52.710938 L 64.289062 52.710938 C 63.960938 52.710938 63.691406 52.441406 63.691406 52.109375 L 63.691406 48.601562 C 63.691406 48.269531 63.960938 48 64.289062 48 Z M 57.421875 56.191406 L 60.359375 56.191406 C 60.691406 56.191406 60.960938 56.460938 60.960938 56.789062 L 60.960938 60.300781 C 60.960938 60.628906 60.691406 60.898438 60.359375 60.898438 L 57.421875 60.898438 C 57.089844 60.898438 56.820312 60.628906 56.820312 60.300781 L 56.820312 56.789062 C 56.820312 56.460938 57.089844 56.191406 57.421875 56.191406 Z M 64.289062 56.191406 L 67.261719 56.191406 C 67.589844 56.191406 67.859375 56.460938 67.859375 56.789062 L 67.859375 60.300781 C 67.859375 60.628906 67.589844 60.898438 67.261719 60.898438 L 64.289062 60.898438 C 63.960938 60.898438 63.691406 60.628906 63.691406 60.300781 L 63.691406 56.789062 C 63.691406 56.460938 63.960938 56.191406 64.289062 56.191406 Z M 64.289062 56.191406 " fill-opacity="1" fill-rule="evenodd"/><path fill="#ff914d" d="M 53.910156 28.351562 L 53.910156 28.199219 C 53.910156 26.789062 52.738281 25.621094 51.328125 25.621094 L 39.628906 25.621094 C 38.21875 25.621094 37.050781 26.789062 37.050781 28.199219 L 37.050781 28.351562 Z M 53.910156 28.351562 " fill-opacity="1" fill-rule="nonzero"/><path fill="#ff914d" d="M 68.550781 35.128906 L 68.550781 30.359375 C 68.550781 30.300781 68.519531 30.210938 68.488281 30.148438 C 68.371094 29.820312 68.039062 29.671875 67.738281 29.789062 L 56.578125 34.078125 C 56.308594 34.171875 56.128906 34.410156 56.128906 34.679688 L 56.128906 35.128906 Z M 68.550781 35.128906 " fill-opacity="1" fill-rule="nonzero"/></g></g></g></svg>