<svg width="54" height="48" viewBox="0 0 54 48" fill="none" xmlns="http://www.w3.org/2000/svg">
<path fill-rule="evenodd" clip-rule="evenodd" d="M15.6123 22.7557L15.0841 9.62501C15.0663 9.17648 14.698 8.82266 14.2494 8.82266H2.88159C2.43305 8.82266 2.06475 9.17648 2.04636 9.62501L0.55364 46.7656C0.544725 46.9929 0.628304 47.2141 0.78599 47.3785C0.943675 47.5423 1.16154 47.6348 1.38887 47.6348H8.41173C8.87309 47.6348 9.24752 47.2604 9.24752 46.799C9.24752 46.3382 8.87309 45.9633 8.41173 45.9633H2.25921L3.68451 10.4942H13.4465L13.9419 22.8226C13.9603 23.2834 14.3497 23.6428 14.8105 23.6244C15.2713 23.606 15.6307 23.2165 15.6123 22.7557Z" fill="#475467"/>
<path fill-rule="evenodd" clip-rule="evenodd" d="M2.1355 29.0647H8.41172C8.87308 29.0647 9.24751 28.6902 9.24751 28.2289C9.24751 27.7675 8.87308 27.3931 8.41172 27.3931H2.1355C1.67415 27.3931 1.29971 27.7675 1.29971 28.2289C1.29971 28.6902 1.67415 29.0647 2.1355 29.0647ZM14.5899 17.2912H2.54114C2.07978 17.2912 1.70535 17.6657 1.70535 18.127C1.70535 18.5884 2.07978 18.9628 2.54114 18.9628H14.5899C15.0507 18.9628 15.4257 18.5884 15.4257 18.127C15.4257 17.6657 15.0507 17.2912 14.5899 17.2912Z" fill="#475467"/>
<path fill-rule="evenodd" clip-rule="evenodd" d="M3.86613 5.60257C3.86613 3.73431 5.3828 2.2182 7.25107 2.2182C8.39499 2.2182 9.40741 2.78765 10.0203 3.65742C10.2543 3.99062 10.6945 4.10596 11.0623 3.931C11.4072 3.76719 11.7928 3.67581 12.2001 3.67581C13.3629 3.67581 14.3519 4.42467 14.7113 5.46606C14.7921 5.70064 14.9726 5.88674 15.2044 5.97477C15.4362 6.06281 15.6948 6.04331 15.911 5.9224C16.1472 5.78923 16.4202 5.71345 16.7105 5.71345C17.6137 5.71345 18.347 6.44727 18.347 7.35048C18.347 7.81127 18.7214 8.18626 19.1828 8.18626C19.6436 8.18626 20.0186 7.81127 20.0186 7.35048C20.0186 5.52456 18.5359 4.04188 16.7105 4.04188C16.4409 4.04188 16.179 4.0742 15.9282 4.13549C15.1755 2.86008 13.7869 2.00424 12.2001 2.00424C11.7732 2.00424 11.3615 2.06609 10.972 2.18087C10.0482 1.17626 8.72262 0.546631 7.25107 0.546631C4.46009 0.546631 2.19455 2.81216 2.19455 5.60257C2.19455 6.06337 2.56954 6.43836 3.03034 6.43836C3.49169 6.43836 3.86613 6.06337 3.86613 5.60257Z" fill="#475467"/>
<path fill-rule="evenodd" clip-rule="evenodd" d="M34.48 47.6348H52.6506C53.112 47.6348 53.4864 47.2609 53.4864 46.799V10.6051C53.4864 10.302 53.322 10.0228 53.0574 9.87517C52.7927 9.72751 52.469 9.73476 52.211 9.89411L34.0404 21.131C33.6481 21.3739 33.5261 21.8893 33.769 22.2816C34.0114 22.6738 34.5268 22.7953 34.9191 22.5529L51.8148 12.1045V45.9632H34.48C34.0186 45.9632 33.6442 46.3382 33.6442 46.799C33.6442 47.2604 34.0186 47.6348 34.48 47.6348Z" fill="#475467"/>
<path fill-rule="evenodd" clip-rule="evenodd" d="M38.7715 29.588V32.9863C38.7715 33.4471 39.1465 33.8221 39.6073 33.8221C40.0686 33.8221 40.4431 33.4471 40.4431 32.9863V29.588C40.4431 29.1266 40.0686 28.7522 39.6073 28.7522C39.1465 28.7522 38.7715 29.1266 38.7715 29.588Z" fill="#475467"/>
<path fill-rule="evenodd" clip-rule="evenodd" d="M38.7715 37.6277V41.026C38.7715 41.4874 39.1465 41.8618 39.6073 41.8618C40.0686 41.8618 40.4431 41.4874 40.4431 41.026V37.6277C40.4431 37.1664 40.0686 36.792 39.6073 36.792C39.1465 36.792 38.7715 37.1664 38.7715 37.6277Z" fill="#475467"/>
<path fill-rule="evenodd" clip-rule="evenodd" d="M43.9177 29.588V32.9863C43.9177 33.4471 44.2922 33.8221 44.7535 33.8221C45.2149 33.8221 45.5893 33.4471 45.5893 32.9863V29.588C45.5893 29.1266 45.2149 28.7522 44.7535 28.7522C44.2922 28.7522 43.9177 29.1266 43.9177 29.588Z" fill="#475467"/>
<path fill-rule="evenodd" clip-rule="evenodd" d="M43.9177 37.6277V41.026C43.9177 41.4874 44.2922 41.8618 44.7535 41.8618C45.2149 41.8618 45.5893 41.4874 45.5893 41.026V37.6277C45.5893 37.1664 45.2149 36.792 44.7535 36.792C44.2922 36.792 43.9177 37.1664 43.9177 37.6277Z" fill="#475467"/>
<path fill-rule="evenodd" clip-rule="evenodd" d="M35.3158 10.6051C35.3158 10.302 35.1514 10.0228 34.8867 9.87517C34.6221 9.72751 34.2978 9.73476 34.0404 9.89411L7.97265 26.0142C7.72582 26.1668 7.57593 26.436 7.57593 26.7251V46.799C7.57593 47.2609 7.95037 47.6348 8.41173 47.6348L34.48 47.6348C34.9414 47.6348 35.3158 47.2609 35.3158 46.799V10.6051ZM33.6442 12.1045V45.9632H9.24751V27.191L33.6442 12.1045Z" fill="#475467"/>
<path fill-rule="evenodd" clip-rule="evenodd" d="M15.473 29.588V32.9863C15.473 33.4471 15.8474 33.8221 16.3088 33.8221C16.7702 33.8221 17.1446 33.4471 17.1446 32.9863V29.588C17.1446 29.1266 16.7702 28.7522 16.3088 28.7522C15.8474 28.7522 15.473 29.1266 15.473 29.588Z" fill="#475467"/>
<path fill-rule="evenodd" clip-rule="evenodd" d="M15.473 37.6277V41.026C15.473 41.4874 15.8474 41.8618 16.3088 41.8618C16.7702 41.8618 17.1446 41.4874 17.1446 41.026V37.6277C17.1446 37.1664 16.7702 36.792 16.3088 36.792C15.8474 36.792 15.473 37.1664 15.473 37.6277Z" fill="#475467"/>
<path fill-rule="evenodd" clip-rule="evenodd" d="M20.6009 29.588V32.9863C20.6009 33.4471 20.9753 33.8221 21.4367 33.8221C21.898 33.8221 22.2724 33.4471 22.2724 32.9863V29.588C22.2724 29.1266 21.898 28.7522 21.4367 28.7522C20.9753 28.7522 20.6009 29.1266 20.6009 29.588Z" fill="#475467"/>
<path fill-rule="evenodd" clip-rule="evenodd" d="M20.6009 37.6277V41.026C20.6009 41.4874 20.9753 41.8618 21.4367 41.8618C21.898 41.8618 22.2724 41.4874 22.2724 41.026V37.6277C22.2724 37.1664 21.898 36.792 21.4367 36.792C20.9753 36.792 20.6009 37.1664 20.6009 37.6277Z" fill="#475467"/>
<path fill-rule="evenodd" clip-rule="evenodd" d="M25.7471 29.588V32.9863C25.7471 33.4471 26.1215 33.8221 26.5829 33.8221C27.0442 33.8221 27.4187 33.4471 27.4187 32.9863V29.588C27.4187 29.1266 27.0442 28.7522 26.5829 28.7522C26.1215 28.7522 25.7471 29.1266 25.7471 29.588Z" fill="#475467"/>
<path fill-rule="evenodd" clip-rule="evenodd" d="M25.7471 37.6277V41.026C25.7471 41.4874 26.1215 41.8618 26.5829 41.8618C27.0442 41.8618 27.4187 41.4874 27.4187 41.026V37.6277C27.4187 37.1664 27.0442 36.792 26.5829 36.792C26.1215 36.792 25.7471 37.1664 25.7471 37.6277Z" fill="#475467"/>
</svg>
