<svg width="53" height="54" viewBox="0 0 53 54" fill="none" xmlns="http://www.w3.org/2000/svg">
<path d="M52.0696 21.4456L36.7393 10.9261C35.9073 10.3553 34.7664 10.5676 34.1956 11.3994L29.693 17.9611L30.3478 18.4104L27.4609 21.9501V0.579468H4.52368V6.13144L0.053009 17.7844L4.17894 49.9501C4.43235 51.9256 6.14025 53.4731 8.06726 53.4731H28.9862C29.9918 53.4731 30.9345 52.9756 31.5097 52.1421L47.317 30.0544L48.0402 30.5508L52.5428 23.989C53.1136 23.1573 52.9012 22.0164 52.0696 21.4456ZM6.09179 2.14758H25.893V5.49279H6.09179V2.14758ZM24.5338 51.905V49.6603H22.9657V51.905H8.06726C6.91403 51.905 5.88921 50.9586 5.73424 49.7506L1.65863 17.9769L5.84664 7.0609H22.9658V9.51756H24.5339V7.0609H25.8929V50.3921C25.8929 50.9418 26.0389 51.4577 26.2931 51.905H24.5338ZM30.2302 51.2354L30.2213 51.2481C29.9392 51.6595 29.4774 51.9051 28.9863 51.9051C28.1452 51.9051 27.461 51.2264 27.461 50.3922V24.4311L31.6453 19.3005L46.0239 29.167L30.2302 51.2354ZM51.2499 23.1018L47.6346 28.3705L31.8733 17.5554L35.4886 12.2868C35.5419 12.2091 35.6166 12.1851 35.6563 12.1778C35.696 12.1703 35.7743 12.166 35.8519 12.2193L51.1822 22.7387C51.3011 22.8201 51.3314 22.983 51.2499 23.1018Z" fill="#475467"/>
<path d="M21.6591 3.08839H20.091V4.6565H21.6591V3.08839Z" fill="#475467"/>
<path d="M18.523 3.08839H16.9549V4.6565H18.523V3.08839Z" fill="#475467"/>
<path d="M24.7954 3.08839H23.2272V4.6565H24.7954V3.08839Z" fill="#475467"/>
<path d="M9.11438 3.08839H7.54627V4.6565H9.11438V3.08839Z" fill="#475467"/>
<path d="M12.2506 3.08839H10.6825V4.6565H12.2506V3.08839Z" fill="#475467"/>
<path d="M15.3868 3.08839H13.8186V4.6565H15.3868V3.08839Z" fill="#475467"/>
<path d="M7.33718 13.7513V21.853C7.33718 25.1676 10.0336 27.864 13.3482 27.864C16.6627 27.864 19.3592 25.1676 19.3592 21.853V13.7513H7.33718ZM17.7911 21.853C17.7911 24.3029 15.798 26.2959 13.3482 26.2959C10.8983 26.2959 8.9053 24.3029 8.9053 21.853V18.4555H17.7912L17.7911 21.853ZM17.7911 16.8875H8.90519V15.3194H17.7911V16.8875Z" fill="#475467"/>
<path d="M24.534 20.8077H22.9659V23.9438H24.534V20.8077Z" fill="#475467"/>
<path d="M24.534 35.234H22.9659V38.3701H24.534V35.234Z" fill="#475467"/>
<path d="M24.534 40.0428H22.9659V43.1789H24.534V40.0428Z" fill="#475467"/>
<path d="M24.534 44.8515H22.9659V47.9876H24.534V44.8515Z" fill="#475467"/>
<path d="M24.534 30.4252H22.9659V33.5613H24.534V30.4252Z" fill="#475467"/>
<path d="M24.534 11.1901H22.9659V14.3262H24.534V11.1901Z" fill="#475467"/>
<path d="M24.534 15.9989H22.9659V19.135H24.534V15.9989Z" fill="#475467"/>
<path d="M24.534 25.6164H22.9659V28.7525H24.534V25.6164Z" fill="#475467"/>
</svg>
