<svg width="44" height="54" viewBox="0 0 44 54" fill="none" xmlns="http://www.w3.org/2000/svg">
<path d="M26.1541 24.5469C25.5838 24.5469 25.121 25.0097 25.121 25.58C25.121 26.1502 25.5838 26.613 26.1541 26.613C26.7243 26.613 27.1872 26.1502 27.1872 25.58C27.1872 25.0097 26.7243 24.5469 26.1541 24.5469Z" fill="#475467"/>
<path d="M22.0217 18.3484C21.4515 18.3484 20.9887 18.8112 20.9887 19.3815C20.9887 19.9517 21.4515 20.4146 22.0217 20.4146C22.592 20.4146 23.0548 19.9517 23.0548 19.3815C23.0548 18.8112 22.592 18.3484 22.0217 18.3484Z" fill="#475467"/>
<path d="M9.62474 45.2084C9.05448 45.2084 8.59166 45.6713 8.59166 46.2415C8.59166 46.8118 9.05448 47.2746 9.62474 47.2746C10.195 47.2746 10.6578 46.8118 10.6578 46.2415C10.6578 45.6713 10.195 45.2084 9.62474 45.2084Z" fill="#475467"/>
<path d="M42.5198 42.6958L29.2534 19.1109V6.60087C30.456 6.17452 31.3195 5.02563 31.3195 3.6787C31.3195 1.96978 29.9292 0.579468 28.2203 0.579468H15.8233C14.1144 0.579468 12.724 1.96978 12.724 3.6787C12.724 5.02563 13.5876 6.17452 14.7902 6.60087V19.1109L1.52376 42.6958C0.250178 44.9599 0.272803 47.6503 1.5841 49.8925C2.89528 52.1345 5.22881 53.4731 7.82619 53.4731H36.2174C38.8148 53.4731 41.1482 52.1345 42.4595 49.8925C43.7708 47.6503 43.7934 44.9599 42.5198 42.6958ZM16.7237 19.8879C16.8107 19.7334 16.8564 19.5589 16.8564 19.3815V6.77794H17.8895C18.4599 6.77794 18.9225 6.31532 18.9225 5.74486C18.9225 5.17439 18.4599 4.71178 17.8895 4.71178H15.8233C15.2536 4.71178 14.7902 4.24834 14.7902 3.6787C14.7902 3.10906 15.2536 2.64562 15.8233 2.64562H28.2203C28.7899 2.64562 29.2534 3.10906 29.2534 3.6787C29.2534 4.24834 28.7899 4.71178 28.2203 4.71178H26.1541C25.5837 4.71178 25.121 5.17439 25.121 5.74486C25.121 6.31532 25.5837 6.77794 26.1541 6.77794H27.1872V19.3815C27.1872 19.559 27.2329 19.7333 27.3198 19.8879L33.4089 30.7132C29.6904 30.4121 25.9847 31.1642 22.5801 32.9271C18.2033 35.192 13.331 35.5908 8.73675 34.0869L16.7237 19.8879ZM40.6759 48.8494C39.7394 50.4508 38.0726 51.4069 36.2174 51.4069H7.82619C5.97098 51.4069 4.3042 50.4508 3.36771 48.8494C2.43102 47.2478 2.4148 45.326 3.32463 43.7086L7.70573 35.92C9.83141 36.6623 12.0282 37.037 14.2593 37.037C14.5896 37.037 14.9207 37.0288 15.2524 37.0124C18.1352 36.8696 20.9201 36.1125 23.5299 34.762C27.0209 32.9545 30.8605 32.3305 34.6648 32.9457L40.719 43.7086C41.6288 45.326 41.6127 47.2478 40.6759 48.8494Z" fill="#475467"/>
<path d="M17.8894 24.5469C16.1805 24.5469 14.7902 25.9372 14.7902 27.6461C14.7902 29.355 16.1805 30.7453 17.8894 30.7453C19.5983 30.7453 20.9887 29.355 20.9887 27.6461C20.9887 25.9372 19.5983 24.5469 17.8894 24.5469ZM17.8894 28.6792C17.3198 28.6792 16.8563 28.2158 16.8563 27.6461C16.8563 27.0765 17.3198 26.613 17.8894 26.613C18.459 26.613 18.9225 27.0765 18.9225 27.6461C18.9225 28.2158 18.459 28.6792 17.8894 28.6792Z" fill="#475467"/>
<path d="M34.4187 45.2084H13.7571C13.1866 45.2084 12.724 45.6711 12.724 46.2415C12.724 46.812 13.1866 47.2746 13.7571 47.2746H34.4187C34.9892 47.2746 35.4518 46.812 35.4518 46.2415C35.4518 45.6711 34.9892 45.2084 34.4187 45.2084Z" fill="#475467"/>
</svg>
