<svg width="54" height="54" viewBox="0 0 54 54" fill="none" xmlns="http://www.w3.org/2000/svg">
<path d="M52.8596 20.1816C53.2379 19.6727 53.4453 19.0546 53.4453 18.3999C53.4453 16.7447 52.0987 15.3979 50.4434 15.3979C49.7887 15.3979 49.1706 15.6054 48.6617 15.9837C48.1528 15.6054 47.5347 15.3979 46.8801 15.3979C46.5235 15.3979 46.1784 15.4615 45.8553 15.5787C45.9724 15.2556 46.0359 14.9106 46.0359 14.554C46.0359 13.8994 45.8285 13.2813 45.4502 12.7723C45.8285 12.2635 46.0359 11.6453 46.0359 10.9906C46.0359 9.33543 44.6893 7.9887 43.0341 7.9887C42.3794 7.9887 41.7612 8.19615 41.2525 8.57436C40.7436 8.19615 40.1255 7.9887 39.4708 7.9887C39.1142 7.9887 38.7691 8.05224 38.4459 8.16949C38.563 7.84635 38.6267 7.5013 38.6267 7.14468C38.6267 6.48991 38.4192 5.87193 38.0409 5.36303C38.4192 4.85414 38.6267 4.23605 38.6267 3.58128C38.6268 1.92609 37.2801 0.579468 35.6248 0.579468C34.9702 0.579468 34.3521 0.78691 33.8432 1.16512C33.3344 0.78691 32.7163 0.579468 32.0615 0.579468C31.4069 0.579468 30.7888 0.78691 30.2799 1.16512C29.7711 0.78691 29.153 0.579468 28.4982 0.579468C27.8436 0.579468 27.2255 0.78691 26.7166 1.16512C26.2078 0.78691 25.5896 0.579468 24.9349 0.579468C24.2802 0.579468 23.6621 0.78691 23.1533 1.16512C22.6445 0.78691 22.0263 0.579468 21.3715 0.579468C20.7168 0.579468 20.0987 0.78691 19.5898 1.16512C19.081 0.78691 18.4629 0.579468 17.8082 0.579468C17.1535 0.579468 16.5354 0.78691 16.0265 1.16512C15.5177 0.78691 14.8996 0.579468 14.2449 0.579468C13.5903 0.579468 12.9721 0.78691 12.4632 1.16512C11.9544 0.78691 11.3363 0.579468 10.6816 0.579468C10.0269 0.579468 9.4088 0.78691 8.90001 1.16512C8.39111 0.78691 7.77302 0.579468 7.11835 0.579468C6.46369 0.579468 5.84539 0.78691 5.3367 1.16512C4.8278 0.78691 4.2096 0.579468 3.55494 0.579468C1.89973 0.579468 0.553108 1.92609 0.553108 3.58139C0.553108 4.23615 0.760551 4.85424 1.13887 5.36314C0.760551 5.87203 0.553108 6.49012 0.553108 7.14478C0.553108 7.79955 0.760551 8.41774 1.13887 8.92653C0.760551 9.43553 0.553108 10.0536 0.553108 10.7083C0.553108 11.363 0.760551 11.9811 1.13887 12.49C0.760551 12.9989 0.553108 13.617 0.553108 14.2718C0.553108 14.9265 0.760551 15.5446 1.13887 16.0535C0.760551 16.5624 0.553108 17.1805 0.553108 17.8353C0.553108 18.4899 0.760551 19.108 1.13887 19.6169C0.760551 20.1258 0.553108 20.7439 0.553108 21.3987C0.553108 22.0534 0.760551 22.6715 1.13887 23.1804C0.760551 23.6893 0.553108 24.3074 0.553108 24.9622C0.553108 25.6169 0.760551 26.235 1.13887 26.7439C0.760551 27.2528 0.553108 27.8709 0.553108 28.5256C0.553108 29.1803 0.760551 29.7984 1.13887 30.3073C0.760551 30.8162 0.553108 31.4343 0.553108 32.0891C0.553108 32.7438 0.760551 33.3619 1.13887 33.8708C0.760551 34.3797 0.553108 34.9978 0.553108 35.6526C0.553108 37.3078 1.89973 38.6545 3.55504 38.6545C4.2096 38.6545 4.8278 38.4471 5.3367 38.0687C5.84559 38.4471 6.46369 38.6545 7.11835 38.6545C7.47497 38.6545 7.81992 38.591 8.14317 38.4737C8.02602 38.7969 7.96248 39.1418 7.96248 39.4984C7.96248 40.1531 8.16993 40.7713 8.54824 41.2802C8.16993 41.789 7.96248 42.407 7.96248 43.0618C7.96248 44.717 9.30911 46.0637 10.9643 46.0637C11.6191 46.0637 12.2372 45.8563 12.746 45.4781C13.2549 45.8563 13.8731 46.0637 14.5276 46.0637C14.8844 46.0637 15.2293 46.0002 15.5524 45.8829C15.4353 46.2061 15.3718 46.5511 15.3718 46.9078C15.3718 47.5624 15.5792 48.1805 15.9575 48.6894C15.5792 49.1983 15.3718 49.8164 15.3718 50.4711C15.3718 52.1263 16.7184 53.4731 18.3737 53.4731C19.0285 53.4731 19.6466 53.2656 20.1553 52.8874C20.6642 53.2656 21.2823 53.4731 21.937 53.4731C22.5918 53.4731 23.2099 53.2656 23.7187 52.8874C24.2276 53.2656 24.8456 53.4731 25.5003 53.4731C26.1551 53.4731 26.7732 53.2656 27.282 52.8874C27.7909 53.2656 28.409 53.4731 29.0636 53.4731C29.7184 53.4731 30.3365 53.2656 30.8453 52.8874C31.3542 53.2656 31.9723 53.4731 32.6269 53.4731C33.2816 53.4731 33.8997 53.2656 34.4086 52.8874C34.9174 53.2656 35.5356 53.4731 36.1903 53.4731C36.8449 53.4731 37.463 53.2656 37.9719 52.8874C38.4807 53.2656 39.0988 53.4731 39.7535 53.4731C40.4081 53.4731 41.0263 53.2656 41.5351 52.8874C42.044 53.2656 42.6621 53.4731 43.3168 53.4731C43.9714 53.4731 44.5896 53.2656 45.0984 52.8874C45.6073 53.2656 46.2254 53.4731 46.8801 53.4731C47.5347 53.4731 48.1529 53.2656 48.6617 52.8874C49.1705 53.2656 49.7887 53.4731 50.4434 53.4731C52.0986 53.4731 53.4453 52.1265 53.4453 50.4711C53.4453 49.8164 53.2379 49.1983 52.8596 48.6894C53.2379 48.1805 53.4453 47.5624 53.4453 46.9078C53.4453 46.253 53.2379 45.6348 52.8596 45.126C53.2379 44.617 53.4453 43.9989 53.4453 43.3443C53.4453 42.6895 53.2379 42.0714 52.8596 41.5625C53.2379 41.0536 53.4453 40.4355 53.4453 39.7808C53.4453 39.1261 53.2379 38.508 52.8596 37.999C53.2379 37.4902 53.4453 36.872 53.4453 36.2173C53.4453 35.5626 53.2379 34.9445 52.8596 34.4356C53.2379 33.9267 53.4453 33.3086 53.4453 32.6539C53.4453 31.9991 53.2379 31.381 52.8596 30.8721C53.2379 30.3632 53.4453 29.7451 53.4453 29.0904C53.4453 28.4356 53.2379 27.8175 52.8596 27.3086C53.2379 26.7997 53.4453 26.1816 53.4453 25.527C53.4453 24.8722 53.2379 24.2541 52.8596 23.7452C53.2379 23.2363 53.4453 22.6182 53.4453 21.9635C53.4453 21.3087 53.2379 20.6905 52.8596 20.1816ZM5.95675 36.5204C5.81047 36.325 5.58061 36.21 5.33659 36.21C5.09258 36.21 4.86282 36.3249 4.71654 36.5203C4.43822 36.8919 4.01476 37.1049 3.55494 37.1049C2.7542 37.1049 2.10263 36.4533 2.10263 35.6526C2.10263 35.1926 2.31576 34.7692 2.68725 34.491C2.88261 34.3447 2.99759 34.1148 2.99759 33.8708C2.99759 33.6268 2.88261 33.397 2.68725 33.2507C2.31565 32.9725 2.10263 32.549 2.10263 32.0891C2.10263 31.6291 2.31576 31.2057 2.68725 30.9275C2.88261 30.7812 2.99759 30.5513 2.99759 30.3073C2.99759 30.0633 2.88261 29.8335 2.68725 29.6872C2.31565 29.409 2.10263 28.9855 2.10263 28.5256C2.10263 28.0656 2.31576 27.6423 2.68725 27.3641C2.88261 27.2178 2.99759 26.9879 2.99759 26.7439C2.99759 26.4999 2.88261 26.2701 2.68725 26.1238C2.31565 25.8456 2.10263 25.4221 2.10263 24.9622C2.10263 24.5023 2.31576 24.0788 2.68725 23.8006C2.88261 23.6543 2.99759 23.4244 2.99759 23.1804C2.99759 22.9364 2.88261 22.7066 2.68725 22.5603C2.31565 22.2821 2.10263 21.8586 2.10263 21.3987C2.10263 20.9388 2.31576 20.5153 2.68725 20.2371C2.88261 20.0908 2.99759 19.8609 2.99759 19.6169C2.99759 19.3729 2.88261 19.1431 2.68725 18.9968C2.31565 18.7186 2.10263 18.2952 2.10263 17.8353C2.10263 17.3754 2.31576 16.9519 2.68725 16.6737C2.88261 16.5274 2.99759 16.2975 2.99759 16.0535C2.99759 15.8095 2.88261 15.5797 2.68725 15.4334C2.31565 15.1552 2.10263 14.7317 2.10263 14.2718C2.10263 13.8119 2.31576 13.3884 2.68725 13.1102C2.88261 12.9639 2.99759 12.734 2.99759 12.49C2.99759 12.246 2.88261 12.0162 2.68725 11.8699C2.31565 11.5917 2.10263 11.1682 2.10263 10.7083C2.10263 10.2484 2.31576 9.825 2.68725 9.54669C2.88271 9.4003 2.99759 9.17055 2.99759 8.92653C2.99759 8.68242 2.88261 8.45266 2.68725 8.30638C2.31565 8.02817 2.10263 7.60471 2.10263 7.14478C2.10263 6.68486 2.31576 6.2615 2.68725 5.98329C2.88261 5.83701 2.99759 5.60715 2.99759 5.36314C2.99759 5.11912 2.88261 4.88926 2.68725 4.74298C2.31565 4.46477 2.10263 4.04131 2.10263 3.58139C2.10273 2.78065 2.7542 2.12909 3.55494 2.12909C4.01476 2.12909 4.43822 2.34221 4.71643 2.7136C4.86282 2.90896 5.09258 3.02394 5.33659 3.02394C5.58071 3.02394 5.81047 2.90896 5.95675 2.7136C6.23507 2.34221 6.65832 2.12909 7.11835 2.12909C7.57818 2.12909 8.00164 2.34221 8.27985 2.7136C8.42624 2.90896 8.65599 3.02394 8.90001 3.02394C9.14412 3.02394 9.37388 2.90896 9.52017 2.7136C9.79838 2.34221 10.2217 2.12909 10.6816 2.12909C11.1415 2.12909 11.5648 2.34221 11.8431 2.7136C11.9893 2.90896 12.2191 3.02394 12.4632 3.02394C12.7072 3.02394 12.9371 2.90896 13.0834 2.7136C13.3616 2.34221 13.785 2.12909 14.2449 2.12909C14.7048 2.12909 15.1282 2.34221 15.4064 2.7136C15.5527 2.90896 15.7825 3.02394 16.0265 3.02394C16.2705 3.02394 16.5004 2.90896 16.6467 2.7136C16.9249 2.34211 17.3483 2.12909 17.8082 2.12909C18.2681 2.12909 18.6915 2.34221 18.9697 2.7136C19.116 2.90896 19.3458 3.02394 19.5898 3.02394C19.8339 3.02394 20.0637 2.90896 20.21 2.7136C20.4882 2.34211 20.9116 2.12909 21.3715 2.12909C21.8314 2.12909 22.2548 2.34221 22.533 2.7136C22.6793 2.90896 22.9091 3.02394 23.1531 3.02394C23.3972 3.02394 23.627 2.90896 23.7733 2.7136C24.0515 2.34211 24.4749 2.12909 24.9348 2.12909C25.3947 2.12909 25.8181 2.34221 26.0963 2.7136C26.2426 2.90896 26.4724 3.02394 26.7165 3.02394C26.9605 3.02394 27.1903 2.90896 27.3366 2.7136C27.6149 2.34221 28.0383 2.12909 28.4982 2.12909C28.9581 2.12909 29.3815 2.34221 29.6597 2.7136C29.806 2.90896 30.0359 3.02394 30.2799 3.02394C30.5239 3.02394 30.7537 2.90896 30.9 2.7136C31.1782 2.34221 31.6016 2.12909 32.0615 2.12909C32.5215 2.12909 32.9448 2.34221 33.223 2.7136C33.3693 2.90896 33.5992 3.02394 33.8432 3.02394C34.0872 3.02394 34.3171 2.90896 34.4633 2.7136C34.7416 2.34211 35.1649 2.12909 35.6248 2.12909C36.4256 2.12909 37.0771 2.78065 37.0771 3.58139C37.0771 4.04131 36.864 4.46477 36.4925 4.74288C36.2971 4.88916 36.1821 5.11902 36.1821 5.36314C36.1821 5.60715 36.2971 5.83711 36.4925 5.9834C36.8641 6.2615 37.0771 6.68486 37.0771 7.14478C37.0771 7.50274 36.9467 7.83756 36.7143 8.10007C36.4554 8.02827 36.1852 7.98881 35.9076 7.98881C35.2529 7.98881 34.6347 8.19625 34.1259 8.57446C33.617 8.19625 32.999 7.98881 32.3443 7.98881C31.6896 7.98881 31.0715 8.19625 30.5626 8.57446C30.0538 8.19625 29.4357 7.98881 28.781 7.98881C28.1263 7.98881 27.5082 8.19625 26.9993 8.57446C26.4905 8.19625 25.8724 7.98881 25.2177 7.98881C24.563 7.98881 23.9449 8.19625 23.436 8.57446C22.9272 8.19625 22.3091 7.98881 21.6544 7.98881C20.9997 7.98881 20.3816 8.19625 19.8727 8.57446C19.3639 8.19625 18.7458 7.98881 18.091 7.98881C17.4364 7.98881 16.8183 8.19625 16.3094 8.57446C15.8006 8.19625 15.1825 7.98881 14.5277 7.98881C13.8732 7.98881 13.255 8.19625 12.7461 8.57446C12.2373 8.19625 11.6192 7.98881 10.9644 7.98881C9.30932 7.98881 7.96259 9.33543 7.96259 10.9907C7.96259 11.6455 8.17003 12.2636 8.54835 12.7724C8.17003 13.2813 7.96259 13.8995 7.96259 14.5541C7.96259 15.2089 8.17003 15.8271 8.54835 16.3359C8.17003 16.8447 7.96259 17.4629 7.96259 18.1176C7.96259 18.7723 8.17003 19.3905 8.54835 19.8994C8.17003 20.4082 7.96259 21.0264 7.96259 21.6811C7.96259 22.3359 8.17003 22.954 8.54835 23.4628C8.17003 23.9717 7.96259 24.5899 7.96259 25.2445C7.96259 25.8993 8.17003 26.5175 8.54835 27.0263C8.17003 27.5351 7.96259 28.1533 7.96259 28.808C7.96259 29.4628 8.17003 30.081 8.54835 30.5898C8.17003 31.0986 7.96259 31.7168 7.96259 32.3714C7.96259 33.0262 8.17003 33.6444 8.54835 34.1532C8.17003 34.6621 7.96259 35.2803 7.96259 35.9349C7.96259 36.2126 8.00205 36.483 8.07385 36.742C7.81124 36.9744 7.47642 37.105 7.11846 37.105C6.65832 37.105 6.23507 36.8919 5.95675 36.5204ZM13.366 43.9296C13.2196 43.7342 12.9899 43.6193 12.7459 43.6193C12.5017 43.6193 12.272 43.7342 12.1257 43.9296C11.8475 44.3011 11.4241 44.5141 10.9642 44.5141C10.1635 44.5141 9.51201 43.8625 9.51201 43.0618C9.51201 42.6019 9.72513 42.1785 10.0965 41.9004C10.292 41.7541 10.407 41.5243 10.407 41.2802C10.407 41.0362 10.292 40.8063 10.0966 40.66C9.72503 40.3818 9.51201 39.9583 9.51201 39.4984C9.51201 39.0384 9.72513 38.615 10.0965 38.3369C10.292 38.1906 10.407 37.9608 10.407 37.7167C10.407 37.4725 10.292 37.2427 10.0965 37.0964C9.72503 36.8183 9.51201 36.3949 9.51201 35.9349C9.51201 35.475 9.72513 35.0515 10.0966 34.7733C10.292 34.627 10.407 34.3972 10.407 34.1532C10.407 33.909 10.292 33.6792 10.0965 33.5329C9.72503 33.2548 9.51201 32.8314 9.51201 32.3714C9.51201 31.9115 9.72513 31.4881 10.0965 31.21C10.292 31.0637 10.407 30.8338 10.407 30.5898C10.407 30.3456 10.292 30.1158 10.0965 29.9695C9.72503 29.6914 9.51201 29.268 9.51201 28.808C9.51201 28.348 9.72513 27.9246 10.0965 27.6465C10.292 27.5002 10.407 27.2704 10.407 27.0263C10.407 26.7822 10.292 26.5523 10.0965 26.406C9.72503 26.1279 9.51201 25.7045 9.51201 25.2445C9.51201 24.7846 9.72513 24.3611 10.0966 24.0829C10.292 23.9366 10.407 23.7068 10.407 23.4628C10.407 23.2187 10.292 22.9888 10.0965 22.8425C9.72503 22.5644 9.51201 22.141 9.51201 21.6811C9.51201 21.2211 9.72513 20.7977 10.0965 20.5196C10.292 20.3733 10.407 20.1435 10.407 19.8994C10.407 19.6554 10.292 19.4255 10.0966 19.2792C9.72503 19.001 9.51201 18.5775 9.51201 18.1176C9.51201 17.6576 9.72513 17.2342 10.0965 16.9561C10.292 16.8098 10.407 16.58 10.407 16.3359C10.407 16.0918 10.292 15.8619 10.0965 15.7156C9.72503 15.4375 9.51201 15.0142 9.51201 14.5541C9.51201 14.0942 9.72513 13.6707 10.0966 13.3925C10.292 13.2462 10.407 13.0164 10.407 12.7724C10.407 12.5283 10.292 12.2984 10.0965 12.1521C9.72503 11.874 9.51201 11.4507 9.51201 10.9907C9.51201 10.19 10.1635 9.53842 10.9642 9.53842C11.4241 9.53842 11.8475 9.75155 12.1257 10.1229C12.272 10.3183 12.5017 10.4333 12.7459 10.4333C12.9899 10.4333 13.2197 10.3183 13.366 10.1229C13.6442 9.75145 14.0677 9.53842 14.5275 9.53842C14.9875 9.53842 15.4108 9.75155 15.689 10.1229C15.8353 10.3183 16.0652 10.4333 16.3092 10.4333C16.5532 10.4333 16.7831 10.3183 16.9293 10.1229C17.2075 9.75145 17.6309 9.53842 18.0908 9.53842C18.5508 9.53842 18.9741 9.75155 19.2523 10.1229C19.3986 10.3183 19.6285 10.4333 19.8725 10.4333C20.1165 10.4333 20.3464 10.3183 20.4926 10.1229C20.7709 9.75145 21.1942 9.53842 21.6541 9.53842C22.1141 9.53842 22.5374 9.75155 22.8156 10.1229C22.9619 10.3183 23.1918 10.4333 23.4358 10.4333C23.6798 10.4333 23.9097 10.3183 24.056 10.1229C24.3342 9.75145 24.7575 9.53842 25.2175 9.53842C25.6774 9.53842 26.1007 9.75155 26.379 10.1229C26.5252 10.3183 26.7551 10.4333 26.9991 10.4333C27.2431 10.4333 27.473 10.3183 27.6193 10.1229C27.8975 9.75145 28.3208 9.53842 28.7808 9.53842C29.2407 9.53842 29.6641 9.75155 29.9423 10.1229C30.0885 10.3183 30.3184 10.4333 30.5624 10.4333C30.8064 10.4333 31.0363 10.3183 31.1826 10.1229C31.4608 9.75145 31.8841 9.53842 32.3441 9.53842C32.8039 9.53842 33.2274 9.75155 33.5056 10.1229C33.652 10.3183 33.8817 10.4333 34.1257 10.4333C34.3699 10.4333 34.5996 10.3183 34.7459 10.1229C35.0241 9.75145 35.4475 9.53842 35.9074 9.53842C36.3672 9.53842 36.7907 9.75155 37.0689 10.1229C37.2153 10.3183 37.445 10.4333 37.689 10.4333C37.9332 10.4333 38.1629 10.3183 38.3092 10.1229C38.5874 9.75145 39.0108 9.53842 39.4707 9.53842C39.9305 9.53842 40.354 9.75155 40.6322 10.1229C40.7786 10.3183 41.0083 10.4333 41.2524 10.4333C41.4965 10.4333 41.7262 10.3183 41.8725 10.1229C42.1507 9.75145 42.5741 9.53842 43.034 9.53842C43.8348 9.53842 44.4862 10.19 44.4862 10.9907C44.4862 11.4507 44.2731 11.874 43.9016 12.1522C43.7062 12.2985 43.5913 12.5284 43.5913 12.7724C43.5913 13.0164 43.7061 13.2461 43.9016 13.3925C44.2732 13.6708 44.4862 14.0942 44.4862 14.5541C44.4862 14.912 44.3558 15.2468 44.1235 15.5093C43.8646 15.4375 43.5942 15.398 43.3167 15.398C42.662 15.398 42.0439 15.6055 41.535 15.9838C41.0262 15.6055 40.408 15.398 39.7534 15.398C39.0987 15.398 38.4806 15.6055 37.9718 15.9838C37.4629 15.6055 36.8448 15.398 36.1901 15.398C35.5355 15.398 34.9173 15.6055 34.4085 15.9838C33.8996 15.6055 33.2815 15.398 32.6268 15.398C31.9722 15.398 31.3541 15.6055 30.8452 15.9838C30.3363 15.6055 29.7182 15.398 29.0635 15.398C28.4089 15.398 27.7908 15.6055 27.2819 15.9838C26.773 15.6055 26.1549 15.398 25.5002 15.398C24.8455 15.398 24.2275 15.6055 23.7186 15.9838C23.2097 15.6055 22.5916 15.398 21.9369 15.398C21.2822 15.398 20.6641 15.6055 20.1552 15.9838C19.6463 15.6055 19.0283 15.398 18.3736 15.398C16.7184 15.398 15.3717 16.7447 15.3717 18.4C15.3717 19.0547 15.5791 19.6728 15.9574 20.1817C15.5791 20.6906 15.3717 21.3087 15.3717 21.9635C15.3717 22.6182 15.5791 23.2363 15.9574 23.7452C15.5791 24.2541 15.3717 24.8722 15.3717 25.527C15.3717 26.1816 15.5791 26.7997 15.9574 27.3086C15.5791 27.8175 15.3717 28.4356 15.3717 29.0904C15.3717 29.7451 15.5791 30.3632 15.9574 30.8721C15.5791 31.381 15.3717 31.9991 15.3717 32.6539C15.3717 33.3086 15.5791 33.9267 15.9574 34.4356C15.5791 34.9445 15.3717 35.5626 15.3717 36.2173C15.3717 36.872 15.5791 37.4902 15.9574 37.999C15.5791 38.508 15.3717 39.1261 15.3717 39.7808C15.3717 40.4355 15.5791 41.0536 15.9574 41.5625C15.5791 42.0714 15.3717 42.6895 15.3717 43.3443C15.3717 43.6219 15.4111 43.8922 15.4829 44.1512C15.2204 44.3836 14.8856 44.5142 14.5275 44.5142C14.0677 44.5141 13.6443 44.3011 13.366 43.9296ZM16.9213 50.4711C16.9213 50.0112 17.1344 49.5878 17.5059 49.3096C17.7013 49.1633 17.8162 48.9334 17.8162 48.6894C17.8162 48.4454 17.7013 48.2155 17.5059 48.0692C17.1343 47.791 16.9213 47.3677 16.9213 46.9078C16.9213 46.4478 17.1344 46.0244 17.5059 45.7462C17.7013 45.5999 17.8162 45.3701 17.8162 45.126C17.8162 44.882 17.7013 44.6522 17.5059 44.5058C17.1343 44.2275 16.9213 43.8042 16.9213 43.3443C16.9213 42.8843 17.1344 42.4609 17.5059 42.1827C17.7013 42.0364 17.8162 41.8065 17.8162 41.5625C17.8162 41.3185 17.7013 41.0886 17.5059 40.9423C17.1343 40.6641 16.9213 40.2407 16.9213 39.7808C16.9213 39.3208 17.1344 38.8975 17.5059 38.6192C17.7013 38.4728 17.8162 38.243 17.8162 37.999C17.8162 37.755 17.7013 37.5251 17.5059 37.3788C17.1343 37.1006 16.9213 36.6772 16.9213 36.2173C16.9213 35.7573 17.1344 35.334 17.5059 35.0558C17.7013 34.9095 17.8162 34.6796 17.8162 34.4356C17.8162 34.1916 17.7013 33.9617 17.5059 33.8154C17.1343 33.5372 16.9213 33.1138 16.9213 32.6539C16.9213 32.1939 17.1344 31.7705 17.5059 31.4923C17.7013 31.346 17.8162 31.1161 17.8162 30.8721C17.8162 30.6281 17.7013 30.3982 17.5059 30.252C17.1343 29.9737 16.9213 29.5503 16.9213 29.0904C16.9213 28.6304 17.1344 28.207 17.5059 27.9288C17.7013 27.7825 17.8162 27.5526 17.8162 27.3086C17.8162 27.0646 17.7013 26.8347 17.5059 26.6885C17.1343 26.4102 16.9213 25.9869 16.9213 25.527C16.9213 25.067 17.1344 24.6436 17.5059 24.3654C17.7013 24.2191 17.8162 23.9892 17.8162 23.7452C17.8162 23.5012 17.7013 23.2713 17.5059 23.1251C17.1343 22.8468 16.9213 22.4234 16.9213 21.9635C16.9213 21.5035 17.1344 21.0801 17.5059 20.8019C17.7013 20.6556 17.8162 20.4257 17.8162 20.1817C17.8162 19.9377 17.7013 19.7078 17.5059 19.5616C17.1343 19.2833 16.9213 18.8599 16.9213 18.4C16.9213 17.5992 17.5728 16.9477 18.3736 16.9477C18.7467 16.9477 19.0944 17.0899 19.3614 17.3413V51.53C19.0944 51.7813 18.7468 51.9235 18.3736 51.9235C17.5728 51.9235 16.9213 51.2719 16.9213 50.4711ZM24.4807 51.4999V43.039C24.4807 42.611 24.1339 42.2642 23.7058 42.2642C23.2778 42.2642 22.931 42.611 22.931 43.039V51.524C22.6632 51.779 22.313 51.9235 21.9369 51.9235C21.546 51.9235 21.1824 51.7683 20.9109 51.494V17.3772C21.1823 17.1028 21.5459 16.9477 21.9369 16.9477C22.313 16.9477 22.6633 17.0921 22.931 17.3473V39.3199C22.931 39.7479 23.2778 40.0947 23.7058 40.0947C24.1339 40.0947 24.4807 39.7479 24.4807 39.3199V17.3712C24.7514 17.1008 25.1123 16.9477 25.5002 16.9477C25.8794 16.9477 26.2322 17.0944 26.5009 17.3533V51.518C26.2323 51.7769 25.8794 51.9236 25.5002 51.9236C25.1123 51.9235 24.7514 51.7704 24.4807 51.4999ZM28.0505 51.506V17.365C28.3205 17.0985 28.6786 16.9476 29.0636 16.9476C29.4458 16.9476 29.8012 17.0964 30.0706 17.3592V51.5118C29.8012 51.7745 29.4458 51.9234 29.0636 51.9234C28.6786 51.9235 28.3205 51.7725 28.0505 51.506ZM35.1898 51.5181V26.8197C35.1898 26.3916 34.843 26.0448 34.415 26.0448C33.987 26.0448 33.6402 26.3916 33.6402 26.8197V51.5059C33.37 51.7725 33.0119 51.9235 32.6268 51.9235C32.2448 51.9235 31.8894 51.7747 31.6201 51.5121V17.359C31.8894 17.0963 32.2448 16.9476 32.6268 16.9476C33.0119 16.9476 33.37 17.0986 33.6402 17.3652V23.1006C33.6402 23.5286 33.987 23.8754 34.415 23.8754C34.843 23.8754 35.1898 23.5286 35.1898 23.1006V17.353C35.4584 17.0942 35.8112 16.9476 36.1903 16.9476C36.5783 16.9476 36.9391 17.1008 37.21 17.3713V51.4997C36.9392 51.7702 36.5783 51.9234 36.1903 51.9234C35.8112 51.9235 35.4584 51.7769 35.1898 51.5181ZM38.7596 51.5242V17.3469C39.0274 17.092 39.3775 16.9476 39.7535 16.9476C40.1446 16.9476 40.5082 17.1028 40.7797 17.3774V51.4937C40.5082 51.7682 40.1446 51.9235 39.7535 51.9235C39.3774 51.9235 39.0274 51.7791 38.7596 51.5242ZM45.899 51.5362V46.6548C45.899 46.2267 45.5522 45.8799 45.1241 45.8799C44.6961 45.8799 44.3493 46.2267 44.3493 46.6548V51.4877C44.0772 51.7661 43.7108 51.9235 43.3168 51.9235C42.9438 51.9235 42.5963 51.7813 42.3292 51.5302V17.341C42.5963 17.0897 42.9437 16.9477 43.3168 16.9477C43.7108 16.9477 44.0772 17.105 44.3493 17.3835V42.9357C44.3493 43.3637 44.6961 43.7105 45.1241 43.7105C45.5522 43.7105 45.899 43.3637 45.899 42.9357V17.335C46.1652 17.0875 46.5101 16.9477 46.8801 16.9477C47.2772 16.9477 47.6464 17.1071 47.9192 17.3896V51.4816C47.6464 51.764 47.2772 51.9235 46.8801 51.9235C46.5101 51.9235 46.1652 51.7836 45.899 51.5362ZM51.3111 20.8018C51.6827 21.08 51.8957 21.5034 51.8957 21.9634C51.8957 22.4233 51.6826 22.8467 51.3111 23.125C51.1157 23.2712 51.0007 23.5011 51.0007 23.7451C51.0007 23.9891 51.1157 24.219 51.3111 24.3653C51.6827 24.6435 51.8957 25.0669 51.8957 25.5269C51.8957 25.9868 51.6826 26.4101 51.3111 26.6883C51.1157 26.8346 51.0007 27.0645 51.0007 27.3085C51.0007 27.5525 51.1157 27.7824 51.3111 27.9287C51.6827 28.2069 51.8957 28.6303 51.8957 29.0903C51.8957 29.5502 51.6826 29.9736 51.3111 30.2518C51.1157 30.3981 51.0007 30.628 51.0007 30.872C51.0007 31.116 51.1157 31.3459 51.3111 31.4922C51.6827 31.7704 51.8957 32.1938 51.8957 32.6538C51.8957 33.1137 51.6826 33.5371 51.3111 33.8153C51.1157 33.9616 51.0007 34.1915 51.0007 34.4355C51.0007 34.6795 51.1157 34.9094 51.3111 35.0557C51.6827 35.3339 51.8957 35.7572 51.8957 36.2172C51.8957 36.6771 51.6826 37.1005 51.3111 37.3787C51.1157 37.525 51.0007 37.7549 51.0007 37.9989C51.0007 38.2429 51.1156 38.4727 51.3111 38.6191C51.6827 38.8974 51.8957 39.3207 51.8957 39.7807C51.8957 40.2406 51.6826 40.664 51.3111 40.9422C51.1157 41.0885 51.0007 41.3184 51.0007 41.5624C51.0007 41.8064 51.1157 42.0363 51.3111 42.1826C51.6827 42.4608 51.8957 42.8842 51.8957 43.3442C51.8957 43.8041 51.6826 44.2274 51.3111 44.5057C51.1156 44.6521 51.0007 44.8819 51.0007 45.1259C51.0007 45.37 51.1157 45.5998 51.3111 45.7461C51.6827 46.0243 51.8957 46.4477 51.8957 46.9076C51.8957 47.3676 51.6826 47.7909 51.3111 48.0691C51.1157 48.2154 51.0007 48.4453 51.0007 48.6893C51.0007 48.9333 51.1157 49.1632 51.3111 49.3095C51.6827 49.5877 51.8957 50.0111 51.8957 50.4711C51.8957 51.2718 51.2441 51.9234 50.4434 51.9234C50.0763 51.9234 49.734 51.7857 49.4687 51.5422V17.3288C49.734 17.0852 50.0763 16.9476 50.4434 16.9476C51.2441 16.9476 51.8957 17.5991 51.8957 18.3999C51.8957 18.8598 51.6826 19.2832 51.3111 19.5615C51.1157 19.7077 51.0007 19.9376 51.0007 20.1816C51.0007 20.4256 51.1157 20.6555 51.3111 20.8018Z" fill="#475467"/>
<path d="M41.5657 13.5446C41.9936 13.5446 42.3405 13.1977 42.3405 12.7698C42.3405 12.3419 41.9936 11.995 41.5657 11.995C41.1378 11.995 40.7909 12.3419 40.7909 12.7698C40.7909 13.1977 41.1378 13.5446 41.5657 13.5446Z" fill="#475467"/>
<path d="M37.4333 13.5446C37.8613 13.5446 38.2082 13.1977 38.2082 12.7698C38.2082 12.3419 37.8613 11.995 37.4333 11.995C37.0054 11.995 36.6585 12.3419 36.6585 12.7698C36.6585 13.1977 37.0054 13.5446 37.4333 13.5446Z" fill="#475467"/>
<path d="M33.301 13.5446C33.7289 13.5446 34.0758 13.1977 34.0758 12.7698C34.0758 12.3419 33.7289 11.995 33.301 11.995C32.8731 11.995 32.5262 12.3419 32.5262 12.7698C32.5262 13.1977 32.8731 13.5446 33.301 13.5446Z" fill="#475467"/>
<path d="M29.1687 13.5446C29.5966 13.5446 29.9435 13.1977 29.9435 12.7698C29.9435 12.3419 29.5966 11.995 29.1687 11.995C28.7408 11.995 28.3939 12.3419 28.3939 12.7698C28.3939 13.1977 28.7408 13.5446 29.1687 13.5446Z" fill="#475467"/>
<path d="M25.0364 13.5446C25.4643 13.5446 25.8112 13.1977 25.8112 12.7698C25.8112 12.3419 25.4643 11.995 25.0364 11.995C24.6084 11.995 24.2615 12.3419 24.2615 12.7698C24.2615 13.1977 24.6084 13.5446 25.0364 13.5446Z" fill="#475467"/>
<path d="M20.904 13.5446C21.3319 13.5446 21.6788 13.1977 21.6788 12.7698C21.6788 12.3419 21.3319 11.995 20.904 11.995C20.4761 11.995 20.1292 12.3419 20.1292 12.7698C20.1292 13.1977 20.4761 13.5446 20.904 13.5446Z" fill="#475467"/>
<path d="M16.7717 13.5446C17.1996 13.5446 17.5465 13.1977 17.5465 12.7698C17.5465 12.3419 17.1996 11.995 16.7717 11.995C16.3438 11.995 15.9969 12.3419 15.9969 12.7698C15.9969 13.1977 16.3438 13.5446 16.7717 13.5446Z" fill="#475467"/>
<path d="M12.6393 13.5446C13.0673 13.5446 13.4142 13.1977 13.4142 12.7698C13.4142 12.3419 13.0673 11.995 12.6393 11.995C12.2114 11.995 11.8645 12.3419 11.8645 12.7698C11.8645 13.1977 12.2114 13.5446 12.6393 13.5446Z" fill="#475467"/>
<path d="M12.6393 17.4703C13.0673 17.4703 13.4142 17.1234 13.4142 16.6955C13.4142 16.2676 13.0673 15.9207 12.6393 15.9207C12.2114 15.9207 11.8645 16.2676 11.8645 16.6955C11.8645 17.1234 12.2114 17.4703 12.6393 17.4703Z" fill="#475467"/>
<path d="M12.6393 21.396C13.0673 21.396 13.4142 21.0491 13.4142 20.6212C13.4142 20.1933 13.0673 19.8464 12.6393 19.8464C12.2114 19.8464 11.8645 20.1933 11.8645 20.6212C11.8645 21.0491 12.2114 21.396 12.6393 21.396Z" fill="#475467"/>
<path d="M12.6393 25.3217C13.0673 25.3217 13.4142 24.9748 13.4142 24.5469C13.4142 24.119 13.0673 23.7721 12.6393 23.7721C12.2114 23.7721 11.8645 24.119 11.8645 24.5469C11.8645 24.9748 12.2114 25.3217 12.6393 25.3217Z" fill="#475467"/>
<path d="M12.6393 29.2474C13.0673 29.2474 13.4142 28.9005 13.4142 28.4726C13.4142 28.0447 13.0673 27.6978 12.6393 27.6978C12.2114 27.6978 11.8645 28.0447 11.8645 28.4726C11.8645 28.9005 12.2114 29.2474 12.6393 29.2474Z" fill="#475467"/>
<path d="M12.6393 33.1731C13.0673 33.1731 13.4142 32.8262 13.4142 32.3983C13.4142 31.9704 13.0673 31.6235 12.6393 31.6235C12.2114 31.6235 11.8645 31.9704 11.8645 32.3983C11.8645 32.8262 12.2114 33.1731 12.6393 33.1731Z" fill="#475467"/>
<path d="M12.6393 37.0988C13.0673 37.0988 13.4142 36.7519 13.4142 36.324C13.4142 35.8961 13.0673 35.5492 12.6393 35.5492C12.2114 35.5492 11.8645 35.8961 11.8645 36.324C11.8645 36.7519 12.2114 37.0988 12.6393 37.0988Z" fill="#475467"/>
<path d="M12.6393 41.0245C13.0673 41.0245 13.4142 40.6776 13.4142 40.2497C13.4142 39.8218 13.0673 39.4749 12.6393 39.4749C12.2114 39.4749 11.8645 39.8218 11.8645 40.2497C11.8645 40.6776 12.2114 41.0245 12.6393 41.0245Z" fill="#475467"/>
</svg>
