<svg width="67" height="67" viewBox="0 0 67 67" fill="none" xmlns="http://www.w3.org/2000/svg">
<path d="M34.0246 16.6018C36.3017 16.5738 38.5196 15.8729 40.3993 14.5872C42.279 13.3015 43.7366 11.4886 44.5887 9.37643C45.4407 7.26427 45.6492 4.94726 45.1878 2.7169C44.7264 0.486548 43.6158 -1.55752 41.9958 -3.15814C40.3757 -4.75876 38.3185 -5.84443 36.083 -6.27855C33.8475 -6.71268 31.5336 -6.47587 29.4323 -5.59793C27.3311 -4.71998 25.5364 -3.24011 24.274 -1.3445C23.0116 0.551103 22.3379 2.77777 22.3378 5.05536C22.3377 6.5837 22.6409 8.09685 23.23 9.50708C23.819 10.9173 24.6821 12.1965 25.7692 13.2706C26.8563 14.3447 28.1459 15.1922 29.563 15.764C30.9801 16.3359 32.4966 16.6206 34.0246 16.6018ZM48.8906 35.5647C47.7095 44.5354 40.5518 48.5234 33.9358 48.5234C27.3198 48.5234 20.2508 44.5354 18.9809 35.5647C18.9209 35.1442 18.6963 34.7648 18.3565 34.51C18.0168 34.2551 17.5897 34.1457 17.1693 34.2058C16.7489 34.2658 16.3695 34.4905 16.1147 34.8303C15.8599 35.1701 15.7505 35.5972 15.8106 36.0177C17.3558 46.8003 26.0499 51.6943 33.9358 51.6943C41.8217 51.6943 50.6135 46.8003 52.061 36.0177C52.0907 35.8095 52.0792 35.5975 52.027 35.3937C51.9748 35.19 51.883 34.9985 51.7568 34.8303C51.6306 34.662 51.4726 34.5203 51.2916 34.4131C51.1107 34.306 50.9104 34.2355 50.7023 34.2058C50.4941 34.176 50.2821 34.1876 50.0784 34.2398C49.8747 34.292 49.6833 34.3838 49.515 34.51C49.3468 34.6362 49.2051 34.7943 49.0979 34.9752C48.9908 35.1562 48.9204 35.3565 48.8906 35.5647ZM70.7279 35.8312C70.767 36.2013 70.6681 36.5728 70.4501 36.8744C70.2321 37.176 69.9104 37.3865 69.5468 37.4654L62.4423 39.1885C61.6951 39.3813 61.0068 39.7553 60.4384 40.2773C59.8699 40.7994 59.4388 41.4535 59.1832 42.1817C58.8191 43.2653 58.3662 44.2601 58.0021 45.166C57.651 45.8778 57.4841 46.6662 57.5167 47.4592C57.5493 48.2521 57.7803 49.0242 58.1886 49.7047L61.9894 55.922C62.1562 56.201 62.2114 56.5327 62.1439 56.8506C62.0763 57.1686 61.8911 57.4492 61.6253 57.6362L58.0731 61.189C57.8757 61.4439 57.5888 61.6142 57.2705 61.6653C56.9522 61.7164 56.6264 61.6446 56.3592 61.4644L50.1428 57.7517C49.4955 57.3114 48.7417 57.0535 47.9604 57.0051C47.1791 56.9566 46.3992 57.1194 45.7025 57.4764C44.7073 57.9734 43.6774 58.3979 42.621 58.7465C41.8843 58.9706 41.2235 59.3934 40.7112 59.9684C40.199 60.5434 39.855 61.2485 39.717 62.0061L37.9409 69.1117C37.8644 69.441 37.6807 69.7357 37.4188 69.9495C37.1568 70.1632 36.8314 70.284 36.4934 70.293H31.4847C31.1433 70.297 30.8112 70.181 30.5466 69.965C30.2821 69.7491 30.1017 69.4471 30.0372 69.1117L28.2611 62.2282C28.1208 61.4367 27.7684 60.698 27.2413 60.0911C26.7142 59.4842 26.0324 59.0317 25.2684 58.782C24.2046 58.4017 23.1638 57.9598 22.1513 57.4586C21.4721 57.1006 20.7074 56.937 19.9413 56.9855C19.1751 57.0341 18.4372 57.2931 17.8087 57.7339L11.4591 61.4466C11.1918 61.6268 10.866 61.6987 10.5477 61.6475C10.2295 61.5964 9.94255 61.4261 9.74516 61.1712L6.11301 57.6185C5.88982 57.3974 5.75014 57.1057 5.71776 56.7931C5.68538 56.4806 5.76229 56.1665 5.9354 55.9043L9.74516 49.6869C10.1073 48.9902 10.3109 48.2221 10.3416 47.4375C10.3723 46.6529 10.2293 45.8712 9.92277 45.1483C9.43032 44.1844 9.00597 43.1872 8.65285 42.164C8.39721 41.4357 7.96612 40.7816 7.39768 40.2596C6.82924 39.7375 6.14096 39.3636 5.39369 39.1708L-1.71075 37.4477C-2.07439 37.3687 -2.39608 37.1583 -2.61406 36.8566C-2.83205 36.555 -2.93098 36.1835 -2.89187 35.8134C-2.92182 35.4134 -3.10183 35.0395 -3.39581 34.7667C-3.68978 34.4939 -4.076 34.3423 -4.47704 34.3423C-4.87808 34.3423 -5.2643 34.4939 -5.55828 34.7667C-5.85226 35.0395 -6.03227 35.4134 -6.06222 35.8134C-6.10758 36.9111 -5.76613 37.99 -5.09745 38.8617C-4.42878 39.7333 -3.47532 40.3425 -2.40344 40.583L4.57668 42.3061C4.81956 42.3453 5.04774 42.4482 5.23802 42.6042C5.42831 42.7602 5.57393 42.9638 5.6601 43.1943C6.02051 44.3458 6.47495 45.4657 7.01883 46.5427C7.21126 47.0399 7.21126 47.591 7.01883 48.0882L3.21795 54.3055C2.66408 55.1797 2.43285 56.2198 2.56418 57.2464C2.69552 58.2729 3.18118 59.2213 3.93728 59.9278L7.4895 63.4805C8.22435 64.2209 9.1858 64.6939 10.2207 64.8243C11.2555 64.9547 12.3042 64.7349 13.1997 64.2L19.4161 60.4874C19.6108 60.3492 19.836 60.26 20.0726 60.2276C20.3091 60.1951 20.55 60.2202 20.7748 60.3008C21.8642 60.9159 23.0202 61.4046 24.2205 61.7575C24.4556 61.8359 24.6637 61.9793 24.8209 62.1711C24.978 62.3628 25.0777 62.5951 25.1085 62.841L26.8846 69.9466C27.1169 70.9688 27.6939 71.88 28.5187 72.5269C29.3434 73.1739 30.3657 73.5173 31.4137 73.4993H36.4046C37.4711 73.5112 38.5102 73.1611 39.3522 72.5061C40.1941 71.8512 40.7892 70.9301 41.0402 69.8933L42.8163 62.7878C42.8163 62.4236 42.9939 62.0594 43.6333 61.793C44.8626 61.4259 46.0525 60.938 47.1856 60.3363C47.411 60.2601 47.6511 60.2372 47.8869 60.2696C48.1227 60.3019 48.3477 60.3886 48.5443 60.5229L54.7074 64.2355C55.6024 64.772 56.6515 64.9926 57.6867 64.8622C58.722 64.7318 59.6835 64.2578 60.4176 63.5161L63.8544 60.0699C64.6356 59.3647 65.1503 58.412 65.312 57.372C65.4737 56.332 65.2726 55.268 64.7424 54.3588L60.9415 48.1415C60.8023 47.9078 60.7289 47.6408 60.7289 47.3688C60.7289 47.0967 60.8023 46.8297 60.9415 46.596C61.3944 45.5124 61.8296 44.42 62.2114 43.3364C62.29 43.0907 62.4312 42.8697 62.6212 42.6952C62.8112 42.5208 63.0434 42.3989 63.2949 42.3416L70.346 40.583C71.3955 40.3353 72.3253 39.7282 72.9741 38.8667C73.6229 38.0053 73.9499 36.9439 73.8983 35.8667C73.8683 35.4667 73.6883 35.0928 73.3943 34.82C73.1003 34.5472 72.7141 34.3956 72.3131 34.3956C71.912 34.3956 71.5258 34.5472 71.2318 34.82C70.9379 35.0928 70.7579 35.4667 70.7279 35.8667V35.8312ZM61.3944 12.7382C58.677 14.6478 57.4959 14.9143 54.6896 12.9247C53.2332 11.8323 51.244 10.3845 48.0736 11.7434C46.1732 12.5606 47.3454 15.4561 49.2458 14.6478C50.7911 14.0083 51.4216 14.3725 52.7981 15.4561C53.8712 16.2481 55.0729 16.849 56.3503 17.2325V23.0412C56.3503 23.4629 56.5178 23.8673 56.8159 24.1654C57.114 24.4636 57.5183 24.6311 57.9399 24.6311C58.3615 24.6311 58.7658 24.4636 59.0639 24.1654C59.362 23.8673 59.5295 23.4629 59.5295 23.0412V17.2502C60.8503 16.8607 62.0815 16.2148 63.1528 15.3495C67.229 12.5428 70.7634 17.2502 70.7634 20.7852V28.4947C70.7934 28.8947 70.9734 29.2686 71.2674 29.5414C71.5613 29.8142 71.9476 29.9658 72.3486 29.9658C72.7496 29.9658 73.1359 29.8142 73.4298 29.5414C73.7238 29.2686 73.9038 28.8947 73.9338 28.4947V20.7852C73.9338 14.7189 67.7174 8.35055 61.43 12.7204L61.3944 12.7382ZM66.6517 28.5125V23.059C66.6218 22.659 66.4418 22.2851 66.1478 22.0123C65.8538 21.7395 65.4676 21.5879 65.0666 21.5879C64.6655 21.5879 64.2793 21.7395 63.9853 22.0123C63.6913 22.2851 63.5113 22.659 63.4814 23.059V28.4947C63.5113 28.8947 63.6913 29.2686 63.9853 29.5414C64.2793 29.8142 64.6655 29.9658 65.0666 29.9658C65.4676 29.9658 65.8538 29.8142 66.1478 29.5414C66.4418 29.2686 66.6218 28.8947 66.6517 28.4947V28.5125ZM57.9488 11.6369C59.7425 11.6386 61.4963 11.1083 62.9886 10.1129C64.4808 9.11749 65.6443 7.70181 66.332 6.04492C67.0196 4.38804 67.2004 2.5644 66.8516 0.804715C66.5027 -0.954972 65.6399 -2.57164 64.3722 -3.84077C63.1045 -5.1099 61.4889 -5.97447 59.7298 -6.3251C57.9708 -6.67573 56.1472 -6.49666 54.4899 -5.81055C52.8326 -5.12445 51.416 -3.96213 50.4193 -2.47064C49.4226 -0.979156 48.8906 0.774483 48.8906 2.56843C48.8953 4.96442 49.8459 7.26161 51.5357 8.95999C53.2255 10.6584 55.5177 11.6205 57.9133 11.6369H57.9488ZM57.9133 -3.32028C59.0212 -3.33807 60.1116 -3.0433 61.0597 -2.46975C62.0078 -1.8962 62.7752 -1.06709 63.2738 -0.0774345C63.7724 0.912219 63.9822 2.02236 63.879 3.12575C63.7758 4.22914 63.3639 5.28113 62.6904 6.16114C62.0169 7.04115 61.1092 7.71357 60.0712 8.10133C59.0332 8.48909 57.907 8.5765 56.8216 8.35354C55.7362 8.13058 54.7356 7.60627 53.9344 6.84071C53.1333 6.07515 52.564 5.09932 52.2919 4.02506C53.7806 4.24662 55.3011 4.08842 56.7124 3.56515C58.1236 3.04187 59.3798 2.17048 60.3643 1.03186C61.723 -0.513595 59.3608 -2.59196 57.9133 -1.05539C57.2289 -0.272694 56.3426 0.30692 55.3513 0.620183C54.36 0.933445 53.3017 0.968317 52.2919 0.72099C52.6925 -0.453509 53.4493 -1.4739 54.4568 -2.19821C55.4643 -2.92252 56.6725 -3.31474 57.9133 -3.32028ZM-2.85634 28.4947V20.7852C-2.85634 17.2325 0.695875 12.5428 4.75429 15.3495C5.82557 16.2148 7.05675 16.8607 8.37755 17.2502V23.059C8.37755 23.4806 8.54503 23.885 8.84314 24.1832C9.14125 24.4813 9.54558 24.6488 9.96717 24.6488C10.3888 24.6488 10.7931 24.4813 11.0912 24.1832C11.3893 23.885 11.5568 23.4806 11.5568 23.059V17.2502C12.85 16.9076 14.059 16.303 15.109 15.4738C16.4677 14.3902 17.0983 14.0261 18.6612 14.6656C19.0463 14.8211 19.4774 14.8172 19.8596 14.6548C20.2418 14.4924 20.5439 14.1847 20.6993 13.7996C20.8548 13.4145 20.8509 12.9833 20.6885 12.601C20.5261 12.2188 20.2185 11.9167 19.8335 11.7612C16.6631 10.4023 14.6739 11.85 13.2175 12.9425C10.5 14.932 9.31889 14.6656 6.60144 12.756C0.314012 8.36831 -6.0267 14.7189 -6.0267 20.7852V28.4947C-5.99675 28.8947 -5.81674 29.2686 -5.52276 29.5414C-5.22878 29.8142 -4.84256 29.9658 -4.44152 29.9658C-4.04048 29.9658 -3.65426 29.8142 -3.36028 29.5414C-3.06631 29.2686 -2.8863 28.8947 -2.85634 28.4947ZM1.21983 23.059V28.4947C1.24978 28.8947 1.42979 29.2686 1.72377 29.5414C2.01775 29.8142 2.40397 29.9658 2.80501 29.9658C3.20605 29.9658 3.59227 29.8142 3.88624 29.5414C4.18022 29.2686 4.36023 28.8947 4.39018 28.4947V23.059C4.36023 22.659 4.18022 22.2851 3.88624 22.0123C3.59227 21.7395 3.20605 21.5879 2.80501 21.5879C2.40397 21.5879 2.01775 21.7395 1.72377 22.0123C1.42979 22.2851 1.24978 22.659 1.21983 23.059ZM10.0116 11.6369C11.1984 11.6393 12.3738 11.4057 13.4695 10.9496C14.5653 10.4935 15.5594 9.8241 16.394 8.98023C17.2286 8.13637 17.8872 7.13493 18.3313 6.03417C18.7754 4.93342 18.9962 3.75532 18.9809 2.56843C18.9879 1.38421 18.7614 0.210246 18.3142 -0.886284C17.867 -1.98281 17.208 -2.98038 16.3749 -3.82187C15.5418 -4.66336 14.5509 -5.33226 13.459 -5.79029C12.3671 -6.24831 11.1956 -6.48647 10.0116 -6.49112C8.79759 -6.52913 7.58834 -6.32281 6.45561 -5.88441C5.32288 -5.44601 4.28976 -4.78446 3.41759 -3.93903C2.54542 -3.09361 1.85196 -2.08154 1.3784 -0.962915C0.904831 0.155713 0.660805 1.3581 0.660805 2.57287C0.660805 3.78764 0.904831 4.99002 1.3784 6.10865C1.85196 7.22728 2.54542 8.23934 3.41759 9.08477C4.28976 9.93019 5.32288 10.5917 6.45561 11.0301C7.58834 11.4685 8.79759 11.6749 10.0116 11.6369ZM10.0116 -3.32028C11.5347 -3.26113 12.9758 -2.61436 14.0325 -1.51565C15.0892 -0.416941 15.6795 1.04835 15.6795 2.57287C15.6795 4.09739 15.0892 5.56268 14.0325 6.66139C12.9758 7.7601 11.5347 8.40686 10.0116 8.46601C8.69309 8.45922 7.41294 8.02165 6.36608 7.21995C5.31922 6.41825 4.563 5.29634 4.21257 4.02506C5.72824 4.25453 7.27722 4.10084 8.71827 3.57802C10.1593 3.05519 11.4466 2.17986 12.4626 1.03186C12.7271 0.715518 12.856 0.307446 12.821 -0.103467C12.7861 -0.514381 12.5903 -0.894843 12.2761 -1.16197C12.1306 -1.30513 11.9573 -1.41691 11.7668 -1.49039C11.5764 -1.56387 11.3729 -1.59748 11.169 -1.58916C10.9651 -1.58083 10.765 -1.53074 10.5812 -1.44199C10.3974 -1.35323 10.2337 -1.2277 10.1004 -1.07315C9.39394 -0.29401 8.49174 0.281676 7.48756 0.594067C6.48337 0.906458 5.41386 0.94415 4.39018 0.703226C4.75805 -0.4943 5.5054 -1.53966 6.51945 -2.27507C7.53349 -3.01049 8.7592 -3.39605 10.0116 -3.37357V-3.32028ZM54.6896 28.3082C54.1479 21.0428 46.4396 13.8129 38.9178 18.9733C34.7528 21.8777 33.2076 21.8777 29.0426 18.9733C21.432 13.8129 13.7236 20.9717 13.1819 28.3082C13.1454 28.7287 13.2774 29.1464 13.5489 29.4696C13.8204 29.7927 14.209 29.9948 14.6295 30.0313C15.0499 30.0678 15.4676 29.9358 15.7907 29.6643C16.1138 29.3928 16.3158 29.004 16.3523 28.5835C16.7164 23.6896 21.7961 17.9252 27.231 21.6024C32.4883 25.2262 35.4721 25.2262 40.7294 21.6024C45.9867 17.9785 51.1552 23.7784 51.5193 28.5835C51.5558 29.004 51.7578 29.3928 52.0809 29.6643C52.404 29.9358 52.8217 30.0678 53.2421 30.0313C53.6625 29.9948 54.0512 29.7927 54.3227 29.4696C54.5941 29.1464 54.7261 28.7287 54.6896 28.3082ZM34.0246 -3.32028C35.6239 -3.30896 37.1866 -2.84032 38.5283 -1.96965C39.87 -1.09899 40.9346 0.137364 41.5967 1.5935C42.2587 3.04964 42.4904 4.66479 42.2645 6.24836C42.0386 7.83192 41.3644 9.31781 40.3217 10.5307C39.2789 11.7435 37.911 12.6327 36.3794 13.0934C34.8478 13.554 33.2164 13.5669 31.6777 13.1304C30.1391 12.6939 28.7574 11.8263 27.6956 10.63C26.6339 9.43368 25.9365 7.95858 25.6857 6.37876C27.7067 6.83237 29.8131 6.72639 31.7784 6.07224C33.7437 5.41809 35.4935 4.24051 36.8397 2.66613C37.045 2.34644 37.1283 1.96352 37.0743 1.58744C37.0204 1.21136 36.8329 0.867283 36.5461 0.618172C36.2593 0.369061 35.8924 0.231579 35.5125 0.230887C35.1326 0.230196 34.7652 0.366341 34.4775 0.614407C33.4361 1.84258 32.0572 2.73798 30.5117 3.18955C28.9661 3.64111 27.3221 3.62897 25.7834 3.15463C26.2416 1.31249 27.3007 -0.324333 28.7933 -1.49699C30.2858 -2.66965 32.1266 -3.31123 34.0246 -3.32028Z" fill="#475467"/>
</svg>
