<svg width="55" height="54" viewBox="0 0 55 54" fill="none" xmlns="http://www.w3.org/2000/svg">
<path d="M54.0902 27.4521C53.8735 26.645 53.3549 25.9703 52.63 25.5525C51.8961 25.1294 51.0601 25.0383 50.2967 25.2311L44.991 22.1726V21.5965C44.991 20.3012 43.9365 19.2473 42.6402 19.2473C42.0169 19.2473 41.4499 19.4915 41.0287 19.8886L34.8221 16.3108V15.7623C34.8221 14.4668 33.7676 13.4129 32.4714 13.4129C31.8569 13.4129 31.297 13.6501 30.8779 14.0372L29.0843 13.0034L34.6918 9.77175C35.0661 9.55601 35.1946 9.0779 34.9787 8.7038C34.7628 8.32969 34.2842 8.20127 33.91 8.41712L27.5182 12.1007L26.1595 11.3175L41.0662 2.72682C41.4081 2.52975 41.7966 2.40749 42.1897 2.37327L43.1901 2.28616L42.6155 3.10572C42.3889 3.42902 42.0883 3.70412 41.7463 3.90118L37.0692 6.59658C36.6948 6.81232 36.5664 7.29043 36.7823 7.66453C36.9981 8.03863 37.4765 8.16685 37.8509 7.95121L42.528 5.25582C43.0667 4.94525 43.5401 4.5121 43.897 4.003L45.4343 1.81003C45.6089 1.56111 45.6232 1.23375 45.4713 0.970542C45.3193 0.70723 45.0292 0.556379 44.7257 0.582356L42.0538 0.815205C41.4348 0.86914 40.8229 1.06172 40.2845 1.37198L24.5934 10.4149L19.3247 7.37785C18.9502 7.16211 18.4718 7.29053 18.256 7.66453C18.0401 8.03853 18.1685 8.51675 18.5429 8.73249L30.1457 15.4207C30.1294 15.5324 30.1206 15.6463 30.1206 15.7624V16.9726L11.0978 6.00746C10.7557 5.81019 10.4551 5.53509 10.2285 5.21179L9.65396 4.39234L10.6543 4.47945C11.0474 4.51366 11.4359 4.63593 11.7778 4.833L15.3684 6.90276C15.7427 7.1183 16.2211 6.98998 16.4371 6.61608C16.6529 6.24198 16.5245 5.76387 16.1502 5.54813L12.5596 3.47836C12.0212 3.168 11.4093 2.97553 10.7903 2.92159L8.11853 2.68874C7.81558 2.66287 7.52483 2.81362 7.37293 3.07693C7.22093 3.34013 7.23533 3.66739 7.40986 3.91641L8.94707 6.10928C9.30396 6.61828 9.77728 7.05142 10.3161 7.3622L20.1038 13.0016L13.6133 16.7429C13.209 16.415 12.6945 16.2181 12.1345 16.2181C10.8382 16.2181 9.78374 17.2719 9.78374 18.5674V18.9498L4.68681 21.8872C3.92347 21.6944 3.08732 21.7855 2.3532 22.2087C0.951401 22.9887 0.315654 24.9617 1.20595 26.4827C2.06193 27.9423 3.94914 28.4875 5.48509 27.6274C6.19741 27.2167 6.70975 26.5578 6.9329 25.7693L9.78364 24.1264V31.2087L6.4962 34.4938C5.52088 35.4687 5.52088 37.0549 6.4963 38.0299C6.73072 38.2641 7.00081 38.4405 7.28885 38.5622L6.4962 39.3544C5.52088 40.3293 5.52088 41.9154 6.4963 42.8905C6.98412 43.3779 7.62466 43.6215 8.26531 43.6215C8.40855 43.6215 8.55168 43.6075 8.69325 43.583C8.29192 45.3809 8.569 47.596 9.4569 49.134C10.5092 51.0167 12.3921 52.3628 14.7588 52.9241C15.5334 53.1078 16.3219 53.1984 17.0985 53.1983C18.5071 53.1983 19.876 52.9002 21.0473 52.3194C22.7509 51.5239 23.7638 50.1447 25.0703 49.2761C25.2513 49.2074 26.0839 48.9917 26.6658 49.4482C27.1621 49.8376 27.2287 50.6866 27.2127 50.9818C27.1354 52.2748 28.1251 53.3898 29.4206 53.4672C30.6298 53.5597 31.8389 52.5425 31.9057 51.2622C31.9407 50.6759 31.9929 47.6548 29.5694 45.7529C27.3369 44.0009 24.5173 44.4339 23.3385 44.9076C21.5615 45.597 20.5672 47.2246 18.9572 48.1106C18.4407 48.3669 17.7072 48.5018 16.9392 48.4829C16.5084 48.4721 16.1481 48.8127 16.137 49.2444C16.1259 49.6761 16.467 50.035 16.899 50.0461C17.9241 50.0725 18.9044 49.8827 19.6529 49.5113C21.2243 48.7598 22.2531 47.086 23.922 46.3586C24.6367 46.0714 26.8711 45.6235 28.6029 46.9826C30.4128 48.4032 30.3704 50.719 30.3435 51.1687C30.3305 51.4682 30.0089 51.9072 29.5122 51.906C29.0795 51.8802 28.7486 51.5073 28.7744 51.0749C28.7859 50.8833 28.851 49.1747 27.6319 48.2181C26.2873 47.1629 24.5316 47.8067 24.5082 47.8159C23.1119 48.491 22.0761 50.1001 20.3515 50.9183C17.356 52.404 12.6445 51.6306 10.8228 48.3712C10.1414 47.1517 9.91384 45.6421 10.1823 44.1203C10.3043 43.4275 10.523 42.7468 10.8304 42.0946L12.134 40.7917L12.9452 41.6023C11.5565 43.5069 11.236 45.8892 12.1952 47.6053C12.4038 47.9784 12.6735 48.3189 12.9968 48.6178C13.1473 48.7568 13.3377 48.8256 13.5278 48.8256C13.7383 48.8256 13.9483 48.7412 14.1025 48.5745C14.3959 48.2573 14.3765 47.7626 14.0592 47.4695C13.857 47.2825 13.6893 47.0716 13.5613 46.8425C12.9274 45.7083 13.147 44.1001 14.0684 42.7247C14.9541 43.785 16.7435 43.9363 17.7723 42.89C18.2432 42.4193 18.4845 41.806 18.5007 41.1879C19.1188 41.1714 19.732 40.9303 20.2027 40.46L22.3025 38.3615L24.4023 40.46C24.8724 40.9299 25.4845 41.1708 26.1018 41.1878C26.1184 41.8308 26.3761 42.4333 26.833 42.89C27.8086 43.8649 29.3958 43.8646 30.3714 42.89L32.4711 40.7915L34.5709 42.89C35.0587 43.3775 35.6993 43.6211 36.3399 43.6211C36.9806 43.6211 37.6214 43.3773 38.1091 42.89C38.5661 42.4333 38.8238 41.8308 38.8404 41.1877C39.4577 41.1707 40.0699 40.9296 40.5401 40.4599L42.6398 38.3614L44.7396 40.4599C45.2275 40.9474 45.868 41.191 46.5086 41.191C47.1493 41.191 47.7902 40.9472 48.2779 40.4599C49.1628 39.6051 49.2983 37.9181 48.2779 36.9238L47.4851 36.1316C47.7732 36.0099 48.0435 35.8335 48.2779 35.5993C48.7504 35.127 49.0106 34.499 49.0106 33.8312C49.0106 33.1634 48.7504 32.5353 48.2779 32.0632L44.9904 28.7778V27.349L48.0498 29.1126C48.273 29.9012 48.7854 30.5601 49.4976 30.9706C49.9897 31.2543 50.5276 31.389 51.0587 31.389C52.142 31.389 53.1971 30.8281 53.7768 29.826C54.1957 29.1027 54.3069 28.2596 54.0902 27.4521ZM42.6401 20.8113C43.0735 20.8113 43.4261 21.1636 43.4261 21.5967V27.767C43.173 27.6983 42.9095 27.662 42.6401 27.662C42.3709 27.662 42.1073 27.6983 41.8543 27.767V21.5967C41.8543 21.1635 42.2068 20.8113 42.6401 20.8113ZM37.0077 36.9188C36.7362 37.1958 36.113 37.318 35.6765 36.9232L33.0244 34.2727C32.8776 34.1262 32.6787 34.0437 32.4711 34.0437C32.2636 34.0437 32.0646 34.1262 31.9179 34.2727L29.265 36.9241C28.9011 37.2876 28.3107 37.2889 27.9449 36.9288C27.6671 36.6451 27.5078 36.0213 27.9671 35.5722L31.472 32.0695C31.7389 31.8028 32.0938 31.6559 32.4712 31.6559C32.8487 31.6559 33.2035 31.8028 33.4705 32.0696L36.9796 35.5765C37.2758 35.8533 37.3997 36.4701 37.0077 36.9188ZM19.0965 34.494C18.7338 34.8563 18.1457 34.8587 17.7799 34.5019C17.5001 34.2158 17.3454 33.6479 17.7712 33.1696L21.3035 29.6394C21.5704 29.3727 21.9252 29.2258 22.3028 29.2258C22.6802 29.2258 23.035 29.3727 23.302 29.6395L26.8344 33.1696C27.0113 33.3465 27.1089 33.5817 27.1089 33.8318C27.1089 34.0749 27.016 34.3035 26.8484 34.4787C26.5729 34.7697 25.9511 34.8882 25.5081 34.4931L22.856 31.8426C22.7092 31.6961 22.5103 31.6136 22.3027 31.6136C22.0951 31.6136 21.8962 31.6961 21.7493 31.8426L19.0965 34.494ZM14.4851 31.2085V21.4169L19.952 18.2664V28.7785L16.6646 32.0638C16.4341 32.2941 16.2544 32.5618 16.1305 32.8529L14.4851 31.2085ZM36.4678 32.8533L34.822 31.2086V21.4881L40.2894 24.6397V28.7784L37.0021 32.0638C36.7714 32.2944 36.5918 32.562 36.4678 32.8533ZM40.3113 21.2806C40.2973 21.384 40.2894 21.4894 40.2894 21.5967V22.8343L34.822 19.6827V18.1163L40.3113 21.2806ZM32.4713 14.9769C32.9047 14.9769 33.2573 15.3293 33.2573 15.7624V30.197C33.0042 30.1283 32.7407 30.092 32.4713 30.092C32.202 30.092 31.9385 30.1283 31.6854 30.197V15.7624C31.6854 15.3293 32.0379 14.9769 32.4713 14.9769ZM30.1206 31.2086L28.4749 32.8531C28.3509 32.5619 28.1713 32.2943 27.9407 32.0638L24.6533 28.7786V24.4606C24.6533 24.0287 24.3031 23.6787 23.8709 23.6787C23.4388 23.6787 23.0884 24.0287 23.0884 24.4606V27.767C22.8355 27.6983 22.5718 27.662 22.3026 27.662C22.0332 27.662 21.7697 27.6983 21.5166 27.767V13.8185L23.0884 14.7246V20.8044C23.0884 21.2363 23.4387 21.5863 23.8709 21.5863C24.303 21.5863 24.6533 21.2363 24.6533 20.8044V15.6267L30.1205 18.7782L30.1206 31.2086ZM19.952 16.4611L14.4851 19.6117V18.5672C14.4851 18.3985 14.4668 18.2341 14.4329 18.0754L19.9521 14.8948L19.952 16.4611ZM12.1344 17.7818C12.5677 17.7818 12.9203 18.1342 12.9203 18.5672V30.197C12.6672 30.1283 12.4037 30.092 12.1344 30.092C11.8651 30.092 11.6015 30.1283 11.3484 30.197V18.5672C11.3484 18.1341 11.7009 17.7818 12.1344 17.7818ZM4.70319 26.2725C3.95404 26.7047 2.99301 26.4478 2.5608 25.7C2.20725 25.1175 2.31627 24.0122 3.13489 23.5631C3.73079 23.1905 4.82493 23.3362 5.27738 24.1357C5.63073 24.7183 5.52171 25.8236 4.70319 26.2725ZM6.90765 23.9785C6.83932 23.7631 6.74793 23.5534 6.63213 23.3531C6.5156 23.1517 6.37935 22.9687 6.22809 22.8039L9.78354 20.7549V22.3212L6.90765 23.9785ZM7.60276 36.9242C7.23731 36.559 7.23731 35.9648 7.60276 35.5996L11.135 32.0696C11.402 31.8028 11.7569 31.6559 12.1344 31.6559C12.5118 31.6559 12.8667 31.8028 13.1338 32.0696L16.6301 35.5637C16.9443 35.8428 17.0657 36.4849 16.6587 36.9309C16.2928 37.2887 15.7047 37.2867 15.3416 36.9251L12.6876 34.2728C12.3819 33.9676 11.8867 33.9676 11.581 34.2728L8.92704 36.9251C8.56159 37.289 7.96778 37.2888 7.60276 36.9242ZM16.666 41.7847C16.3005 42.1495 15.706 42.15 15.3405 41.7847L12.6875 39.1334C12.3818 38.8281 11.8866 38.8281 11.5809 39.1334L8.92798 41.7847C8.56253 42.1497 7.96799 42.1499 7.60255 41.7848C7.2371 41.4196 7.2371 40.8255 7.60255 40.4603L12.1342 35.9315L16.6338 40.4285C16.9402 40.7086 17.0657 41.3305 16.666 41.7847ZM22.8558 36.7033C22.5503 36.398 22.055 36.398 21.7493 36.7033L19.0964 39.3546C18.7336 39.717 18.1451 39.7192 17.7793 39.362C17.4969 39.0765 17.3453 38.4896 17.781 38.0203L22.3026 33.5014L26.8255 38.0215C27.1033 38.2999 27.2619 38.8996 26.8256 39.3624C26.4594 39.7192 25.8715 39.7169 25.5089 39.3546L22.8558 36.7033ZM37.003 41.7847C36.6375 42.1499 36.0429 42.1499 35.6776 41.7847L33.0244 39.1334C32.719 38.8281 32.2236 38.8281 31.918 39.1334L29.265 41.7847C28.8995 42.1499 28.305 42.1499 27.9397 41.7847C27.6645 41.5038 27.5144 40.8895 27.9651 40.4349L32.4712 35.9315L36.9795 40.4371C37.2683 40.7209 37.4353 41.3002 37.003 41.7847ZM47.1718 39.3546C46.8063 39.7198 46.2117 39.7198 45.8464 39.3546L43.1932 36.7033C42.8878 36.398 42.3925 36.398 42.0868 36.7033L39.4338 39.3546C39.0707 39.7174 38.4815 39.7193 38.1158 39.3612C37.8371 39.0775 37.6827 38.4967 38.1142 38.0247L42.64 33.5014L47.1717 38.0302C47.4371 38.3092 47.5986 38.8728 47.1718 39.3546ZM47.4462 33.8319C47.4462 34.082 47.3487 34.3172 47.1717 34.494C46.8062 34.8591 46.2117 34.8591 45.8464 34.494C45.8461 34.4937 45.8457 34.4934 45.8454 34.4931L43.1932 31.8426C43.0465 31.6961 42.8475 31.6136 42.6399 31.6136C42.4324 31.6136 42.2335 31.6961 42.0866 31.8426L39.4337 34.494C39.07 34.8574 38.4794 34.8588 38.1138 34.4989C37.8388 34.2151 37.6832 33.6457 38.1084 33.1695L41.6406 29.6395C41.9076 29.3727 42.2625 29.2258 42.6399 29.2258C43.0174 29.2258 43.3723 29.3727 43.6392 29.6395L47.1716 33.1696C47.3488 33.3466 47.4462 33.5817 47.4462 33.8319ZM44.9908 23.978L48.7551 26.1479C48.6037 26.3127 48.4674 26.4958 48.3508 26.6972C48.235 26.8975 48.1437 27.1071 48.0754 27.3224L44.9907 25.5443L44.9908 23.978ZM52.4223 29.0441C51.9902 29.7915 51.0291 30.0485 50.2799 29.6166C49.6234 29.2307 49.2588 28.3381 49.7059 27.4797C50.1443 26.8074 50.9853 26.4507 51.8482 26.9072C52.5049 27.2928 52.8693 28.1858 52.4223 29.0441Z" fill="#475467"/>
</svg>
