<svg width="53" height="43" viewBox="0 0 53 43" fill="none" xmlns="http://www.w3.org/2000/svg">
<path d="M43.6154 9.57548H38.4289C37.8585 9.57548 37.3959 10.038 37.3959 10.6086C37.3959 11.1791 37.8585 11.6416 38.4289 11.6416H43.6154C44.1859 11.6416 44.6485 11.1791 44.6485 10.6086C44.6485 10.038 44.1859 9.57548 43.6154 9.57548Z" fill="#475467"/>
<path d="M43.6154 13.7247H38.4289C37.8585 13.7247 37.3959 14.1872 37.3959 14.7578C37.3959 15.3284 37.8585 15.7909 38.4289 15.7909H43.6154C44.1859 15.7909 44.6485 15.3284 44.6485 14.7578C44.6485 14.1872 44.1859 13.7247 43.6154 13.7247Z" fill="#475467"/>
<path d="M41.0221 17.8739C39.0225 17.8739 37.3957 19.5007 37.3957 21.5002C37.3957 23.4997 39.0224 25.1265 41.0221 25.1265C43.0217 25.1265 44.6485 23.4998 44.6485 21.5002C44.6485 19.5006 43.0217 17.8739 41.0221 17.8739ZM41.0221 23.0603C40.1618 23.0603 39.4619 22.3604 39.4619 21.5002C39.4619 20.6399 40.1617 19.94 41.0221 19.94C41.8823 19.94 42.5823 20.6399 42.5823 21.5002C42.5823 22.3604 41.8823 23.0603 41.0221 23.0603Z" fill="#475467"/>
<path d="M51.9138 20.9774C52.4843 20.9774 52.9469 20.5149 52.9469 19.9443V10.6086C52.9469 10.038 52.4843 9.57549 51.9138 9.57549H48.7977V9.57135C48.7977 7.28577 46.9382 5.42633 44.6527 5.42633H41.5366V1.27295C41.5366 0.702377 41.074 0.239868 40.5035 0.239868H36.3543C35.7838 0.239868 35.3212 0.702377 35.3212 1.27295V5.42633H12.4922V3.34757C12.4922 2.77701 12.0295 2.3145 11.4591 2.3145C10.8885 2.3145 10.426 2.77701 10.426 3.34757V5.42644H7.3099C5.02431 5.42644 3.16486 7.28587 3.16486 9.57146V25.1309C3.16486 27.4164 5.02431 29.2759 7.3099 29.2759H7.31414V32.3919C7.31414 32.9624 7.77675 33.425 8.34722 33.425H9.38867V35.508H1.08609C0.51552 35.508 0.053009 35.9706 0.053009 36.5411V38.6283C0.053009 40.9069 1.90677 42.7606 4.18534 42.7606H48.8145C51.0931 42.7606 52.9469 40.9069 52.9469 38.6283V36.5411C52.9469 35.9706 52.4843 35.508 51.9138 35.508H48.7977V20.9774H51.9138ZM50.8807 11.6416V18.9112H48.7977V11.6416H50.8807ZM37.3874 2.30603H39.4704V5.42633H37.3874V2.30603ZM9.3803 29.2758H11.4633V31.3588H9.3803V29.2758ZM11.4548 33.4249H12.4964C13.0669 33.4249 13.5295 32.9623 13.5295 32.3918V29.2758H13.5337C15.8192 29.2758 17.6786 27.4163 17.6786 25.1308V18.907C17.6786 17.7607 18.6111 16.8282 19.7574 16.8282H31.1677C32.314 16.8282 33.2465 17.7608 33.2465 18.907V35.5079H11.4548V33.4249ZM50.8807 38.6282C50.8807 39.7675 49.9538 40.6944 48.8145 40.6944H4.18534C3.04606 40.6944 2.11918 39.7675 2.11918 38.6282V37.5741H50.8807V38.6282ZM35.3128 35.5079V18.907C35.3128 16.6214 33.4533 14.7621 31.1678 14.7621H19.7574C17.4719 14.7621 15.6125 16.6215 15.6125 18.907V25.1308C15.6125 26.2771 14.68 27.2096 13.5337 27.2096H7.3099C6.16359 27.2096 5.23103 26.2771 5.23103 25.1308V9.57135C5.23103 8.42505 6.16359 7.49249 7.3099 7.49249H44.6527C45.799 7.49249 46.7315 8.42505 46.7315 9.57135V35.5079H35.3128Z" fill="#475467"/>
<path d="M10.9404 9.57548C8.94089 9.57548 7.31409 11.2023 7.31409 13.2018C7.31409 15.2013 8.94078 16.8281 10.9404 16.8281C12.9401 16.8281 14.5669 15.2013 14.5669 13.2018C14.5667 11.2023 12.94 9.57548 10.9404 9.57548ZM10.9404 14.7619C10.0802 14.7619 9.38026 14.062 9.38026 13.2018C9.38026 12.3415 10.0801 11.6416 10.9404 11.6416C11.8007 11.6416 12.5006 12.3415 12.5006 13.2018C12.5006 14.0621 11.8007 14.7619 10.9404 14.7619Z" fill="#475467"/>
</svg>
