<svg width="68" height="67" viewBox="0 0 68 67" fill="none" xmlns="http://www.w3.org/2000/svg">
<g clip-path="url(#clip0_9014_17958)">
<path d="M40.72 -5.90476C39.2826 -8.37187 36.0881 -9.22023 33.5986 -7.79567C32.3926 -7.10568 31.5299 -5.99168 31.1697 -4.65876C30.9185 -3.73015 30.933 -2.7729 31.1997 -1.87343L23.7025 6.44234C23.098 7.11279 23.1565 8.14166 23.8331 8.74065C24.5096 9.33965 25.5481 9.28138 26.1522 8.61125L32.8254 1.20943L53.2779 36.3134L18.0489 43.5919L8.84971 27.8033L16.3043 19.5349C16.9087 18.8645 16.8503 17.8356 16.1737 17.2366C15.4971 16.6376 14.4587 16.6959 13.8545 17.366L5.7835 26.3179L-1.99727 30.7695C-4.78014 32.3615 -6.77079 34.9323 -7.60243 38.0081C-8.43407 41.0838 -8.00733 44.2963 -6.40071 47.054C-4.7941 49.8117 -2.1998 51.7843 0.904032 52.6084C1.94067 52.8835 2.99225 53.0197 4.03726 53.0197C5.79697 53.0197 7.53679 52.6321 9.15146 51.8738L11.2282 55.4381C12.0762 56.8936 13.6201 57.7083 15.2054 57.7083C15.9703 57.7083 16.7445 57.5177 17.4551 57.1189L26.8585 73.2586C27.4527 74.2785 28.5343 74.8491 29.6452 74.8491C30.1895 74.8491 30.7413 74.7119 31.2456 74.4233L37.5398 70.8222C38.5073 70.2688 39.1068 69.2778 39.1439 68.1715C39.1809 67.0651 38.6487 66.0371 37.7203 65.4213L35.8568 64.1854L28.1685 50.9896C30.3313 49.7282 31.07 46.9629 29.8129 44.8052L29.6471 44.5206L55.1632 39.249C56.1587 40.2793 57.5322 40.8433 58.9364 40.8433C59.8201 40.8433 60.7154 40.6207 61.5342 40.1522C64.0235 38.728 64.8795 35.5623 63.4424 33.0953L40.72 -5.90476ZM1.7544 49.4638C-0.501857 48.8647 -2.38771 47.4308 -3.55559 45.4263C-4.72347 43.4218 -5.03375 41.0864 -4.42912 38.8507C-3.82448 36.6151 -2.37753 34.7463 -0.354517 33.5888L6.23192 29.8205L14.9771 44.8299L8.39028 48.598C6.36711 49.7555 4.01049 50.063 1.7544 49.4638ZM33.7122 66.6804L35.795 68.0616L29.667 71.5677L20.301 55.4923L25.3244 52.6185L33.2034 66.1416C33.329 66.3573 33.503 66.5417 33.7122 66.6804ZM26.9681 46.433C27.3262 47.0475 27.113 47.836 26.4929 48.1906L25.1046 48.9849L25.1041 48.9853L25.1036 48.9856L17.2366 53.4865L17.2356 53.487L17.2348 53.4875L15.847 54.2815C15.2271 54.6363 14.4314 54.4251 14.0731 53.8104L12.0173 50.2819L17.8133 46.9658L26.2613 45.2204L26.9681 46.433ZM59.8919 37.3332C59.4458 37.5884 58.9258 37.6561 58.4289 37.524C57.9315 37.3918 57.5154 37.0757 57.258 36.6338L34.5353 -2.3663C34.2779 -2.80822 34.2094 -3.32323 34.3426 -3.8161C34.4759 -4.30897 34.795 -4.7211 35.241 -4.97616C35.5439 -5.14935 35.8748 -5.23171 36.2019 -5.23171C36.8688 -5.23171 37.5183 -4.88908 37.875 -4.27674L60.5977 34.7233C61.1291 35.6355 60.8126 36.8065 59.8919 37.3332Z" fill="#475467"/>
<path d="M57.248 10.6332C57.5551 11.1516 58.1121 11.4413 58.6851 11.4413C58.9662 11.4413 59.2514 11.3715 59.5123 11.2246L70.2214 5.19725C71.0142 4.75111 71.2859 3.76284 70.8281 2.98997C70.3704 2.21709 69.3567 1.95225 68.5638 2.39855L57.8547 8.42593C57.0618 8.87207 56.7902 9.86034 57.248 10.6332Z" fill="#475467"/>
<path d="M53.9844 5.18518C54.2429 5.33242 54.5249 5.4024 54.8032 5.4024C55.3704 5.4024 55.922 5.11196 56.226 4.59232L61.2771 -4.04397C61.7304 -4.81873 61.4614 -5.80942 60.6765 -6.25666C59.8915 -6.70406 58.8881 -6.43857 58.435 -5.6638L53.3838 2.97249C52.9306 3.74709 53.1995 4.73794 53.9844 5.18518Z" fill="#475467"/>
<path d="M71.2226 14.4607H63.1545C62.2394 14.4607 61.4973 15.2267 61.4973 16.1717C61.4973 17.1167 62.2394 17.8827 63.1545 17.8827H71.2226C72.1377 17.8827 72.8798 17.1167 72.8798 16.1717C72.8798 15.2267 72.1377 14.4607 71.2226 14.4607Z" fill="#475467"/>
<path d="M75.6572 -0.365904C75.3531 -0.66543 74.9354 -0.837739 74.5077 -0.837739C74.0783 -0.837739 73.6604 -0.66543 73.3564 -0.365904C73.054 -0.0663767 72.8798 0.349095 72.8798 0.772619C72.8798 1.19614 73.0538 1.61162 73.3564 1.91114C73.6604 2.21067 74.0783 2.38298 74.5077 2.38298C74.9354 2.38298 75.3531 2.21067 75.6572 1.91114C75.9596 1.61162 76.132 1.19614 76.132 0.772619C76.132 0.349095 75.9596 -0.0663767 75.6572 -0.365904Z" fill="#475467"/>
<path d="M20.0331 14.662C20.4612 14.662 20.8791 14.4913 21.1833 14.1916C21.4859 13.8919 21.6584 13.4762 21.6584 13.0525C21.6584 12.6271 21.4859 12.2131 21.1833 11.9118C20.8809 11.6121 20.4612 11.4413 20.0331 11.4413C19.6036 11.4413 19.1855 11.6121 18.8831 11.9118C18.5789 12.2131 18.4062 12.6271 18.4062 13.0525C18.4062 13.4762 18.5789 13.8919 18.8831 14.1916C19.1855 14.4913 19.6053 14.662 20.0331 14.662Z" fill="#475467"/>
</g>
<defs>
<clipPath id="clip0_9014_17958">
<rect width="66.0528" height="66.0525" fill="white" transform="translate(0.973572)"/>
</clipPath>
</defs>
</svg>
