<svg width="54" height="47" viewBox="0 0 54 47" fill="none" xmlns="http://www.w3.org/2000/svg">
<path d="M21.0166 37.273H8.92997C8.26904 37.273 7.73328 37.8087 7.73328 38.4697C7.73328 39.1306 8.26904 39.6664 8.92997 39.6664H21.0166C21.6775 39.6664 22.2133 39.1306 22.2133 38.4697C22.2133 37.8087 21.6775 37.273 21.0166 37.273Z" fill="#475467"/>
<path d="M39.0867 37.273H27.0001C26.3391 37.273 25.8034 37.8087 25.8034 38.4697C25.8034 39.1306 26.3391 39.6664 27.0001 39.6664H39.0867C39.7475 39.6664 40.2833 39.1306 40.2833 38.4697C40.2833 37.8087 39.7475 37.273 39.0867 37.273Z" fill="#475467"/>
<path d="M39.0867 7.35578H8.92997C8.26904 7.35578 7.73328 7.89154 7.73328 8.55247C7.73328 9.2134 8.26904 9.74916 8.92997 9.74916H39.0867C39.7475 9.74916 40.2833 9.2134 40.2833 8.55247C40.2833 7.89154 39.7475 7.35578 39.0867 7.35578Z" fill="#475467"/>
<path d="M39.0867 13.3392H27.0001C26.3391 13.3392 25.8034 13.875 25.8034 14.5359C25.8034 15.1969 26.3391 15.7326 27.0001 15.7326H39.0867C39.7475 15.7326 40.2833 15.1969 40.2833 14.5359C40.2833 13.875 39.7475 13.3392 39.0867 13.3392Z" fill="#475467"/>
<path d="M39.0867 19.3227H27.0001C26.3391 19.3227 25.8034 19.8584 25.8034 20.5193C25.8034 21.1803 26.3391 21.716 27.0001 21.716H39.0867C39.7475 21.716 40.2833 21.1803 40.2833 20.5193C40.2833 19.8584 39.7475 19.3227 39.0867 19.3227Z" fill="#475467"/>
<path d="M39.0867 25.3061H27.0001C26.3391 25.3061 25.8034 25.8418 25.8034 26.5028C25.8034 27.1637 26.3391 27.6995 27.0001 27.6995H39.0867C39.7475 27.6995 40.2833 27.1637 40.2833 26.5028C40.2833 25.8418 39.7475 25.3061 39.0867 25.3061Z" fill="#475467"/>
<path d="M39.0867 31.2896H27.0001C26.3391 31.2896 25.8034 31.8253 25.8034 32.4862C25.8034 33.1472 26.3391 33.6829 27.0001 33.6829H39.0867C39.7475 33.6829 40.2833 33.1472 40.2833 32.4862C40.2833 31.8253 39.7475 31.2896 39.0867 31.2896Z" fill="#475467"/>
<path d="M21.0166 31.2896H8.92997C8.26904 31.2896 7.73328 31.8253 7.73328 32.4862C7.73328 33.1472 8.26904 33.6829 8.92997 33.6829H21.0166C21.6775 33.6829 22.2133 33.1472 22.2133 32.4862C22.2133 31.8253 21.6775 31.2896 21.0166 31.2896Z" fill="#475467"/>
<path d="M21.0166 13.3392H8.92997C8.26904 13.3392 7.73328 13.875 7.73328 14.5359V26.6225C7.73328 27.2834 8.26904 27.8192 8.92997 27.8192H21.0166C21.6775 27.8192 22.2133 27.2834 22.2133 26.6225V14.5359C22.2133 13.875 21.6775 13.3392 21.0166 13.3392ZM19.8199 25.4258H10.1267V15.7326H19.8199V25.4258Z" fill="#475467"/>
<path d="M51.0536 6.1591H47.4635V2.56903C47.4635 1.24933 46.3898 0.175659 45.0701 0.175659H2.9465C1.62679 0.175659 0.553116 1.24933 0.553116 2.56903V40.863C0.553116 44.1623 3.2373 46.8465 6.53658 46.8465H47.4635C50.7628 46.8465 53.447 44.1623 53.447 40.863V8.55247C53.447 7.23277 52.3733 6.1591 51.0536 6.1591ZM51.0536 40.863C51.0536 42.8426 49.4431 44.4531 47.4635 44.4531H6.53658C4.55701 44.4531 2.9465 42.8426 2.9465 40.863V2.56903H45.0701V39.068C45.0701 40.7176 46.4122 42.0597 48.0619 42.0597C48.7227 42.0597 49.2585 41.524 49.2585 40.863C49.2585 40.2021 48.7227 39.6664 48.0619 39.6664C47.7319 39.6664 47.4635 39.3979 47.4635 39.068V8.55247H51.0536V40.863Z" fill="#475467"/>
</svg>
