<svg width="56" height="56" viewBox="0 0 56 56" fill="none" xmlns="http://www.w3.org/2000/svg">
<circle cx="28" cy="28" r="27.3" stroke="#D0D5DD" stroke-width="1.4"/>
<g clip-path="url(#clip0_9049_39271)">
<path d="M30.4013 24.0415C30.8316 24.0415 31.1817 23.6913 31.1817 23.261V21.2003C31.1817 20.77 30.8316 20.4199 30.4013 20.4199H25.599C25.1686 20.4199 24.8185 20.77 24.8185 21.2003V23.261C24.8185 23.6913 25.1686 24.0415 25.599 24.0415H30.4013ZM25.8016 21.4031H30.1985V23.0583H25.8016V21.4031Z" fill="#344054"/>
<path d="M32.7263 34.675C32.2961 34.675 31.9459 35.0251 31.9459 35.4555V37.5162C31.9459 37.9465 32.2961 38.2966 32.7263 38.2966H37.5287C37.959 38.2966 38.3091 37.9465 38.3091 37.5162V35.4555C38.3091 35.0251 37.959 34.675 37.5287 34.675H32.7263ZM37.326 37.3135H32.9291V35.6582H37.326V37.3135Z" fill="#344054"/>
<path d="M23.2738 34.675H18.4715C18.0412 34.675 17.6911 35.0251 17.6911 35.4555V37.5162C17.6911 37.9465 18.0412 38.2966 18.4715 38.2966H23.2738C23.7041 38.2966 24.0542 37.9465 24.0542 37.5162V35.4555C24.0542 35.0251 23.7041 34.675 23.2738 34.675ZM23.0711 37.3135H18.6742V35.6582H23.0711V37.3135Z" fill="#344054"/>
<path d="M44.061 39.7102H42.7475V37.8047C42.7475 37.5332 42.5275 37.3131 42.2559 37.3131C41.9844 37.3131 41.7644 37.5332 41.7644 37.8047V39.71H28.4928V26.4384H32.9352V29.7321C32.9352 30.01 33.0768 30.2625 33.3139 30.4074C33.5509 30.5523 33.8402 30.563 34.0875 30.4363L35.1286 29.9027L36.1696 30.4363C36.2842 30.4951 36.4078 30.5242 36.531 30.5242C36.6738 30.5242 36.8161 30.4851 36.9433 30.4073C37.1803 30.2624 37.3219 30.0099 37.3219 29.7321V26.4383H41.7515C41.7586 26.4383 41.7644 26.4441 41.7644 26.4512V35.5715C41.7644 35.843 41.9844 36.0631 42.2559 36.0631C42.5275 36.0631 42.7475 35.843 42.7475 35.5715V26.4512C42.7475 25.9021 42.3007 25.4552 41.7515 25.4552H35.6202V12.1958C35.6202 11.6468 35.1736 11.2002 34.6246 11.2002H21.3783C20.8291 11.2002 20.3822 11.647 20.3822 12.1962V14.6608C20.3822 14.9322 20.6023 15.1523 20.8738 15.1523C21.1453 15.1523 21.3654 14.9322 21.3654 14.6608V12.1962C21.3654 12.1892 21.3711 12.1833 21.3783 12.1833H25.8078V15.4772C25.8078 15.7551 25.9494 16.0075 26.1865 16.1524C26.3138 16.2302 26.456 16.2693 26.5987 16.2693C26.7219 16.2693 26.8456 16.2401 26.9602 16.1813L28.0012 15.6477L29.0421 16.1813C29.2895 16.308 29.5787 16.2974 29.8158 16.1524C30.053 16.0075 30.1946 15.755 30.1946 15.4771V12.1833H34.6246C34.6315 12.1833 34.637 12.1889 34.637 12.1958V25.455H21.3654V16.8939C21.3654 16.6224 21.1453 16.4023 20.8738 16.4023C20.6023 16.4023 20.3822 16.6224 20.3822 16.8939V25.4553H14.2509C13.7017 25.4553 13.2548 25.9021 13.2548 26.4513V39.7102H11.9414C11.5369 39.7102 11.2079 40.0393 11.2079 40.4437V41.8709C11.2079 42.2754 11.5369 42.6044 11.9414 42.6044H13.0975V43.9257C13.0975 44.4079 13.4898 44.8002 13.9719 44.8002H15.402C15.8841 44.8002 16.2765 44.4079 16.2765 43.9257V42.6044H39.726V43.9257C39.726 44.4079 40.1183 44.8002 40.6005 44.8002H42.0305C42.5126 44.8002 42.9049 44.4079 42.9049 43.9257V42.6044H44.0611C44.4655 42.6044 44.7945 42.2754 44.7945 41.8709V40.4437C44.7945 40.0393 44.4654 39.7102 44.061 39.7102ZM29.2114 15.1633L28.3621 14.7279C28.1361 14.6121 27.8663 14.6121 27.6402 14.7279L26.791 15.1633V12.1833H29.2114V15.1633ZM33.9184 26.4384H36.3388V29.4183L35.4896 28.983C35.2636 28.8671 34.9937 28.8671 34.7676 28.983L33.9184 29.4183V26.4384ZM19.6636 26.4384H22.084V29.4183L21.2347 28.983C21.0087 28.8671 20.7388 28.8671 20.5127 28.983L19.6635 29.4183V26.4384H19.6636ZM14.238 26.4512C14.238 26.4442 14.2437 26.4383 14.2509 26.4383H18.6804V29.7321C18.6804 30.01 18.822 30.2624 19.0591 30.4073C19.2962 30.5522 19.5854 30.5631 19.8328 30.4363L20.8738 29.9026L21.9148 30.4363C22.0294 30.495 22.153 30.5242 22.2762 30.5242C22.419 30.5242 22.5612 30.485 22.6885 30.4072C22.9256 30.2623 23.0672 30.0099 23.0672 29.732V26.4383H27.5096V39.7099H14.238V26.4512ZM15.2933 43.8171H14.0807V42.6044H15.2933V43.8171ZM41.9217 43.8171H40.7091V42.6044H41.9217V43.8171ZM43.8113 41.6213H12.191V40.6934H43.8113V41.6213Z" fill="#344054"/>
</g>
<defs>
<clipPath id="clip0_9049_39271">
<rect width="33.6" height="33.6" fill="white" transform="translate(11.2 11.2)"/>
</clipPath>
</defs>
</svg>
