<svg width="53" height="48" viewBox="0 0 53 48" fill="none" xmlns="http://www.w3.org/2000/svg">
<path d="M14.8778 31.2401C14.4499 31.2401 14.103 31.5871 14.103 32.015V33.4096C14.103 33.8375 14.4499 34.1844 14.8778 34.1844C15.3057 34.1844 15.6526 33.8375 15.6526 33.4096V32.015C15.6526 31.5871 15.3057 31.2401 14.8778 31.2401Z" fill="#475467"/>
<path d="M50.4997 41.529H49.2452V20.0318C51.3233 19.664 52.907 17.8463 52.907 15.6643V12.6812C52.907 12.666 52.9055 12.6511 52.9047 12.6362C52.9042 12.6278 52.9042 12.6194 52.9035 12.611C52.9007 12.5805 52.8964 12.5504 52.8902 12.5211C52.8899 12.5193 52.8893 12.5177 52.8889 12.516C52.8828 12.4878 52.8749 12.4603 52.8658 12.4334C52.8635 12.4265 52.8608 12.4197 52.8583 12.413C52.8498 12.3899 52.8402 12.3673 52.8296 12.3453C52.8276 12.3413 52.8264 12.3371 52.8244 12.3331L49.3985 5.5201V1.9566C49.3985 1.03696 48.6503 0.288696 47.7306 0.288696H12.4971C12.0692 0.288696 11.7223 0.635604 11.7223 1.06351C11.7223 1.49141 12.0692 1.83831 12.4971 1.83831H47.7306C47.7958 1.83831 47.8489 1.89141 47.8489 1.9566V4.93641H5.15096V1.9566C5.15096 1.89141 5.20406 1.83831 5.26925 1.83831H8.89207C9.31997 1.83831 9.66688 1.49141 9.66688 1.06351C9.66688 0.635604 9.31997 0.288696 8.89207 0.288696H5.26925C4.3496 0.288696 3.60134 1.03696 3.60134 1.9566V5.5201L0.175533 12.3331C0.17357 12.3372 0.172227 12.3414 0.170367 12.3453C0.159727 12.3673 0.150222 12.3899 0.141648 12.413C0.139168 12.4198 0.136482 12.4265 0.134209 12.4334C0.125118 12.4603 0.117163 12.4878 0.111068 12.516C0.110655 12.5177 0.110139 12.5193 0.109725 12.5211C0.103527 12.5505 0.0991878 12.5805 0.0965018 12.611C0.0957787 12.6194 0.0957787 12.6278 0.0952621 12.6362C0.0944357 12.6511 0.0929893 12.666 0.0929893 12.6812V15.6643C0.0929893 17.8462 1.67671 19.664 3.75475 20.0318V41.529H2.50018C1.15076 41.529 0.053009 42.6268 0.053009 43.9762V46.4269C0.053009 47.1156 0.61325 47.6758 1.3019 47.6758H51.698C52.3866 47.6758 52.9469 47.1156 52.9469 46.4269V43.9762C52.9469 42.6268 51.8491 41.529 50.4997 41.529ZM51.3573 15.6644C51.3573 17.2563 50.0622 18.5514 48.4703 18.5514C46.8784 18.5514 45.5834 17.2563 45.5834 15.6644V13.4561H51.3573V15.6644ZM48.1497 6.48603L50.8752 11.9064H45.3536L43.4069 6.48603H48.1497ZM41.7602 6.48603L43.707 11.9064H38.1108L36.9426 6.48603H41.7602ZM44.0338 13.456V15.6643C44.0338 17.2562 42.7388 18.5512 41.1469 18.5512C39.555 18.5512 38.2599 17.2562 38.2599 15.6643V13.456H44.0338ZM35.3575 6.48603L36.5256 11.9064H30.8829L30.4935 6.48603H35.3575ZM36.7103 13.456V15.6643C36.7103 17.2562 35.4152 18.5512 33.8235 18.5512C32.2317 18.5512 30.9365 17.2562 30.9365 15.6643V13.456H36.7103ZM24.06 6.48603H28.9398L29.3291 11.9064H23.6706L24.06 6.48603ZM23.613 13.456H29.3869V15.6643C29.3869 17.2562 28.0918 18.5512 26.4999 18.5512C24.9081 18.5512 23.613 17.2562 23.613 15.6643V13.456ZM26.4999 20.1009C28.019 20.1009 29.3617 19.3332 30.1617 18.1657C30.9617 19.3332 32.3044 20.1009 33.8235 20.1009C35.3425 20.1009 36.6852 19.3332 37.4851 18.1657C38.2851 19.3332 39.6278 20.1009 41.1469 20.1009C42.6659 20.1009 44.0086 19.3332 44.8086 18.1657C45.4694 19.13 46.5007 19.8203 47.6956 20.0318V41.529H18.5283V24.3113C18.5283 23.5166 17.8818 22.8701 17.0871 22.8701H8.12934C7.33469 22.8701 6.68819 23.5166 6.68819 24.3113V41.529H5.30438V20.0318C6.49924 19.8203 7.53057 19.13 8.19133 18.1657C8.99135 19.3332 10.334 20.1009 11.8531 20.1009C13.3721 20.1009 14.7148 19.3332 15.5149 18.1657C16.3149 19.3332 17.6576 20.1009 19.1765 20.1009C20.6955 20.1009 22.0383 19.3332 22.8383 18.1657C23.6382 19.3332 24.9809 20.1009 26.4999 20.1009ZM16.9786 24.4198V41.529H8.23782V24.4198H16.9786ZM8.96604 15.6644V13.4561H14.7399V15.6644C14.7399 17.2563 13.4449 18.5514 11.853 18.5514C10.2611 18.5514 8.96604 17.2562 8.96604 15.6644ZM17.6424 6.48603H22.5063L22.117 11.9064H16.4743L17.6424 6.48603ZM16.2896 13.456H22.0634V15.6643C22.0634 17.2562 20.7683 18.5512 19.1764 18.5512C17.5845 18.5512 16.2896 17.2562 16.2896 15.6643V13.456ZM16.0571 6.48603L14.889 11.9064H9.2928L11.2395 6.48603H16.0571ZM4.85013 6.48603H9.59301L7.64627 11.9064H2.12465L4.85013 6.48603ZM1.64261 15.6644V13.4561H7.41652V15.6644C7.41652 17.2563 6.12144 18.5514 4.52956 18.5514C2.93769 18.5514 1.64261 17.2562 1.64261 15.6644ZM1.60263 46.1262V43.9761C1.60263 43.4812 2.00523 43.0786 2.50018 43.0786H50.4996C50.9945 43.0786 51.3971 43.4812 51.3971 43.9761V46.1262H1.60263Z" fill="#475467"/>
<path d="M44.1422 22.8701H34.6675C34.2396 22.8701 33.8927 23.217 33.8927 23.6449C33.8927 24.0728 34.2396 24.4197 34.6675 24.4197H44.0338V36.6137H21.6961V24.4197H31.0197C31.4476 24.4197 31.7945 24.0728 31.7945 23.6449C31.7945 23.217 31.4476 22.8701 31.0197 22.8701H21.5876C20.793 22.8701 20.1465 23.5165 20.1465 24.3113V36.7223C20.1465 37.5169 20.793 38.1634 21.5876 38.1634H44.1422C44.9369 38.1634 45.5834 37.5169 45.5834 36.7223V24.3113C45.5834 23.5166 44.9369 22.8701 44.1422 22.8701Z" fill="#475467"/>
</svg>
