<svg width="54" height="54" viewBox="0 0 54 54" fill="none" xmlns="http://www.w3.org/2000/svg">
<path d="M49.0391 0.579468H4.96086C2.53039 0.579468 0.55304 2.55681 0.55304 4.98727V45.539C0.55304 47.6671 2.07021 49.4479 4.0793 49.8578V50.8284C4.0793 52.2865 5.26588 53.4731 6.72399 53.4731H12.0134C13.4715 53.4731 14.6581 52.2865 14.6581 50.8284V49.9468H39.3419V50.8284C39.3419 52.2865 40.5285 53.4731 41.9866 53.4731H47.2759C48.7341 53.4731 49.9206 52.2865 49.9206 50.8284V49.8578C51.9297 49.4479 53.4469 47.668 53.4469 45.539V4.98727C53.4469 2.55681 51.4695 0.579468 49.0391 0.579468ZM12.8949 50.8284C12.8949 51.315 12.5 51.7099 12.0134 51.7099H6.72399C6.23737 51.7099 5.84242 51.315 5.84242 50.8284V49.9468H12.8949V50.8284ZM47.2759 51.7099H41.9866C41.4999 51.7099 41.105 51.315 41.105 50.8284V49.9468H48.1575V50.8284C48.1575 51.315 47.7626 51.7099 47.2759 51.7099ZM51.6838 45.539C51.6838 46.9971 50.4972 48.1837 49.0391 48.1837H4.96086C3.50275 48.1837 2.31617 46.9971 2.31617 45.539V4.98727C2.31617 3.52917 3.50275 2.34259 4.96086 2.34259H49.0391C50.4972 2.34259 51.6838 3.52917 51.6838 4.98727V45.539Z" fill="#475467"/>
<path d="M44.6313 6.75039H9.36868C7.91057 6.75039 6.72399 7.93697 6.72399 9.39507V42.0128C6.72399 42.9852 7.51475 43.7759 8.48712 43.7759H45.5128C46.4852 43.7759 47.2759 42.9852 47.2759 42.0128V9.39507C47.2759 7.93697 46.0894 6.75039 44.6313 6.75039ZM9.36868 8.51351H44.6313C45.1179 8.51351 45.5128 8.90845 45.5128 9.39507V12.0397H32.9258C32.6199 11.5152 32.0575 11.1582 31.4078 11.1582H22.5921C21.9424 11.1582 21.38 11.5152 21.0741 12.0397H8.48712V9.39507C8.48712 8.90845 8.88206 8.51351 9.36868 8.51351ZM33.1709 13.8029H45.5128V15.566H33.1709V13.8029ZM23.4737 19.9738C22.9871 19.9738 22.5921 19.5788 22.5921 19.0922V12.9213H31.4078V19.0922C31.4078 19.5788 31.0128 19.9738 30.5262 19.9738H23.4737ZM28.2271 21.7369L27 24.222L25.7728 21.7369H28.2271ZM20.829 15.566H8.48712V13.8029H20.829V15.566ZM30.5262 37.605H23.4737V32.7591C23.4737 32.6797 23.516 32.6048 23.5839 32.5642L26.8836 30.5842C26.9541 30.5428 27.0458 30.5428 27.1163 30.5842L30.416 32.5642C30.4839 32.6048 30.5262 32.6797 30.5262 32.7591V37.605ZM35.8156 39.3681C36.3022 39.3681 36.6972 39.7631 36.6972 40.2497V42.0128H17.3028V40.2497C17.3028 39.7631 17.6977 39.3681 18.1843 39.3681H35.8156ZM38.4603 42.0128V40.2497C38.4603 38.7916 37.2737 37.605 35.8156 37.605H32.2894V32.7591C32.2894 32.0644 31.9191 31.4112 31.3232 31.0524L28.0235 29.0724C27.3914 28.6933 26.6086 28.6933 25.9765 29.0724L22.6768 31.0524C22.0808 31.4103 21.7106 32.0635 21.7106 32.7591V37.605H18.1843C16.7262 37.605 15.5396 38.7916 15.5396 40.2497V42.0128H8.48712V17.3291H20.829V19.0922C20.829 20.5503 22.0156 21.7369 23.4737 21.7369H23.8078L25.5304 25.2279C25.809 25.7938 26.3723 26.1447 27 26.1447C27.6276 26.1447 28.191 25.7938 28.4695 25.2279L30.1921 21.7369H30.5262C31.9843 21.7369 33.1709 20.5503 33.1709 19.0922V17.3291H45.5128V42.0128H38.4603Z" fill="#475467"/>
</svg>
