<svg width="53" height="53" viewBox="0 0 53 53" fill="none" xmlns="http://www.w3.org/2000/svg">
<path d="M26.4851 52.9731C26.311 52.9731 26.1347 52.9312 25.976 52.8474L0.648143 39.6238C0.28449 39.4342 0.055279 39.0573 0.055279 38.6474V13.853C0.055279 13.4717 0.253635 13.1169 0.577617 12.9163C0.901598 12.7158 1.30933 12.6981 1.64874 12.8679L26.9766 25.5405C27.3491 25.7279 27.5849 26.1092 27.5849 26.5257V51.8711C27.5849 52.2568 27.3843 52.6138 27.0537 52.8144C26.8818 52.9202 26.6835 52.9731 26.4851 52.9731ZM2.25924 37.9796L25.3831 50.0528V27.2067L2.25924 15.636V37.9796Z" fill="#475467"/>
<path d="M26.5204 52.9731C26.322 52.9731 26.1237 52.9202 25.9496 52.8144C25.6212 52.6138 25.4184 52.2568 25.4184 51.8711V26.5257C25.4184 26.1092 25.6542 25.7279 26.0267 25.5405L51.3546 12.8679C51.6918 12.6959 52.1017 12.7136 52.4257 12.9163C52.7519 13.1169 52.9502 13.4717 52.9502 13.853V38.6474C52.9502 39.0573 52.721 39.4342 52.3574 39.6238L27.0295 52.8474C26.8708 52.9312 26.6945 52.9731 26.5204 52.9731ZM27.6224 27.2067V50.0528L50.7463 37.9796V15.636L27.6224 27.2067Z" fill="#475467"/>
<path d="M1.15728 14.955C0.75175 14.955 0.363854 14.7324 0.169905 14.3467C-0.103385 13.8023 0.119214 13.1412 0.663592 12.8679L26.0267 0.195175C26.3375 0.0408987 26.7033 0.0408987 27.0119 0.195175L52.3398 12.8679C52.8841 13.1412 53.1045 13.8023 52.8334 14.3467C52.5602 14.8911 51.9012 15.1093 51.3546 14.8404L26.5204 2.41235L1.65096 14.8382C1.49228 14.9175 1.32478 14.955 1.15728 14.955Z" fill="#475467"/>
<path d="M39.7265 33.1375C39.1182 33.1375 38.6245 32.6439 38.6245 32.0356V20.5949L13.9049 8.22633C13.3606 7.95525 13.1402 7.29186 13.4135 6.74749C13.6868 6.20311 14.3479 5.98492 14.8923 6.2538L40.2202 18.9265C40.5927 19.116 40.8285 19.4973 40.8285 19.9139V32.0356C40.8285 32.6439 40.3348 33.1375 39.7265 33.1375Z" fill="#475467"/>
</svg>
