<svg width="67" height="67" viewBox="0 0 67 67" fill="none" xmlns="http://www.w3.org/2000/svg">
<g clip-path="url(#clip0_9014_17949)">
<path d="M71.3839 71.066L70.3356 62.5693C70.6863 61.9583 70.8466 61.2327 70.7466 60.4841L65.1391 18.483C64.4423 13.2642 61.2974 8.58834 56.7267 5.97543L55.3402 5.18278C54.7512 4.84597 54.001 5.05048 53.6646 5.63928C53.328 6.22824 53.5323 6.97832 54.1211 7.3148L55.5077 8.10745C56.7401 8.81201 57.8511 9.6921 58.8137 10.7066L55.7292 26.2125C55.6726 26.4976 55.639 26.7887 55.6293 27.0769L55.3739 34.5877C55.3508 35.2655 55.8818 35.8335 56.5595 35.8568C56.5738 35.8573 56.5878 35.8574 56.6021 35.8574C57.261 35.8574 57.8061 35.3348 57.8287 34.6712L58.0841 27.1597C58.0892 27.0035 58.1077 26.8457 58.1381 26.6913L60.7961 13.329C61.7836 14.9942 62.4441 16.8566 62.7048 18.8077L68.3123 60.809C68.3724 61.2601 68.0693 61.6799 67.6221 61.7646L60.5757 63.0975C60.3499 63.1398 60.122 63.0925 59.9325 62.963C59.7432 62.8336 59.6157 62.6383 59.5736 62.4128L57.2996 50.2337L57.6508 39.9049C57.6739 39.227 57.1429 38.659 56.4652 38.6357C55.7875 38.6131 55.2193 39.1435 55.1961 39.8213L54.6453 56.0225H12.2562L11.2721 27.0775C11.2623 26.7887 11.2287 26.4977 11.1721 26.2123L8.08773 10.7066C9.05051 9.69226 10.1615 8.81201 11.3938 8.10745L21.6012 2.27203C22.0899 3.15719 22.9212 3.84079 23.9436 4.11947L25.6109 4.57368C28.1474 5.26481 30.7564 5.6103 33.3651 5.6103C35.9741 5.6103 38.5829 5.26481 41.1194 4.57368L42.7867 4.11947C43.8377 3.83293 44.6869 3.11887 45.1694 2.1972L49.566 4.71056C49.7583 4.82059 49.9676 4.87266 50.1744 4.87266C50.6006 4.87266 51.015 4.65047 51.2416 4.25406C51.5783 3.6651 51.3739 2.91502 50.7851 2.57854L45.6066 -0.381824V-4.30824C45.6068 -6.41766 43.8905 -8.13379 41.7809 -8.13379H24.9494C22.84 -8.13379 21.1239 -6.41766 21.1239 -4.30824V-0.283909L10.1747 5.97543C5.60399 8.58834 2.45908 13.2642 1.76237 18.483L-1.98902 46.5816C-2.07892 47.2537 -1.6067 47.8715 -0.934388 47.9612C-0.879209 47.9687 -0.82452 47.9722 -0.770323 47.9722C-0.164493 47.9722 0.362907 47.5237 0.445267 46.9064L4.19666 18.808C4.45717 16.8567 5.11769 14.9944 6.10535 13.3292L8.76315 26.6911C8.79393 26.8458 8.81227 27.0037 8.81734 27.1605L9.60181 50.2339L7.32799 62.4126C7.28574 62.6383 7.15835 62.8336 6.96907 62.963C6.77963 63.0925 6.5517 63.14 6.32591 63.0975L-0.720383 61.7646C-1.16755 61.6799 -1.47079 61.2601 -1.4107 60.8088L-0.265028 52.228C-0.175136 51.5559 -0.647356 50.9381 -1.31966 50.8484C-1.99213 50.7587 -2.60959 51.2307 -2.69932 51.903L-3.84499 60.4837C-3.94504 61.2324 -3.78474 61.9579 -3.43401 62.569L-4.48226 71.0656C-4.64158 72.3574 -3.80586 73.5543 -2.53869 73.85L2.96748 75.1348C3.16299 75.1805 3.35849 75.2025 3.55088 75.2023C4.66823 75.2023 5.68127 74.463 5.99238 73.339L8.29224 65.0298C8.31287 65.0164 8.33432 65.0044 8.35462 64.9905C9.08653 64.4903 9.57922 63.735 9.74214 62.8636L9.9866 61.5543L10.2044 67.9612C10.2519 69.3543 11.381 70.4456 12.7747 70.4456H54.1265C55.5204 70.4456 56.6494 69.3543 56.6969 67.9612L56.9147 61.5537L57.1593 62.8636C57.322 63.7348 57.8147 64.4903 58.5466 64.9905C58.5671 65.0044 58.5884 65.0164 58.6092 65.0298L60.909 73.3388C61.2203 74.4629 62.233 75.2023 63.3505 75.2021C63.5429 75.2021 63.7384 75.1802 63.9339 75.1347L69.4401 73.8498C70.7074 73.5546 71.5432 72.3577 71.3839 71.066ZM38.1443 2.72607C36.9942 2.93238 35.8339 3.06337 34.6704 3.11953V-5.67773H38.1443V2.72607ZM32.2145 3.12706C31.0513 3.07761 29.8909 2.95399 28.7405 2.7544V-5.67773H32.2145V3.12706ZM43.1507 -4.30824V0.428674C43.1507 1.04482 42.7355 1.5881 42.1411 1.75003L40.6005 2.16985V-5.67773H41.781C42.5362 -5.67773 43.1507 -5.06339 43.1507 -4.30824ZM23.5799 -4.30824C23.5799 -5.06339 24.1943 -5.67773 24.9494 -5.67773H26.2842V2.21144C26.2751 2.20899 26.2657 2.20686 26.2566 2.2044L24.5894 1.7502C23.9949 1.58826 23.5798 1.04482 23.5798 0.428838L23.5799 -4.30824ZM3.62522 72.684C3.61327 72.7274 3.56955 72.7533 3.5255 72.7433L-1.98067 71.4584C-2.02243 71.4486 -2.0501 71.4092 -2.04486 71.3664L-1.15838 64.1813L5.62364 65.4642L3.62522 72.684ZM22.0631 58.4787H24.5742V67.9898H22.0631V58.4787ZM19.607 67.9898H17.0958V58.4787H19.607V67.9898ZM27.0302 58.4787H29.5415V67.9898H27.0302V58.4787ZM31.9974 58.4787H34.5085V67.9898H31.9974V58.4787ZM36.9645 58.4787H39.4758V67.9898H36.9645V58.4787ZM41.9318 58.4787H44.4429V67.9898H41.9318V58.4787ZM46.899 58.4787H49.4102V67.9898H46.899V58.4787ZM12.6593 67.878L12.3397 58.4787H14.6395V67.9898H12.7747C12.7122 67.9898 12.6614 67.9407 12.6593 67.878ZM54.1267 67.9898H51.8663V58.4787H54.5618L54.2421 67.878C54.2402 67.9407 54.1894 67.9898 54.1267 67.9898ZM68.8823 71.4586L63.3761 72.7435C63.3324 72.7536 63.2883 72.7274 63.2764 72.6842L61.278 65.4645L68.06 64.1816L68.9464 71.3668C68.9517 71.4093 68.924 71.4488 68.8823 71.4586Z" fill="#475467"/>
</g>
<defs>
<clipPath id="clip0_9014_17949">
<rect width="66.0528" height="66.0525" fill="white" transform="translate(0.473579 0.5)"/>
</clipPath>
</defs>
</svg>
