<svg width="19" height="19" viewBox="0 0 19 19" fill="none" xmlns="http://www.w3.org/2000/svg">
<path d="M6.16669 6.66675H6.17502M3.30231 2.4478L1.94774 3.80237C1.65948 4.09062 1.51536 4.23475 1.41229 4.40294C1.32091 4.55206 1.25357 4.71463 1.21274 4.88469C1.16669 5.07651 1.16669 5.28033 1.16669 5.68798L1.16669 8.06218C1.16669 8.46983 1.16669 8.67365 1.21274 8.86547C1.25356 9.03553 1.32091 9.1981 1.41229 9.34722C1.51536 9.51542 1.65948 9.65954 1.94773 9.94779L8.33826 16.3383C9.3283 17.3284 9.82332 17.8234 10.3941 18.0089C10.8962 18.172 11.4371 18.172 11.9392 18.0089C12.51 17.8234 13.0051 17.3284 13.9951 16.3383L15.8383 14.4952C16.8283 13.5051 17.3233 13.0101 17.5088 12.4393C17.6719 11.9372 17.6719 11.3963 17.5088 10.8942C17.3233 10.3234 16.8283 9.82836 15.8383 8.83832L9.44773 2.4478C9.15948 2.15954 9.01535 2.01542 8.84716 1.91235C8.69804 1.82097 8.53547 1.75363 8.36541 1.7128C8.17359 1.66675 7.96977 1.66675 7.56212 1.66675L5.18792 1.66675C4.78027 1.66675 4.57645 1.66675 4.38463 1.7128C4.21457 1.75363 4.052 1.82097 3.90288 1.91235C3.73468 2.01542 3.59056 2.15954 3.30231 2.4478ZM6.58335 6.66675C6.58335 6.89687 6.39681 7.08341 6.16669 7.08341C5.93657 7.08341 5.75002 6.89687 5.75002 6.66675C5.75002 6.43663 5.93657 6.25008 6.16669 6.25008C6.39681 6.25008 6.58335 6.43663 6.58335 6.66675Z" stroke="#344054" stroke-width="1.5" stroke-linecap="round" stroke-linejoin="round"/>
</svg>
