<svg width="56" height="57" viewBox="0 0 56 57" fill="none" xmlns="http://www.w3.org/2000/svg">
<path d="M47.5218 9.0043C42.3072 3.78997 35.3743 0.918213 27.9999 0.918213C20.6256 0.918213 13.6926 3.78997 8.47804 9.0043C3.26368 14.2188 0.391907 21.1518 0.391907 28.5261C0.391907 35.9004 3.26368 42.8333 8.47804 48.0479C13.6926 53.2622 20.6256 56.134 27.9999 56.134C35.3743 56.134 42.3072 53.2622 47.5218 48.0479C52.7362 42.8333 55.6079 35.9004 55.6079 28.5261C55.6079 21.1518 52.7362 14.2188 47.5218 9.0043ZM46.3779 46.904C41.469 51.8129 34.9423 54.5163 27.9999 54.5163C21.0576 54.5163 14.5309 51.8129 9.62193 46.904C4.71299 41.9951 2.00956 35.4684 2.00956 28.5261C2.00956 21.5838 4.71299 15.0571 9.62193 10.1482C14.5309 5.23928 21.0576 2.53586 27.9999 2.53586C34.9423 2.53586 41.469 5.23928 46.3779 10.1482C51.2869 15.0571 53.9903 21.5838 53.9903 28.5261C53.9903 35.4684 51.2869 41.9951 46.3779 46.904Z" fill="#475467"/>
<path d="M27.9999 6.10512C15.6369 6.10512 5.57887 16.1631 5.57887 28.5261C5.57887 40.889 15.6369 50.947 27.9999 50.947C40.3629 50.947 50.421 40.889 50.421 28.5261C50.421 16.1631 40.3629 6.10512 27.9999 6.10512ZM27.9999 49.3293C16.5289 49.3293 7.19652 39.997 7.19652 28.5261C7.19652 17.0551 16.5289 7.72276 27.9999 7.72276C36.4623 7.72276 43.7599 12.8022 47.0063 20.0719L45.1293 20.3848C44.0528 18.1277 42.5126 16.0666 40.645 14.3944C40.3122 14.0964 39.8008 14.1247 39.503 14.4574C39.205 14.7902 39.2333 15.3014 39.566 15.5994C41.217 17.0777 42.5883 18.888 43.5674 20.8708C42.5498 21.4652 41.8873 22.5644 41.8873 23.8072V28.2585C41.4653 28.4364 40.92 28.5817 40.0981 28.5817C38.7988 28.5817 38.1835 28.2305 37.4711 27.8237C36.674 27.3686 35.7707 26.8528 34.0421 26.8528C32.3143 26.8528 31.4114 27.3687 30.6149 27.8238C29.9031 28.2305 29.2884 28.5817 27.9903 28.5817C26.6936 28.5817 26.0795 28.2306 25.3685 27.8239C24.5725 27.3687 23.6703 26.8528 21.9437 26.8528C20.2164 26.8528 19.3139 27.3687 18.5174 27.8238C18.1296 28.0454 17.9949 28.5395 18.2165 28.9273C18.4382 29.3151 18.9322 29.4498 19.3201 29.2282C20.0316 28.8215 20.646 28.4704 21.9436 28.4704C23.2402 28.4704 23.8543 28.8215 24.5654 29.2282C25.3614 29.6834 26.2636 30.1994 27.9902 30.1994C29.718 30.1994 30.6208 29.6834 31.4174 29.2283C32.1291 28.8217 32.7439 28.4704 34.0421 28.4704C35.3414 28.4704 35.9566 28.8217 36.6691 29.2284C37.4661 29.6835 38.3694 30.1994 40.0981 30.1994C40.8215 30.1994 41.4027 30.1066 41.8873 29.9691V33.245C41.8873 34.4881 42.55 35.5874 43.5681 36.1817C40.6591 42.0902 34.6223 45.8715 27.9998 45.8715C18.4355 45.8715 10.6543 38.0904 10.6543 28.5261V28.5257C11.4348 28.6393 11.9239 28.9171 12.4681 29.2283C13.2644 29.6835 14.1668 30.1995 15.8938 30.1995C16.3405 30.1995 16.7026 29.8373 16.7026 29.3906C16.7026 28.9439 16.3405 28.5818 15.8938 28.5818C14.5967 28.5818 13.9824 28.2307 13.2712 27.824C12.6235 27.4538 11.9055 27.0434 10.7309 26.9031C11.5521 18.097 18.9829 11.1807 27.9999 11.1807C31.2185 11.1807 34.3603 12.0683 37.0859 13.7479C37.4661 13.9822 37.9645 13.8639 38.1988 13.4835C38.4332 13.1032 38.3149 12.6049 37.9345 12.3706C34.9537 10.5339 31.5183 9.563 27.9999 9.563C17.5436 9.563 9.03677 18.0698 9.03677 28.5261C9.03677 38.9823 17.5436 47.4891 27.9999 47.4891C35.3248 47.4891 41.9944 43.2577 45.1303 36.6676L47.0063 36.9802C43.7599 44.2499 36.4623 49.3293 27.9999 49.3293ZM44.9963 35.0054C44.1323 34.8614 43.5051 34.1211 43.5051 33.2451V23.8073C43.5051 22.9313 44.1322 22.1909 44.9963 22.0469L47.6197 21.6097C48.3852 23.7747 48.8033 26.1024 48.8033 28.5263C48.8033 30.9502 48.3852 33.2775 47.6197 35.4426L44.9963 35.0054Z" fill="#475467"/>
<path d="M24.542 19.9369C23.1427 19.9369 22.0043 21.0754 22.0043 22.4747C22.0043 23.874 23.1428 25.0125 24.542 25.0125C25.9413 25.0125 27.0798 23.874 27.0798 22.4747C27.0798 21.0754 25.9413 19.9369 24.542 19.9369ZM24.542 23.3948C24.0346 23.3948 23.6219 22.982 23.6219 22.4747C23.6219 21.9674 24.0347 21.5546 24.542 21.5546C25.0493 21.5546 25.4622 21.9674 25.4622 22.4747C25.4622 22.982 25.0493 23.3948 24.542 23.3948Z" fill="#475467"/>
<path d="M30.5934 15.6144C29.6707 15.6144 28.9201 16.365 28.9201 17.2877C28.9201 18.2104 29.6707 18.961 30.5934 18.961C31.5161 18.961 32.2667 18.2104 32.2667 17.2877C32.2667 16.365 31.5161 15.6144 30.5934 15.6144Z" fill="#475467"/>
<path d="M34.4836 20.8014C33.7992 20.8014 33.2425 21.3582 33.2425 22.0424C33.2425 22.7268 33.7993 23.2835 34.4836 23.2835C35.1678 23.2835 35.7246 22.7267 35.7246 22.0424C35.7246 21.3582 35.1678 20.8014 34.4836 20.8014Z" fill="#475467"/>
</svg>
