<svg width="68" height="67" viewBox="0 0 68 67" fill="none" xmlns="http://www.w3.org/2000/svg">
<path d="M70.2719 14.6578C71.2675 15.1382 72.1664 15.7975 72.9238 16.6029C73.1335 16.8259 73.4054 16.9808 73.7042 17.0474C74.003 17.114 74.3149 17.0892 74.5995 16.9764C74.8841 16.8635 75.1282 16.6677 75.3001 16.4143C75.472 16.161 75.5637 15.8619 75.5635 15.5557V5.05887C75.5634 4.7632 75.4775 4.47392 75.3163 4.22609C75.1551 3.97827 74.9254 3.78255 74.6551 3.66266C70.9201 2.02213 66.7856 1.5142 62.7646 2.20188V-6.45984C62.7646 -6.86485 62.6037 -7.25327 62.3173 -7.53966C62.0309 -7.82605 61.6425 -7.98694 61.2375 -7.98694H51.8907C51.4858 -7.98671 51.0975 -7.82574 50.8112 -7.53941C50.5248 -7.25307 50.3638 -6.86478 50.3636 -6.45984V6.93327C47.0861 8.69708 43.6478 10.1441 40.0953 11.2545V-6.45984C40.0953 -6.86485 39.9345 -7.25327 39.6481 -7.53966C39.3617 -7.82605 38.9733 -7.98694 38.5682 -7.98694H29.2223C28.8181 -7.98578 28.4308 -7.82438 28.1453 -7.53812C27.8599 -7.25186 27.6996 -6.8641 27.6996 -6.45984V11.2545C24.1468 10.1446 20.7084 8.69729 17.4313 6.9324V-6.45984C17.4311 -6.86478 17.2701 -7.25307 16.9838 -7.53941C16.6974 -7.82574 16.3091 -7.98671 15.9042 -7.98694H6.55307C6.14806 -7.98694 5.75963 -7.82605 5.47324 -7.53966C5.18685 -7.25327 5.02596 -6.86485 5.02596 -6.45984V2.20188C1.00493 1.51379 -3.12964 2.02173 -6.86454 3.66266C-7.13481 3.78255 -7.36449 3.97827 -7.52573 4.22609C-7.68697 4.47392 -7.77285 4.7632 -7.77295 5.05887V15.5479C-7.77287 15.8523 -7.68183 16.1497 -7.5115 16.402C-7.34118 16.6542 -7.09935 16.8499 -6.81705 16.9637C-6.53475 17.0776 -6.22487 17.1045 -5.92718 17.041C-5.62948 16.9774 -5.35756 16.8264 -5.14632 16.6072C-4.38027 15.8022 -3.47544 15.1419 -2.47519 14.6578C-0.0985732 13.6275 2.57619 13.5174 5.02945 14.3489V22.9137C1.00845 22.2258 -3.12595 22.7291 -6.86454 24.3614C-7.13487 24.4812 -7.36461 24.6769 -7.52587 24.9248C-7.68713 25.1726 -7.77296 25.4619 -7.77295 25.7576V36.2554C-7.77267 36.5605 -7.68103 36.8586 -7.50983 37.1112C-7.33862 37.3638 -7.0957 37.5594 -6.81237 37.6727C-6.52903 37.786 -6.21825 37.8119 -5.92007 37.747C-5.62189 37.6821 -5.34997 37.5294 -5.13934 37.3086C-4.37888 36.5001 -3.47684 35.8376 -2.47781 35.3539C-0.101735 34.3239 2.57145 34.2095 5.02683 35.0328V43.5994C1.00552 42.9111 -3.12938 43.4191 -6.86454 45.0602C-7.13481 45.1801 -7.36449 45.3758 -7.52573 45.6236C-7.68697 45.8714 -7.77285 46.1607 -7.77295 46.4564V56.9541C-7.77287 57.2585 -7.68183 57.5559 -7.5115 57.8082C-7.34118 58.0605 -7.09935 58.2561 -6.81705 58.37C-6.53475 58.4838 -6.22487 58.5107 -5.92718 58.4472C-5.62948 58.3837 -5.35756 58.2327 -5.14632 58.0135C-4.37952 57.2075 -3.47607 56.5437 -2.47781 56.0527C-0.100394 55.0251 2.57377 54.9163 5.02683 55.7473V73.822C5.02683 74.2271 5.18773 74.6155 5.47411 74.9019C5.7605 75.1882 6.14893 75.3491 6.55394 75.3491H15.8998C16.3048 75.3489 16.6931 75.1879 16.9794 74.9016C17.2658 74.6153 17.4267 74.227 17.427 73.822V61.4473C20.7155 62.9449 24.1611 64.0703 27.6996 64.8025V73.822C27.6996 74.2271 27.8605 74.6155 28.1469 74.9019C28.4333 75.1882 28.8217 75.3491 29.2267 75.3491H38.5726C38.9776 75.3491 39.366 75.1882 39.6524 74.9019C39.9388 74.6155 40.0997 74.2271 40.0997 73.822V64.8034C43.6367 64.0715 47.0808 62.9467 50.368 61.4499V73.822C50.3682 74.227 50.5292 74.6153 50.8155 74.9016C51.1019 75.1879 51.4901 75.3489 51.8951 75.3491H61.2375C61.6425 75.3491 62.0309 75.1882 62.3173 74.9019C62.6037 74.6155 62.7646 74.2271 62.7646 73.822V55.7473C65.2158 54.9163 67.8881 55.0245 70.264 56.0509C71.2616 56.5395 72.1643 57.2017 72.9299 58.0065C73.1403 58.2277 73.4122 58.3808 73.7104 58.4459C74.0087 58.5111 74.3196 58.4854 74.6031 58.3721C74.8866 58.2588 75.1296 58.0632 75.3008 57.8104C75.472 57.5577 75.5635 57.2594 75.5635 56.9541V46.4564C75.5634 46.1607 75.4775 45.8714 75.3163 45.6236C75.1551 45.3758 74.9254 45.1801 74.6551 45.0602C70.9201 43.4195 66.7855 42.9118 62.7646 43.6003V35.0319C65.2181 34.2083 67.8897 34.3224 70.264 35.3522C71.2614 35.8411 72.164 36.5032 72.9299 37.3077C73.1403 37.5289 73.4122 37.682 73.7104 37.7472C74.0087 37.8123 74.3196 37.7866 74.6031 37.6733C74.8866 37.5601 75.1296 37.3644 75.3008 37.1117C75.472 36.8589 75.5635 36.5606 75.5635 36.2554V25.7576C75.5635 25.4619 75.4777 25.1726 75.3164 24.9248C75.1552 24.6769 74.9254 24.4812 74.6551 24.3614C70.918 22.7284 66.7847 22.2242 62.7646 22.9111V14.3454C65.2191 13.5146 67.8949 13.6259 70.2719 14.6578ZM59.7104 -4.93274V2.87729C57.5361 3.49927 55.4284 4.33405 53.4178 5.36952V-4.93274H59.7104ZM54.3681 8.30592C56.6248 7.0972 59.024 6.17609 61.5098 5.56412C61.5543 5.55626 61.597 5.54317 61.6415 5.53096C65.2376 4.62141 69.024 4.81386 72.5093 6.08333V12.389C72.2222 12.2144 71.9168 12.0539 71.5939 11.8994C67.5458 9.94559 62.6451 10.4421 57.0279 13.3829C51.3794 16.3376 45.8198 19.0681 40.0988 20.2862V14.4056C44.7081 13.231 49.3103 10.9491 54.3681 8.30592ZM27.6996 52.6599C24.1472 51.543 20.7078 50.0941 17.427 48.3325V40.7599C20.7122 42.2687 24.1586 43.3985 27.6996 44.1273V52.6599ZM27.6996 23.3972V31.9629C24.1477 30.8467 20.7095 29.3963 17.4313 27.6312V20.0393C20.7186 21.5367 24.1627 22.663 27.6996 23.3972ZM17.427 37.3968V31.0571C21.0261 32.9574 24.8456 34.4073 28.7991 35.374C28.8621 35.3926 28.9262 35.4072 28.9911 35.4176C32.222 36.1274 35.5685 36.1274 38.7995 35.4176C38.8643 35.4072 38.9285 35.3926 38.9915 35.374C42.945 34.4073 46.7645 32.9574 50.3636 31.0571V37.3968C43.88 40.382 38.8998 41.6831 33.8953 41.6831C28.8907 41.6831 23.9132 40.3838 17.427 37.3968ZM40.0953 44.1265C43.6345 43.3972 47.0793 42.2684 50.3636 40.7616V48.3343C47.0869 50.1012 43.6485 51.55 40.0953 52.6608V44.1265ZM50.3636 27.6338C47.0854 29.3989 43.6473 30.8493 40.0953 31.9655V23.3972C43.6323 22.6652 47.0764 21.5404 50.3636 20.0437V27.6338ZM37.0411 -4.93274V32.6278C34.9591 32.985 32.8315 32.985 30.7494 32.6278V-4.93274H37.0411ZM8.08018 -4.93274H14.3727V5.36429C12.3618 4.33102 10.2542 3.49802 8.08018 2.87729V-4.93274ZM-3.79723 11.9012C-4.11051 12.0504 -4.41767 12.2153 -4.71873 12.3933V6.08333C-1.23282 4.81379 2.55427 4.62164 6.15079 5.53183C6.19355 5.54318 6.23805 5.55626 6.27993 5.56412C8.7662 6.17621 11.166 7.09732 13.4233 8.30592C18.4793 10.9491 23.0799 13.2302 27.6952 14.4056V20.2862C21.9804 19.0646 16.4173 16.3376 10.7661 13.3829C5.14551 10.4465 0.243932 9.94559 -3.79723 11.9012ZM-3.79723 32.5999C-4.11022 32.75 -4.41709 32.9141 -4.71786 33.0921V26.7821C-1.60009 25.6439 1.76916 25.3781 5.02683 26.0133V31.8878C2.09187 31.0919 -1.02785 31.3437 -3.79723 32.5999ZM8.08018 15.4816C8.49817 15.6735 8.91703 15.8646 9.34811 16.0924C11.0262 16.965 12.6982 17.8263 14.3727 18.637V46.7653C12.362 45.7299 10.2544 44.8949 8.08018 44.2722V15.4816ZM14.3727 72.2949H8.08018V56.8861C8.49817 57.0789 8.91703 57.27 9.34811 57.4969C11.0262 58.3739 12.6982 59.2308 14.3727 60.0415V72.2949ZM10.7644 54.79C5.16035 51.8519 0.259639 51.351 -3.80858 53.3065C-4.11923 53.4578 -4.42378 53.6221 -4.72222 53.7996V47.48C-1.23585 46.2111 2.55141 46.0192 6.14817 46.9294C6.19005 46.9407 6.23543 46.9538 6.27557 46.9616C8.76145 47.5737 11.1609 48.4945 13.4181 49.7026C18.2865 52.2524 23.0467 54.6207 27.6917 55.811V61.6925C21.9804 60.4708 16.4173 57.7439 10.7644 54.79ZM30.7477 72.2949V44.5724C31.7915 44.6796 32.8399 44.7347 33.8892 44.7373C34.959 44.7373 36.0062 44.6754 37.035 44.5724V72.2949H30.7477ZM59.7086 72.2949H53.4178V60.0432C55.0933 59.2317 56.7661 58.3739 58.4451 57.4951C58.8753 57.2691 59.2924 57.0789 59.7104 56.8843L59.7086 72.2949ZM72.5093 47.48V53.7961C72.2205 53.6216 71.915 53.4575 71.5913 53.3004C67.5318 51.3492 62.6311 51.8501 57.0279 54.7891C51.3794 57.7439 45.8216 60.4743 40.0988 61.6925V55.8101C44.7439 54.6207 49.5041 52.2524 54.3716 49.7017C56.629 48.4926 59.0292 47.5714 61.5159 46.9599C61.5586 46.952 61.6031 46.939 61.6407 46.9276C65.2371 46.0187 69.0236 46.2112 72.5093 47.48ZM72.5093 26.7821V33.0973C72.2213 32.9228 71.915 32.7579 71.5913 32.6017C68.8217 31.3442 65.7003 31.0918 62.7646 31.8878V26.0133C66.0223 25.3781 69.3915 25.6439 72.5093 26.7821ZM59.7104 44.2731C57.5362 44.8954 55.4285 45.7302 53.4178 46.7653V18.637C55.0924 17.8254 56.7644 16.9676 58.4425 16.0898C58.8735 15.8646 59.2924 15.6735 59.7104 15.4789V44.2731Z" fill="#475467"/>
</svg>
