<svg width="57" height="54" viewBox="0 0 57 54" fill="none" xmlns="http://www.w3.org/2000/svg">
<path d="M54.0251 43.2869C52.8351 43.186 52.3924 42.7077 51.51 41.7548C50.409 40.5653 48.901 38.9365 45.8276 38.6761C42.7542 38.416 40.9939 39.7674 39.7075 40.755C38.6177 41.6252 37.8204 42.0776 36.4222 41.7559C41.9242 36.2539 44.081 27.8533 41.249 20.0723C37.3547 9.37332 25.4827 3.83684 14.783 7.73112C13.6614 8.13932 12.5722 8.64505 11.5449 9.23458C11.1828 9.44247 11.0068 9.88578 11.1697 10.2703C11.3641 10.7294 11.9076 10.902 12.3257 10.6611C13.2807 10.1108 14.2945 9.63909 15.3391 9.25886C16.956 8.67042 18.602 8.31718 20.2398 8.17888C16.8371 9.71333 13.1574 11.9728 10.6036 14.6299C6.84784 18.5378 4.18212 23.1312 2.85024 27.8987C2.63964 22.2388 4.95797 16.6105 9.3487 12.785C9.68146 12.495 9.74519 11.9843 9.46685 11.6418C9.1755 11.2833 8.64797 11.2399 8.30232 11.5402C5.18277 14.2506 2.96654 17.8015 1.89327 21.8092C0.795077 25.9099 0.984758 30.1934 2.44194 34.1967C3.80591 37.9442 6.20011 41.1917 9.36583 43.5883C12.4485 45.9219 16.1083 47.344 19.9496 47.7006C20.2217 47.7262 20.5585 47.5749 20.735 47.2472C20.8283 47.0739 20.861 46.8691 20.8098 46.6791C20.7237 46.3607 20.4476 46.114 20.0999 46.0817C16.9151 45.786 13.914 44.6883 11.3348 42.973C11.2491 41.5015 11.3648 39.936 11.6621 38.331C17.9267 42.6706 25.7758 44.2709 33.0649 42.4979C31.6531 43.5298 30.0754 44.3826 28.3517 45.01C26.8546 45.555 25.2993 45.9111 23.7293 46.0686C23.2825 46.1133 22.9567 46.5117 23.0015 46.9584C23.0263 47.2692 23.3882 47.7197 23.8915 47.6861C25.596 47.5152 27.2836 47.1289 28.9077 46.5378C30.087 46.1085 31.2033 45.5822 32.2513 44.9713C33.1347 45.7062 34.476 46.5249 36.5591 46.7014C39.6332 46.9623 41.3922 45.6108 42.6796 44.6222C43.709 43.8315 44.2266 43.4348 45.4157 43.5358C46.6056 43.6366 47.0482 44.1149 47.9306 45.0679C49.0318 46.2573 50.5397 47.8862 53.6123 48.1466C54.8387 48.2796 56.1599 47.2394 56.2493 45.9224C56.3629 44.5829 55.3651 43.4004 54.0251 43.2869ZM40.1924 32.1345C32.5536 36.9787 21.9291 36.5554 13.9804 31.3597C14.647 29.9661 15.424 28.6051 16.2977 27.3134C23.6598 32.0085 32.6984 33.1153 40.6612 29.9151C40.5489 30.6655 40.3919 31.4065 40.1924 32.1345ZM40.8454 28.0643C33.4683 31.4312 24.4679 30.5724 17.244 25.9897C18.1561 24.7862 19.1444 23.6836 20.3029 22.5509C24.1796 24.7374 28.9108 25.8635 33.2522 25.864C35.7926 25.864 38.3133 25.4965 40.7208 24.7576C40.8603 25.8647 40.9004 26.9707 40.8454 28.0643ZM38.7135 18.3387C37.602 18.4977 36.4715 18.5812 35.3401 18.5855C34.9231 18.5871 34.5489 18.882 34.4984 19.2958C34.4379 19.791 34.8225 20.2114 35.3051 20.2114H35.3069C36.6907 20.2083 38.0741 20.095 39.4275 19.8749C39.5298 20.1231 39.6286 20.3737 39.7213 20.6283C40.024 21.46 40.2633 22.2995 40.4448 23.1416C34.4339 25.0538 27.464 24.4457 21.5486 21.3921C22.8182 20.2717 24.1536 19.2703 25.5376 18.3965C27.4511 19.129 29.4341 19.6487 31.4373 19.9374C31.7308 19.9806 32.0999 19.825 32.2814 19.4592C32.347 19.327 32.3784 19.1772 32.36 19.0307C32.3155 18.6767 32.0396 18.3816 31.6694 18.3282C30.2211 18.1194 28.7834 17.7826 27.3776 17.3252C30.1479 15.8454 33.073 14.8663 36.0254 14.4545C37.0644 15.6137 37.9714 16.9134 38.7135 18.3387ZM9.68178 41.7411C8.84578 41.0454 8.0682 40.2787 7.35977 39.4485C7.19133 36.2805 7.7672 32.8752 9.03329 29.5839C9.19447 29.1648 8.98549 28.6944 8.56635 28.5332C8.14721 28.3719 7.67691 28.5812 7.51585 29.0001C6.46816 31.7236 5.86497 34.5279 5.73252 37.2366C4.86888 35.8638 4.11427 34.25 3.61655 32.5706C4.20055 26.5946 7.09627 20.6254 11.7757 15.7564C15.1168 12.2801 20.5331 9.51542 24.4628 8.29648C26.027 8.51651 27.5524 8.92914 29.0039 9.51975C23.6903 10.8768 18.5773 13.9326 14.4027 18.2845C12.311 20.465 10.5445 22.8765 9.15209 25.452C8.93856 25.847 9.08564 26.3401 9.48061 26.5538C9.60353 26.6202 9.73587 26.6517 9.86648 26.6517C10.1554 26.6517 10.4353 26.4973 10.5823 26.2252C11.9053 23.7781 13.5853 21.4852 15.5759 19.41C20.057 14.7387 25.6586 11.6449 31.3711 10.6792C32.5271 11.3472 33.6151 12.137 34.6138 13.0386C28.7361 14.1443 23.0367 17.3355 18.4254 22.1337C13.5858 26.9944 9.73609 34.9668 9.68178 41.7411ZM13.8744 37.8299C13.2484 37.4499 12.6359 37.0403 12.046 36.6118C12.3698 35.3637 12.7934 34.1051 13.3092 32.8608C21.0226 37.8124 31.2624 38.6624 39.3913 34.4585C38.5753 36.4115 37.4374 38.227 36.0174 39.8189C29.0313 42.7502 20.7562 42.0079 13.8744 37.8299ZM54.6293 45.7855C54.6096 46.0921 54.2565 46.5489 53.7507 46.5269C51.305 46.3197 50.1462 45.068 49.1237 43.9634C48.1443 42.9057 47.3707 42.0702 45.5535 41.9162C43.7362 41.762 42.8326 42.4552 41.687 43.3351C40.4942 44.251 39.1412 45.2889 36.6968 45.0818C35.3456 44.9672 34.4035 44.5293 33.705 44.039C34.1818 43.7043 34.6424 43.3516 35.0849 42.981C35.5976 43.2498 36.1659 43.405 36.8338 43.4616C38.6512 43.6153 39.5547 42.9225 40.6988 42.0437C41.8922 41.1273 43.2444 40.0892 45.6906 40.2959C48.136 40.5031 49.2948 41.7547 50.3174 42.8592C51.2967 43.917 52.0703 44.7526 53.8881 44.9066C54.2208 44.9428 54.6469 45.2352 54.6293 45.7855Z" fill="#475467"/>
<path d="M36.2445 7.08126L37.2747 7.6581C38.1534 8.15019 38.8781 8.87487 39.3703 9.75368L39.9473 10.7839C40.1663 11.1751 40.5811 11.4182 41.0295 11.4182C41.4779 11.4182 41.8927 11.1751 42.1119 10.7838L42.6888 9.75368C43.181 8.87487 43.9056 8.15019 44.7845 7.6581L45.8145 7.08126C46.2058 6.86221 46.449 6.4474 46.449 5.99889C46.449 5.55038 46.2059 5.13558 45.8146 4.91652L44.7844 4.33968C43.9056 3.8476 43.181 3.12291 42.6888 2.2441L42.1118 1.21387C41.8927 0.822583 41.4781 0.579468 41.0295 0.579468C40.581 0.579468 40.1663 0.822583 39.9472 1.21387L39.3703 2.24399C38.8781 3.1228 38.1534 3.84749 37.2746 4.33957L36.2446 4.91642C35.8533 5.13547 35.6101 5.55027 35.6101 5.99878C35.6101 6.44729 35.8531 6.8621 36.2445 7.08126ZM38.069 5.75816C39.2095 5.11943 40.1501 4.17905 40.7889 3.03837L41.0296 2.6085L41.2704 3.03837C41.9092 4.17905 42.8497 5.11954 43.9902 5.75816L44.4198 5.99889L43.9901 6.23962C42.8496 6.87836 41.909 7.81873 41.2702 8.95941L41.0295 9.38928L40.7888 8.95941C40.15 7.81873 39.2095 6.87825 38.069 6.23962L37.6392 5.99889L38.069 5.75816Z" fill="#475467"/>
<path d="M8.8511 48.1429L8.06344 47.7019C7.4221 47.3427 6.89327 46.8139 6.53428 46.1728L6.09314 45.3849C5.89175 45.0254 5.51066 44.802 5.09856 44.802C4.68647 44.802 4.30537 45.0254 4.10388 45.385L3.66284 46.1726C3.30386 46.8139 2.77503 47.3426 2.1338 47.7018L1.34613 48.1428C0.986499 48.3442 0.763 48.7253 0.763 49.1375C0.763 49.5496 0.98639 49.9307 1.34603 50.1321L2.13369 50.5731C2.77503 50.9323 3.30386 51.4611 3.66284 52.1023L4.10398 52.8901C4.30537 53.2497 4.68647 53.473 5.09856 53.473C5.51066 53.473 5.89175 53.2497 6.09325 52.89L6.53428 52.1024C6.89327 51.4611 7.4221 50.9324 8.06333 50.5732L8.85099 50.1322C9.21063 49.9308 9.43412 49.5497 9.43412 49.1375C9.43412 48.7253 9.21063 48.3442 8.8511 48.1429ZM7.26894 49.1547C6.36585 49.6606 5.62132 50.4051 5.11569 51.3081L5.09856 51.3387L5.08144 51.308C4.5758 50.4051 3.83128 49.6605 2.92807 49.1546L2.8974 49.1375L2.92807 49.1203C3.83117 48.6144 4.57569 47.8699 5.08133 46.9669L5.09856 46.9364L5.11569 46.967C5.62132 47.8699 6.36585 48.6145 7.26905 49.1204L7.29973 49.1375L7.26894 49.1547Z" fill="#475467"/>
<path d="M1.34603 7.53542L2.13369 7.97645C2.77503 8.33565 3.30386 8.86448 3.66284 9.50559L4.10398 10.2935C4.30537 10.653 4.68647 10.8764 5.09856 10.8764C5.51066 10.8764 5.89175 10.653 6.09325 10.2934L6.53428 9.5057C6.89327 8.86448 7.4221 8.33576 8.06333 7.97656L8.85099 7.53552C9.21063 7.33414 9.43412 6.95305 9.43412 6.54084C9.43412 6.12864 9.21063 5.74755 8.8511 5.54627L8.06344 5.10524C7.4221 4.74604 6.89327 4.21721 6.53428 3.57609L6.09314 2.78822C5.89175 2.42869 5.51066 2.20531 5.09856 2.20531C4.68647 2.20531 4.30537 2.42869 4.10388 2.78833L3.66284 3.57599C3.30386 4.21721 2.77503 4.74593 2.1338 5.10513L1.34613 5.54616C0.986499 5.74755 0.763 6.12864 0.763 6.54084C0.763 6.95294 0.98639 7.33403 1.34603 7.53542ZM2.92818 6.52361C3.83128 6.01776 4.5758 5.27324 5.08144 4.37026L5.09856 4.33969L5.11569 4.37036C5.62132 5.27324 6.36585 6.01787 7.26905 6.52372L7.29973 6.54084L7.26905 6.55808C6.36596 7.06393 5.62143 7.80845 5.1158 8.71143L5.09856 8.742L5.08144 8.71132C4.5758 7.80845 3.83128 7.06382 2.92807 6.55797L2.8974 6.54084L2.92818 6.52361Z" fill="#475467"/>
<path d="M47.5481 17.2465L48.2147 17.6198C48.7372 17.9124 49.168 18.3432 49.4606 18.8656L49.8337 19.5321C50.0261 19.8758 50.3905 20.0895 50.7844 20.0895C51.1783 20.0895 51.5427 19.8759 51.7351 19.5321L52.1083 18.8656C52.4008 18.3432 52.8317 17.9124 53.3542 17.6198L54.0207 17.2465C54.3644 17.054 54.5779 16.6897 54.5779 16.2959C54.5779 15.902 54.3644 15.5377 54.0207 15.3452L53.3541 14.9719C52.8317 14.6794 52.4008 14.2485 52.1083 13.7261L51.7351 13.0596C51.5427 12.7159 51.1783 12.5023 50.7844 12.5023C50.3905 12.5023 50.0261 12.7158 49.8337 13.0596L49.4606 13.7261C49.168 14.2485 48.7372 14.6794 48.2146 14.9719L47.5481 15.3452C47.2044 15.5377 46.9909 15.902 46.9909 16.2959C46.9909 16.6897 47.2044 17.0539 47.5481 17.2465ZM50.7845 14.6818C51.1872 15.3403 51.74 15.8931 52.3986 16.2958C51.7401 16.6983 51.1872 17.2512 50.7845 17.9097C50.3819 17.2512 49.8291 16.6984 49.1705 16.2958C49.8291 15.8932 50.3819 15.3403 50.7845 14.6818Z" fill="#475467"/>
</svg>
